<svg id="Capa_1" enable-background="new 0 0 512 512" height="512" viewBox="0 0 512 512" width="512" xmlns="http://www.w3.org/2000/svg"><g><path d="m351.625 0h-215.558c-19.397 0-35.121 15.724-35.121 35.12v441.758c0 19.397 15.724 35.121 35.121 35.121h215.558c19.397 0 35.121-15.724 35.121-35.121v-441.758c0-19.396-15.724-35.12-35.121-35.12z" fill="#695d67"/><path d="m134.169 476.879v-441.759c0-19.396 15.724-35.12 35.121-35.12h-33.223c-19.397 0-35.121 15.724-35.121 35.12v441.758c0 19.397 15.724 35.121 35.121 35.121h33.223c-19.397.001-35.121-15.723-35.121-35.12z" fill="#544e55"/><path d="m132.947 91.293v338.513c0 1.72 1.4 3.12 3.12 3.12h215.558c1.72 0 3.12-1.4 3.12-3.12v-338.513z" fill="#dfebfa"/><path d="m173.129 429.806v-338.513h-40.181v338.513c0 1.72 1.4 3.12 3.12 3.12h40.181c-1.72 0-3.12-1.4-3.12-3.12z" fill="#b1dbfc"/><circle cx="243.846" cy="471.263" fill="#544e55" r="16.035"/><path d="m351.625 53.255h-180.557v40.098h183.676v-36.979c.001-1.72-1.399-3.119-3.119-3.119z" fill="#5cb3f8"/><path d="m173.129 53.255h-37.062c-1.72 0-3.12 1.399-3.12 3.119v36.979h40.182z" fill="#ff4756"/><g><path d="m269.714 34.232h-51.736c-4.267 0-7.726-3.459-7.726-7.726s3.459-7.726 7.726-7.726h51.736c4.267 0 7.726 3.459 7.726 7.726s-3.459 7.726-7.726 7.726z" fill="#544e55"/></g><path d="m284.981 185.744-38.169-11.775c-1.014-.039-2.028-.077-3.052-.077-42.898 0-77.673 34.78-77.673 77.683 0 24.768 11.604 46.812 29.656 61.037v-20.792c0-13.879 10.813-25.235 24.029-25.235h47.975c13.216 0 24.029 11.356 24.029 25.235v20.792c18.052-14.225 29.656-36.269 29.656-61.037.002-27.753-14.561-52.092-36.451-65.831z" fill="#5cb3f8"/><g><g><g><path d="m200.406 251.576c0-35.409 23.696-65.263 56.086-74.62l-9.68-2.986c-1.014-.039-2.028-.077-3.052-.077-42.898 0-77.673 34.78-77.673 77.683 0 24.768 11.604 46.812 29.656 61.037v-20.793c0-7.299 2.994-13.898 7.752-18.516-2.006-6.895-3.089-14.184-3.089-21.728z" fill="#0290f4"/></g></g></g><ellipse cx="243.761" cy="236.038" fill="#ffcebe" rx="28.399" ry="28.403"/><path d="m243.761 236.038c0-10.511 5.713-19.682 14.199-24.594-4.178-2.418-9.025-3.809-14.199-3.809-15.684 0-28.399 12.716-28.399 28.403 0 15.686 12.715 28.403 28.399 28.403 5.175 0 10.021-1.391 14.199-3.809-8.486-4.912-14.199-14.083-14.199-24.594z" fill="#ffb1a0"/><path d="m268.569 264.441h-27.418l-42.791 10.983-4.259 35.876c13.464 11.21 30.772 17.958 49.66 17.958s36.197-6.748 49.66-17.958v-22.005c0-13.669-11.184-24.854-24.852-24.854z" fill="#ff656f"/><path d="m225.065 288.264c0-11.221 7.538-20.762 17.798-23.823h-23.91c-13.668 0-24.852 11.185-24.852 24.855v22.005c8.867 7.383 19.409 12.813 30.964 15.672z" fill="#ff4756"/><path d="m389.528 53.218h-123.562c-11.839 0-21.525 9.688-21.525 21.528v89.469c0 11.841 9.686 21.528 21.525 21.528h83.294c2.663 0 4.468 2.663 3.538 5.158-1.169 3.137-2.668 6.163-4.489 9.027l-11.151 17.533c-1.983 3.118 1.299 6.909 4.669 5.391l13.443-6.057c12.473-5.62 22.115-15.324 27.788-27.002 1.204-2.479 3.716-4.051 6.471-4.051 11.839 0 21.525-9.688 21.525-21.528v-89.467c0-11.841-9.687-21.529-21.526-21.529z" fill="#ffe181"/><g><path d="m278.501 164.216v-89.469c0-11.841 9.686-21.528 21.525-21.528h-34.06c-11.839 0-21.525 9.688-21.525 21.528v89.469c0 11.841 9.686 21.528 21.525 21.528h34.06c-11.839 0-21.525-9.687-21.525-21.528z" fill="#fec458"/></g><g><path d="m376.252 96.808h-97.552c-4.275 0-7.741-3.466-7.741-7.742s3.466-7.742 7.741-7.742h97.551c4.275 0 7.741 3.466 7.741 7.742s-3.465 7.742-7.74 7.742z" fill="#fec458"/></g><g><path d="m376.252 127.363h-97.552c-4.275 0-7.741-3.466-7.741-7.742s3.466-7.742 7.741-7.742h97.551c4.275 0 7.741 3.466 7.741 7.742s-3.465 7.742-7.74 7.742z" fill="#fec458"/></g><g><path d="m376.252 157.918h-97.552c-4.275 0-7.741-3.466-7.741-7.742s3.466-7.742 7.741-7.742h97.551c4.275 0 7.741 3.466 7.741 7.742s-3.465 7.742-7.74 7.742z" fill="#fec458"/></g></g></svg>