<?xml version="1.0" encoding="utf-8"?>
<!-- Generator: Adobe Illustrator 23.0.1, SVG Export Plug-In . SVG Version: 6.00 Build 0)  -->
<svg version="1.1"
	 id="Layer_1" xmlns:cc="http://creativecommons.org/ns#" xmlns:dc="http://purl.org/dc/elements/1.1/" xmlns:rdf="http://www.w3.org/1999/02/22-rdf-syntax-ns#" xmlns:svg="http://www.w3.org/2000/svg"
	 xmlns="http://www.w3.org/2000/svg" xmlns:xlink="http://www.w3.org/1999/xlink" x="0px" y="0px" viewBox="0 0 100 100"
	 style="enable-background:new 0 0 100 100;" xml:space="preserve">
<style type="text/css">
	.st0{fill:#004E97;}
	.st1{fill:#F5EFF3;}
	.st2{fill:#121425;}
	.st3{fill:#DCD6D8;}
	.st4{fill:#F7F8F8;}
	.st5{fill:#F5F6F6;}
	.st6{fill:#F9F9F9;}
	.st7{fill:#F6F6F7;}
	.st8{fill:#ECEDEF;}
	.st9{fill:#EDEDF0;}
	.st10{fill:#EBECEE;}
	.st11{fill:#FAFBFA;}
	.st12{fill:#DFE0E3;}
	.st13{fill:#E9E9EC;}
	.st14{fill:#E8E8EB;}
	.st15{fill:#DCDCDF;}
	.st16{fill:#E8E9EB;}
	.st17{fill:#EAEBED;}
	.st18{fill:#E5E5E8;}
	.st19{fill:#E0E1E3;}
	.st20{fill:#E5E7E9;}
	.st21{fill:#D7D8DB;}
	.st22{fill:#E7E7E9;}
	.st23{fill:#EBEBEE;}
	.st24{fill:#E3E4E7;}
	.st25{fill:#E3E4E6;}
	.st26{fill:#E3E5E8;}
	.st27{fill:#E1E2E5;}
	.st28{fill:#EAEBEC;}
	.st29{fill:#DEDFE3;}
	.st30{fill:#DEDEE1;}
	.st31{fill:#DEDEE2;}
	.st32{fill:#E8E9EC;}
	.st33{fill:#E9EAEB;}
	.st34{fill:#EAEAEB;}
	.st35{fill:#C7C9CF;}
	.st36{fill:#707280;}
	.st37{fill:#CDCDD8;}
	.st38{fill:#171829;}
	.st39{fill:#171728;}
	.st40{fill:#151626;}
	.st41{fill:#1C1C2B;}
	.st42{fill:#2C2D3A;}
	.st43{fill:#232231;}
	.st44{fill:#202130;}
	.st45{fill:#1D1D2D;}
	.st46{fill:#1E1D2D;}
	.st47{fill:#1C1D2C;}
	.st48{fill:#585861;}
	.st49{fill:#FFFFFF;}
</style>
<rect x="21" y="20.1" class="st0" width="58" height="20.3"/>
<path id="path4" class="st1" d="M871.1,1835.4c0-331.4,0-662.9-0.1-994.3c0-4.2,1.1-4.8,5-4.8c330.1,0.1,660.2,0.1,990.3,0
	c3.9,0,5,0.5,5,4.8c-0.1,331.4-0.1,662.9-0.1,994.3c-1.4,1.4-3.2,1.6-5.1,1.7c-2,0.1-4,0.1-6,0.1c-325.9,0-651.9,0-977.8,0
	C878.4,1837.2,874.4,1838.2,871.1,1835.4z"/>
<path id="path6" class="st2" d="M874,671.2c333.3,0,666.7,0,1000,0c0,25.7,0,51.3,0.1,77c0,2.4-0.4,3.6-3,3c-0.5-0.1-1,0-1.5,0
	c-330.4,0-660.7,0-991.1,0.1c-3.8,0-4.6-1-4.6-4.6C874.1,721.5,874,696.3,874,671.2z"/>
<path id="path8" class="st3" d="M1373,609.2c-16.1,0.8-32.2-0.4-48.2-1.1c-24.5-1.1-48.9-3.1-72.8-8.9c-3.2-0.8-6.3-2-9.4-3.2
	c-1.7-0.7-4.3-0.8-3.9-3.7c0.3-2.4,1.6-4,4-5.2c8.3-4.1,17.3-5.5,26.3-6.8c17.7-2.6,35.5-4.3,53.3-5.3c8.3-0.5,16.6-0.5,24.9-0.7
	c9.8-0.3,19.5-1.4,29.4-1.1c13.4,0.5,26.9,0.6,40.3,1.3c27.2,1.4,54.6,2.7,81.2,9.8c3.1,0.8,6.1,1.8,8.7,3.5
	c4.2,2.9,4.1,5.4-0.4,7.7c-2.8,1.4-5.8,2.6-8.8,3.4c-12.8,3.4-25.9,5.1-39.1,6.5c-17.8,1.9-35.7,2.3-53.6,3.2
	C1394.3,609,1383.6,608.6,1373,609.2z"/>
<path id="path10" class="st4" d="M1005.8,725.2c-0.6-0.1-2.5-0.5-4.5-0.9c-1.2-0.2-2.4-0.4-1.8-2.1c0.5-1.4,1.4-1.4,2.7-1
	c2.9,0.9,5.8,1.7,8.8,0.4c1.8-0.8,3.2-1.7,3.2-3.9c0-2-1.5-2.8-3.1-3.4c-2.2-0.8-4.5-1.3-6.6-2.2c-2.8-1.2-4.7-3.1-4.4-6.5
	c0.3-3.6,2.6-5.2,5.7-6.1c3.5-0.9,6.5,0.4,9.6,1.8c1.4,0.7,1.4,1.7,0.8,2.9c-0.8,1.7-1.7,0.3-2.3,0c-2.2-1.2-4.5-2.3-7.1-1.7
	c-1.5,0.3-2.9,1.1-3.2,2.8c-0.3,1.8,0.9,2.7,2.4,3.3c1.7,0.6,3.5,1.2,5.2,1.7c4,1.2,7.2,3.3,6.6,8c-0.6,4.8-4.3,6.4-8.5,7
	C1008.5,725.2,1007.8,725.2,1005.8,725.2z"/>
<path id="path12" class="st5" d="M1071.7,711.3c4.5-1.5,5.7-7.4,12.4-5.6c-2.6,2.2-4.6,4-6.7,5.7c-1.7,1.3-1.6,2.5-0.3,4.2
	c2.3,3,4.5,6.1,6.8,9.3c-5.3,1.8-5.8-2.8-8-5.1c-1.1-1.1-1.3-3.8-3.2-3.1c-1.7,0.6-0.7,2.9-1,4.5c-0.3,1.5,1.3,4.2-1.9,4.1
	c-2.8-0.1-1.5-2.5-1.6-3.8c-0.1-6.3-0.1-12.6,0-18.9c0-1.3-0.8-3.3,1.8-3.2c2.5,0.1,1.7,2,1.7,3.3
	C1071.8,705.3,1071.7,708.1,1071.7,711.3z"/>
<path id="path14" class="st6" d="M1048.4,715.4c-0.1,5.9-3.6,9.7-8.9,9.8c-5.4,0-9.1-4.2-8.9-10.3c0.1-6,3.6-9.7,8.9-9.7
	C1045,705.2,1048.5,709.2,1048.4,715.4z"/>
<path id="path16" class="st7" d="M1061.6,722c1.4-0.6,3-1.3,3.2,1.1c0.2,1.9-1.8,1.8-2.9,1.9c-3.9,0.7-7.4-0.3-9.5-3.8
	c-2.4-4-2.4-8.3,0.1-12.2c2.2-3.5,5.7-4.3,9.6-3.6c1.1,0.2,3,0.1,2.7,2.1s-1.7,1.5-3,1.1c-2.7-0.8-5,0.1-6.4,2.5
	c-1.7,2.8-1.5,5.8,0.1,8.5C1056.9,721.8,1059,722.4,1061.6,722z"/>
<path id="path18" class="st8" d="M905.6,698.9c3.9,7.3,5.5,15.5,9.2,23.8c3.1-8.3,5.9-16.1,8.8-23.8c0.5,0.2,1,0.4,1.5,0.6
	c-2.8,8-5.6,16.1-8.4,24.1c-0.4,1-0.9,1.6-2.2,1.6c-1.7,0-1.8-1.3-2.2-2.3c-2.8-7.8-5.5-15.5-8.2-23.3
	C904.6,699.4,905.1,699.2,905.6,698.9z"/>
<path id="path20" class="st9" d="M940.2,722.1c-3.6,3.6-7,3.6-10.3,2.6c-4.2-1.3-5.9-4.5-6-8.8c-0.1-4.5,1.1-8.3,5.5-10.2
	c2.7-1.2,5.2-0.6,7.4,1.4c2.2,2.1,2.6,4.9,2.6,7.8c0,1.4-1.3,1.3-2.2,1.3c-2.7,0-5.3-0.1-8,0c-1,0-2.5-0.7-3,0.8
	c-0.4,1.2,0.3,2.3,0.9,3.3c1.4,2.4,3.7,3.3,6.4,3C935.3,723.1,937.2,722.7,940.2,722.1z"/>
<path id="path22" class="st10" d="M968,715.4c-0.1-6,3.7-10.3,9.1-10.2c5.2,0.1,8.8,4.1,8.9,9.9c0.1,6-3.6,10.2-9.1,10.2
	C971.7,725.2,968.1,721.2,968,715.4z"/>
<path id="path24" class="st11" d="M1020.8,710c0-3,0-6,0-8.9c0-1.1,0.3-1.9,1.7-1.9c1.3,0,1.7,0.7,1.6,1.8c-0.1,2.4-0.4,4.8,3.3,4.2
	c0.9-0.1,1.5,0.5,1.4,1.5c-0.1,1.1-0.8,1.5-1.7,1.3c-3.5-0.6-3.3,1.9-3,3.9c0.5,3.7-2.3,8.8,4,10.1c0.9,0.2,0.7,0.9,0.4,1.5
	c-0.4,1-1.1,1.6-2.3,1.3c-3.2-0.8-5.3-2.6-5.5-6.1C1020.8,716,1020.9,713,1020.8,710L1020.8,710z"/>
<path id="path26" class="st12" d="M957.3,707.1c-10.5,0.5-13,2.2-13,8.3c0,6,2.5,7.6,12.3,7.9c-3.2,2.8-8.1,2.7-11.3-0.2
	c-3.6-3.3-4.2-10-1.3-14.2C946.8,704.9,951.2,704.1,957.3,707.1z"/>
<path id="path28" class="st13" d="M1752,724.7c-1.6-2.4-0.8-4.4-1-6.3c-0.1-1-0.1-2.1-1.4-2.3c-1.4-0.1-2.1,0.8-2.5,2
	c-0.6,1.9,0.5,4.2-1.2,6.6c-1.4-2-0.8-3.9-0.9-5.5c-0.1-1.5,0.2-3.2-2.1-3.1c-1.8,0.1-2.5,1.3-2.9,2.9c-0.4,1.7,0.7,3.6-1.2,5.5
	c-1.4-3.2-1-6.3-0.4-9.1c0.2-0.8,4.2-0.9,6.4-1c0.6,0,1.3,1.1,2,1.1C1753.5,715.4,1754.3,716.7,1752,724.7z"/>
<path id="path30" class="st14" d="M1824,714.2c-1.8,1.8-0.1,4-0.1,6.2c-0.1,3-2.4,4.2-5.3,3.7c-2.6-0.5-4.3-2.3-3.4-5
	c0.7-1.9,1.1-3.4,0.9-5.4c-0.2-2.3,1.5-3.5,3.9-3.4C1822.3,710.3,1823.7,711.5,1824,714.2z"/>
<path id="path32" class="st15" d="M966.6,725.2c-3.4-0.3-5.1-1.5-5.6-3.8c-1.5-7.3-0.5-14.7-0.8-23c3.6,2.4,0.2,8.4,6.6,6.9
	C961,709.4,960.9,719,966.6,725.2z"/>
<path id="path34" class="st16" d="M1838.8,715.7c0.4,0,0.8,0.2,1.2,0.1c3.2-0.7,5.3,0.6,5.8,3.8c0.3,2.5-1.2,4.1-3.7,4.5
	c-3.2,0.5-5.2-1.2-5.9-4.1c-0.8-2.9-0.2-5.6,1.9-7.9c1.9-2,4.1-2.4,7.4-1.2C1843.1,712.9,1838.8,711.3,1838.8,715.7z"/>
<path id="path36" class="st17" d="M1805,722.9c2.3-0.8,5.2-0.5,5.2-4.1c-1.3-0.5-2.9,0.4-4.2-0.5c-2.1-1.5-2.6-3.4-1.6-5.6
	c0.9-2.1,2.7-2.9,4.9-2.3c3,0.8,4.5,5,3.2,8.9C1811.3,723.5,1809.3,724.6,1805,722.9z"/>
<path id="path38" class="st18" d="M1763.3,713c1.1-2.6,3-3,5.2-2.7c1.6,0.2,2.8,1.2,3.3,2.7c0.7,2.2-0.6,3.8-2.2,5.1
	c-1.4,1.1-2.8,2.2-4.6,3.5c2.6,1.7,5.7-0.1,7.8,2.7c-2,0-4.1,0.1-6.1,0c-1.2-0.1-2.9,0.8-3.6-0.7c-0.7-1.6,0.5-2.8,1.4-4
	c0.4-0.5,1-0.8,1.5-1.3c1.4-1.4,4.6-2.1,3.5-4.7C1768.3,710.4,1765.6,713.4,1763.3,713z"/>
<path id="path40" class="st19" d="M1783.5,717.1c0.7-7.9,0.7-7.9,7.4-6.3c-0.2,1.5-1.4,1-2.3,1.2c-0.9,0.1-2-0.4-2.8,1.3
	c2.3,1.2,5.7,1.5,6.2,5c0.2,1.6-0.1,3.1-1.1,4.2c-2.6,2.7-5.1,2.2-8.5-0.7c3.5-0.4,8,2.2,7.4-3.2
	C1789.4,715.1,1786.3,715.9,1783.5,717.1z"/>
<path id="path42" class="st20" d="M1661,722.4c1.6-0.8,1.9-1,2.1-1c2,0.5,4.6,2.1,5.6-0.7c0.8-2.2-2.2-2.4-3.6-3.3
	c-2.2-1.3-4.3-2.7-2.3-5.4c2.1-2.9,4.8-2.4,7.5-0.9c-0.4,2.2-1.2,1.2-1.9,1.1c-1.5-0.2-3.3-0.7-3.9,1c-0.7,2,1.3,2.3,2.5,2.9
	c2.4,1.2,5.5,2.4,3.5,5.8C1668.1,725.8,1665,724.2,1661,722.4z"/>
<path id="path44" class="st21" d="M1603.5,710c2.7,2.6,2.3,6.7,4.4,10c2.5-2.9,2-7.5,4.7-10.1c0.4,0.2,0.9,0.4,1.3,0.6
	c-1.5,4.2-2.9,8.5-4.6,12.6c-0.8,1.9-2,1.4-2.7-0.3c-1.5-4.1-3-8.2-4.4-12.3C1602.6,710.4,1603.1,710.2,1603.5,710z"/>
<path id="path46" class="st22" d="M997.6,706.6c-11.7,2.8-3.9,12.8-8.1,19.6c0-7.7,0-14.3,0-22.3
	C991.6,710.5,994.6,703.5,997.6,706.6z"/>
<path id="path48" class="st23" d="M1709.3,724.3c-3.8-0.5-3.3-4-5.6-4.9c-1.7,1.2,0.3,3.6-2.1,5.1c0-4.9,0-9.5,0-15
	c2.3,2.6,0.8,5.3,1.6,7.5c2.5,0.9,2.3-3.2,5.1-2.5C1704.4,717.8,1707.3,720.8,1709.3,724.3z"/>
<path id="path50" class="st24" d="M1653,719c-0.3,3-1.7,5.1-5,5.2c-2.9,0.1-4.7-1.7-5-4.5c-0.3-3.1,1.4-5.2,4.6-5.4
	C1650.8,713.9,1652.4,716,1653,719z"/>
<path id="path52" class="st25" d="M1736.1,719.3c-0.6,3-2.1,5-5.3,4.8c-3.1-0.2-4.9-2.2-4.7-5.3c0.2-2.8,2-4.6,4.9-4.6
	C1734.1,714.3,1735.7,716.3,1736.1,719.3z"/>
<path id="path54" class="st24" d="M1683.9,724.3c-3-0.5-5-2.1-4.8-5.3c0.1-3.1,2.1-4.9,5.2-4.8c2.9,0.1,4.6,2.1,4.6,4.9
	C1689,722.2,1687,723.9,1683.9,724.3z"/>
<path id="path56" class="st26" d="M1617.1,719.4c1,4.3,4.1,2.2,6.5,2.9c-2.1,2.6-4.4,2.3-6.5,0.8s-2.7-3.8-1.7-6.1
	c0.9-2.2,2.8-3.2,5.2-2.8c2,0.4,3.4,1.8,3.3,3.8c-0.2,2.3-2.3,0.9-3.6,1.2C1619.3,719.4,1618.3,719.3,1617.1,719.4z"/>
<path id="path58" class="st27" d="M1794.9,723.7c1.7-3.7,3.4-7.4,5.1-11.1c-2-1.2-4.2,0.2-6.3-1.5c2.7-1.6,5.4-0.7,8-0.8
	c0.7,0,1.2,0.7,0.9,1.4c-1.9,4.4-3.7,8.9-6.4,12.8C1795.7,724.2,1795.3,723.9,1794.9,723.7z"/>
<path id="path60" class="st28" d="M1828.1,723.8c2.8-3.7,2.7-6.6-0.3-9.7c-0.7-0.7-0.3-1.2,0.1-1.6c0.9-0.9,1.6-2.2,3.1-2.3
	c0.8,0,1,0.6,1,1.3c0,2.3,0.1,4.6,0,6.9c-0.1,2,0,3.9,2.4,5.1C1831.9,724.5,1830,724.4,1828.1,723.8z"/>
<path id="path62" class="st17" d="M1774.2,713.6c1.1-1.4,2-3.7,3.9-3.1c1.8,0.6,0.6,2.9,0.8,4.4c0.5,2.9-1.2,6.2,2.4,9
	c-2.4,0-4.2,0-6,0C1778.2,719.4,1777.7,714.4,1774.2,713.6z"/>
<path id="path64" class="st29" d="M1635.6,716.1c-3.8,0.4-7.7-1.2-7.4,3.4c0.3,4.1,3.8,2.4,7.3,2.7c-2.8,2.5-5,2.7-7.3,1.1
	c-2.4-1.6-3-4.1-1.4-6.5C1628.7,713.7,1631.3,713.4,1635.6,716.1z"/>
<path id="path66" class="st30" d="M1724.8,716.1c-2.9,0.4-6.9-1.3-6.6,3.3c0.3,4,3.7,2.7,6.3,2.9c-2.1,2.3-4.5,2.6-6.8,0.6
	c-2.4-2.1-2.5-4.8-0.4-7C1719.5,713.6,1722,713.2,1724.8,716.1z"/>
<path id="path68" class="st31" d="M1700.6,722.2c-3.3,2.6-5.9,2.7-8.2,0.4c-1.8-1.9-2.1-4.2-0.4-6.3c2.1-2.5,4.6-2.8,8-0.5
	c-2.8,1.1-7.2-1-6.8,3.7C1693.6,723.6,1697.1,721.9,1700.6,722.2z"/>
<path id="path70" class="st32" d="M1677.5,724.3c-4.1-1.4-6.4-7.5-4.6-10.3c0.4-0.7,1-1.8,1.7-0.7c0.6,1,2.4,1,1.9,2.8
	C1674.9,720.8,1674.9,720.8,1677.5,724.3z"/>
<path id="path72" class="st33" d="M1641.6,724.3c-4.1-1.4-6.6-8.3-4.5-10.7c0.8-0.9,1.6-0.9,1.8,0c0.3,1.1,2.2,0.8,1.6,2.4
	C1638.9,720.9,1639,720.9,1641.6,724.3z"/>
<path id="path74" class="st34" d="M1660.2,714.5c-3.8,2.4-3.3,6.2-3.2,11.1c-3-3.5-1.8-6.2-2-8.5
	C1654.6,711.7,1659.1,717,1660.2,714.5z"/>
<path id="path76" class="st35" d="M1756.4,725.1c-0.7-4.9,1.7-12,4.7-14.7C1759.5,715.3,1758,720.2,1756.4,725.1z"/>
<path id="path78" class="st36" d="M1087.5,706.9c-3.2-1.7-4-4.1-1.7-8.1C1086.1,702.2,1085.4,704.9,1087.5,706.9z"/>
<path id="path80" class="st37" d="M1089.2,699.1c0.6,0.3,1.6,0.9,1.1,0.9c-4.6,0.2,4.5,3.7-1,3.9c-1.2,0-1.5,0.2-1.3-0.7
	C1088.3,701.8,1087,699.8,1089.2,699.1z"/>
<path id="path82" class="st38" d="M1034,714.9c0.3-3.6,1.5-6.8,5.7-6.6s5.3,3.4,5.3,7.1c-0.1,3.7-1.4,6.8-5.7,6.7
	C1035.1,721.9,1034.1,718.6,1034,714.9z"/>
<path id="path84" class="st39" d="M931.6,714.7c-1.6-1.5-5.3,1.6-5.3-2.2c0-2.9,2-5.6,5.8-5.4c3.5,0.1,5.2,2.6,5,5.5
	C936.8,716.2,933.4,713.3,931.6,714.7z"/>
<path id="path86" class="st40" d="M984,715.1c0.1,5-2.5,8.1-6.7,8.2c-4.3,0.1-7-2.8-7.2-7.7c-0.2-5.1,2.6-8.5,7-8.5
	C981.3,707.1,983.9,710.2,984,715.1z"/>
<path id="path88" class="st41" d="M1818.8,717.6c1.3,0.6,3,0.8,3.1,2.6c0.1,1.4-0.9,2-2.2,2c-1.5,0-2.5-0.6-2.7-2.2
	C1817,718.8,1817.5,717.9,1818.8,717.6z"/>
<path id="path90" class="st42" d="M1819.7,712.1c1.6,0.1,2.3,0.8,2.3,2.2c-0.1,1-0.5,2-1.7,1.8c-1.1-0.2-2.1-0.9-2.2-2.3
	C1818,712.6,1818.9,712.2,1819.7,712.1z"/>
<path id="path92" class="st43" d="M1844,720c-0.2,1.6-1.2,2.4-2.7,2.3c-1.9-0.1-3.2-1.2-3.1-3.1c0.1-1.6,1.6-1.9,2.9-1.9
	C1842.8,717.3,1843.8,718.3,1844,720z"/>
<path id="path94" class="st44" d="M1808.8,717.2c-1.8-0.1-2.6-0.9-2.8-2.5c-0.1-1.6,0.6-2.6,2.2-2.6c1.8,0.1,2.5,1.4,2.6,3
	C1811,716.6,1809.7,716.9,1808.8,717.2z"/>
<path id="path96" class="st45" d="M1648,716c2.2,0.3,3.1,1.5,3,3.4s-1.3,3.1-3.3,2.8c-1.7-0.2-2.6-1.4-2.5-3.1
	C1645.1,717.2,1646.1,716.2,1648,716z"/>
<path id="path98" class="st46" d="M1734,719.4c-0.3,1.9-1.3,3.1-3.3,2.9c-2.1-0.2-2.7-1.7-2.5-3.6c0.2-1.7,1.2-2.7,3-2.6
	C1733.2,716.2,1733.9,717.6,1734,719.4z"/>
<path id="path100" class="st47" d="M1684.1,716c2.1,0.3,3,1.6,2.8,3.5s-1.4,3-3.4,2.8c-1.8-0.2-2.5-1.5-2.4-3.2
	C1681.2,717.1,1682.2,716,1684.1,716z"/>
<path id="path102" class="st48" d="M1616.7,717.6c2.1-2.3,3.6-2.5,5.5-0.3C1620.5,718.4,1619,718,1616.7,717.6z"/>
<path class="st49" d="M79,20h-2.7c0,2.5,0,4.8,0,7.2c0,5.6-4.1,9.9-9.5,9.9c-5.8,0-11.1,0-16.9,0c-5.3,0-11.1,0-16.4,0
	c-6.2,0-9.9-4.3-9.9-10.3c0-2.2,0-4.5,0-6.7H21c-3.9-0.1-7,3-7,6.9v62c0,3.8,3.1,6.9,6.9,6.9H79c3.8,0,6.9-3.1,6.9-6.9V27
	C86,23.1,82.9,20,79,20z"/>
<path class="st0" d="M68.2,42.4c1-0.6,2.1-0.4,2.9,0.4l4,4.8c0.6,1,0.4,2.1-0.4,2.9L72.8,52l-6.5-8.1L68.2,42.4z"/>
<path class="st0" d="M24.6,45.8c0-0.5,0.4-0.8,0.8-0.8h14.5c0.5,0,0.8,0.4,0.8,0.8v3.9c0,0.5-0.4,0.8-0.8,0.8H25.4
	c-0.5,0-0.8-0.4-0.8-0.8V45.8z"/>
<path class="st0" d="M51,86.7c0,0.8-0.7,1.5-1.5,1.5H26.1c-0.8,0-1.5-0.7-1.5-1.5V63.3c0-0.8,0.7-1.5,1.5-1.5h13.3
	c0.8,0,1.5,0.7,1.5,1.5v4H30.1v15.5h15.5V71.7h4c0.8,0,1.5,0.7,1.5,1.5L51,86.7L51,86.7z"/>
<polygon class="st0" points="42.2,70.1 45.8,60.5 52.3,68.6 "/>
<polygon class="st0" points="47.1,59.4 65,44.9 71.5,53 53.6,67.5 "/>
<path class="st0" d="M75.4,87.4c0,0.5-0.4,0.8-0.8,0.8H60.1c-0.5,0-0.8-0.4-0.8-0.8v-3.9c0-0.5,0.4-0.8,0.8-0.8h14.5
	c0.5,0,0.8,0.4,0.8,0.8V87.4z"/>
<path class="st0" d="M75.4,76.4c0,0.5-0.4,0.8-0.8,0.8H60.1c-0.5,0-0.8-0.4-0.8-0.8v-3.9c0-0.5,0.4-0.8,0.8-0.8h14.5
	c0.5,0,0.8,0.4,0.8,0.8V76.4z"/>
<path class="st49" d="M38.6,30.4c3.7,0,7.7,0,11.4,0c4,0,7.7,0,11.7,0c3.7,0,6.6-2.9,6.6-6.6c0-2,0-4,0-6.3C68,15.6,67.5,15,66,15
	c-1.7,0-3.7,0-5.4,0c-0.6,0-0.9-0.3-0.9-0.9c0-1.4-0.6-2.9-1.1-4.3c-2.6-5.4-8.9-7.4-13.7-4c-2.6,1.7-4,4.6-4.6,7.7
	c-0.3,1.7-0.3,1.7-1.7,1.7s-3.1,0-4.6,0s-2.3,0.6-2.3,2.3c0,2,0,4,0,6C31.7,27.6,34.3,30.4,38.6,30.4z"/>
<path class="st0" d="M50.3,9.6c2,0,4,1.7,3.7,4c-0.3,2-2,3.7-4,3.7c-2.3,0-3.7-1.7-3.7-4C46.3,11.3,48,9.6,50.3,9.6z"/>
</svg>
