<svg height="512" viewBox="0 0 512 512" width="512" xmlns="http://www.w3.org/2000/svg"><g id="flat"><rect fill="#2ad3b3" height="344" rx="26" width="464" x="24" y="88"/><path d="m264 184h-64l-32 8v-40a32 32 0 0 1 32-32h64a32 32 0 0 1 32 32 32 32 0 0 1 -32 32z" fill="#eaeae8"/><path d="m24 384h464a0 0 0 0 1 0 0v22a26 26 0 0 1 -26 26h-412a26 26 0 0 1 -26-26v-22a0 0 0 0 1 0 0z" fill="#eaeae8"/><path d="m208 56h96a8 8 0 0 1 8 8v24a0 0 0 0 1 0 0h-112a0 0 0 0 1 0 0v-24a8 8 0 0 1 8-8z" fill="#026ca2"/><circle cx="256" cy="56" fill="#0296e5" r="32"/><circle cx="256" cy="56" fill="#43dcfe" r="24"/><circle cx="256" cy="56" fill="#ff6268" r="8"/><g fill="#cbcbcb"><circle cx="200" cy="152" r="8"/><circle cx="232" cy="152" r="8"/><circle cx="264" cy="152" r="8"/><path d="m312 432h-32a24 24 0 0 1 -48 0h-32l-16 56h144z"/></g><path d="m328 232h160v152h-160z" fill="#8feaff"/><path d="m328 232h160v-118a26 26 0 0 0 -26-26h-134z" fill="#43dcfe"/><circle cx="408" cy="152" fill="#0296e5" r="32"/><path d="m360 232v-5.39a56 56 0 0 1 30.956-50.088l1.044-.522h32l1.044.522a56 56 0 0 1 30.956 50.088v5.39z" fill="#0296e5"/><circle cx="408" cy="304" fill="#ff6268" r="32"/><path d="m360 384v-5.39a56 56 0 0 1 30.956-50.088l1.044-.522h32l1.044.522a56 56 0 0 1 30.956 50.088v5.39z" fill="#ff6268"/><circle cx="176" cy="272" fill="#fbb540" r="48"/><path d="m104 384v-17.352a82.39 82.39 0 0 1 40-70.648h64a82.39 82.39 0 0 1 40 70.648v17.352z" fill="#fbb540"/><path d="m56 128h48v48h-48z" fill="#04957c"/><path d="m104 144 32-16v48l-32-16z" fill="#04957c"/><circle cx="72" cy="224" fill="#0296e5" r="16"/><circle cx="72" cy="288" fill="#ff6268" r="16"/></g></svg>