<?xml version="1.0" encoding="utf-8"?>
<!-- Generator: Adobe Illustrator 23.0.1, SVG Export Plug-In . SVG Version: 6.00 Build 0)  -->
<svg version="1.1" id="Layer_1" xmlns="http://www.w3.org/2000/svg" xmlns:xlink="http://www.w3.org/1999/xlink" x="0px" y="0px"
	 viewBox="0 0 50 50" style="enable-background:new 0 0 50 50;" xml:space="preserve">
<style type="text/css">
	.st0{fill:#004E97;}
	.st1{fill:#FFFFFF;}
</style>
<circle class="st0" cx="25" cy="25" r="25"/>
<g>
	<g>
		<path class="st1" d="M23.1,30.9c0,0.1,0,0.2,0,0.3c0,1.3-1.1,2.4-2.4,2.4s-2.4-1.1-2.4-2.4c0-1.3,1.1-2.4,2.4-2.4
			c0.6,0,1.1,0.2,1.5,0.5l0.8-0.8c-0.6-0.5-1.4-0.8-2.3-0.8c-2,0-3.6,1.6-3.6,3.6s1.6,3.6,3.6,3.6s3.6-1.6,3.6-3.6
			c0-0.5-0.1-0.9-0.2-1.3L23.1,30.9z"/>
		<g>
			<path class="st1" d="M20.9,32.5c-0.1,0-0.3,0-0.4-0.1l-1.2-1.1c-0.2-0.2-0.2-0.5-0.1-0.7c0.2-0.2,0.5-0.2,0.7-0.1l0.9,0.8
				l2.1-2.3c0.2-0.2,0.5-0.2,0.7,0c0.2,0.2,0.2,0.5,0,0.7l-2.5,2.7C21.2,32.4,21.1,32.5,20.9,32.5z"/>
		</g>
	</g>
	<g>
		<path class="st1" d="M23.1,21.8c0,0.1,0,0.2,0,0.3c0,1.3-1.1,2.4-2.4,2.4s-2.4-1.1-2.4-2.4s1.1-2.4,2.4-2.4c0.6,0,1.1,0.2,1.5,0.5
			l0.8-0.8c-0.6-0.5-1.4-0.8-2.3-0.8c-2,0-3.6,1.6-3.6,3.6s1.6,3.6,3.6,3.6s3.6-1.6,3.6-3.6c0-0.5-0.1-0.9-0.2-1.3L23.1,21.8z"/>
		<g>
			<path class="st1" d="M20.9,23.3c-0.1,0-0.3,0-0.4-0.1l-1.2-1.1c-0.2-0.2-0.2-0.5-0.1-0.7c0.2-0.2,0.5-0.2,0.7-0.1l0.9,0.8
				l2.1-2.3c0.2-0.2,0.5-0.2,0.7,0c0.2,0.2,0.2,0.5,0,0.7l-2.5,2.7C21.2,23.3,21.1,23.3,20.9,23.3z"/>
		</g>
	</g>
	<path class="st1" d="M31.9,22.9h-5c-0.5,0-0.8-0.4-0.8-0.8v0c0-0.5,0.4-0.8,0.8-0.8h5c0.5,0,0.8,0.4,0.8,0.8v0
		C32.7,22.5,32.4,22.9,31.9,22.9z"/>
	<path class="st1" d="M31.9,32h-5c-0.5,0-0.8-0.4-0.8-0.8v0c0-0.5,0.4-0.8,0.8-0.8h5c0.5,0,0.8,0.4,0.8,0.8v0
		C32.7,31.7,32.4,32,31.9,32z"/>
	<path class="st1" d="M30,9.9h-3c-0.1,0-0.3-0.1-0.3-0.3l0,0c0-0.9-0.8-1.7-1.7-1.7c-0.9,0-1.7,0.8-1.7,1.7l0,0
		c0,0.1-0.1,0.3-0.3,0.3h-3c-0.5,0-0.9,0.4-0.9,0.9v1.7c0,0.5,0.4,0.9,0.9,0.9H30c0.5,0,0.9-0.4,0.9-0.9v-1.7
		C30.9,10.3,30.5,9.9,30,9.9z"/>
	<g>
		<path class="st1" d="M34.8,10.8h-2.4v2h2.4c1.2,0,2.2,1,2.2,2.2v23c0,1.2-1,2.2-2.2,2.2H15.2c-1.2,0-2.2-1-2.2-2.2v-23
			c0-1.2,1-2.2,2.2-2.2h2.4v-2h-2.4c-2.3,0-4.2,1.9-4.2,4.2v23c0,2.3,1.9,4.2,4.2,4.2h19.6c2.3,0,4.2-1.9,4.2-4.2v-23
			C39,12.6,37.1,10.8,34.8,10.8z"/>
	</g>
</g>
</svg>
