<?xml version="1.0" encoding="utf-8"?>
<svg version="1.1" id="Layer_1" xmlns="http://www.w3.org/2000/svg" xmlns:xlink="http://www.w3.org/1999/xlink" x="0px" y="0px"
	 viewBox="0 0 57.1 57.1" style="enable-background:new 0 0 57.1 57.1;" xml:space="preserve">
<style type="text/css">
	.st0{fill:#005595;}
	.st1{fill:#FFFFFF;}
</style>
<g>
	<circle class="st0" cx="28.5" cy="28.5" r="28.5"/>
</g>
<g>
	<path class="st1" d="M46,33.4l-4-3.1c0.2-0.3,0.4-0.6,0.5-0.9c0.7-1.3,1-2.7,1-4.2c0-5.8-5.7-10.5-12.7-10.5c-5.9,0-11,3.4-12.4,8
		c0.4-0.2,1.8-1,2.5-1.3c1.8-3,5.6-4.9,9.9-4.9c6,0,11,3.9,11,8.8c0,1.2-0.3,2.3-0.8,3.4c-0.2,0.3-0.4,0.7-0.6,1
		c-0.4,0.6-0.3,1.4,0.3,1.9l3.3,2.5h-5.3c0,0-0.3,1-0.7,1.8c0,0,0,0,0,0h7.3c0.6,0,1.1-0.4,1.3-0.9C46.6,34.3,46.5,33.7,46,33.4z"/>
	<path class="st1" d="M39,31.4c0-6-5.7-11-12.7-11c-1.9,0-3.7,0.4-5.3,1c0,0,0,0,0,0c-0.7,0.3-2.1,1.1-2.5,1.3c0,0,0,0,0,0
		c-3,2-4.9,5.1-4.9,8.6c0,1.5,0.3,3,1,4.3c0.2,0.3,0.3,0.6,0.6,1L11,39.9c-0.5,0.4-0.6,1-0.4,1.5c0.2,0.5,0.7,0.9,1.3,0.9h14.7
		l0.9,0v0c4.7-0.4,8.6-2.9,10.5-6.5c0.4-0.8,0.7-1.8,0.7-1.8C38.9,33.2,39,32.3,39,31.4z M26.5,40.6l-13.4,0l3.4-2.7
		c0.6-0.5,0.7-1.3,0.3-1.9c-0.2-0.4-0.5-0.7-0.6-1.1c-0.6-1.1-0.8-2.3-0.8-3.5c0-5.1,4.9-9.2,11-9.2c6,0,11,4.1,11,9.2
		C37.2,36.3,32.4,40.5,26.5,40.6z"/>
	<circle class="st1" cx="22.3" cy="33.3" r="1"/>
	<circle class="st1" cx="26.2" cy="33.3" r="1"/>
	<circle class="st1" cx="30.2" cy="33.3" r="1"/>
</g>
</svg>
