<?xml version="1.0" encoding="utf-8"?>
<!-- Generator: Adobe Illustrator 23.0.1, SVG Export Plug-In . SVG Version: 6.00 Build 0)  -->
<svg version="1.1" id="Layer_1" xmlns="http://www.w3.org/2000/svg" xmlns:xlink="http://www.w3.org/1999/xlink" x="0px" y="0px"
	 viewBox="0 0 48 48" style="enable-background:new 0 0 48 48;" xml:space="preserve">
<style type="text/css">
	.st0{fill:#EB4842;}
	.st1{fill:none;stroke:#FFFFFF;stroke-width:1.5;stroke-linecap:round;stroke-miterlimit:10;}
</style>
<circle class="st0" cx="24" cy="24" r="24"/>
<g>
	<path class="st1" d="M20.8,39.3h-0.3c-5.2,0-9.4-4.2-9.4-9.4v0c0-1,0.8-1.8,1.8-1.8h15.4c1,0,1.8,0.8,1.8,1.8v0
		C30.1,35.1,26,39.3,20.8,39.3z"/>
	<path class="st1" d="M27.6,21h3.3l0.6,2.4c0,0.2,0.2,0.1,0.3,0l2.1-2.4h1.9c0.8,0,1.4-0.6,1.4-1.4v-5.9c0-0.8-0.6-1.4-1.4-1.4h-9.9
		c-0.8,0-1.4,0.6-1.4,1.4v1.1"/>
	<circle class="st1" cx="20.6" cy="20.4" r="4.5"/>
</g>
</svg>
