<?xml version="1.0" encoding="utf-8"?>
<svg version="1.1" id="Layer_1" xmlns="http://www.w3.org/2000/svg" xmlns:xlink="http://www.w3.org/1999/xlink" x="0px" y="0px"
	 viewBox="0 0 57.1 57.1" style="enable-background:new 0 0 57.1 57.1;" xml:space="preserve">
<style type="text/css">
	.st0{fill:#005595;}
	.st1{fill:#FFFFFF;}
</style>
<g>
	<path class="st0" d="M43.5,32.6c0-8.6-8.2-15.7-18.2-15.7c-2.7,0-5.3,0.6-7.6,1.4l0,0c-1,0.4-3,1.6-3.6,1.9l0,0
		c-4.3,2.9-7,7.3-7,12.3c0,2.1,0.4,4.3,1.4,6.1c0.3,0.4,0.4,0.9,0.9,1.4l-6,4.7c-0.7,0.6-0.9,1.4-0.6,2.1c0.3,0.7,1,1.3,1.9,1.3h21
		H27l0,0c6.7-0.6,12.3-4.1,15-9.3c0.6-1.1,1-2.6,1-2.6C43.3,35.2,43.5,33.9,43.5,32.6z"/>
	<circle class="st1" cx="19.6" cy="35.4" r="1.4"/>
	<circle class="st1" cx="25.2" cy="35.4" r="1.4"/>
	<circle class="st1" cx="30.9" cy="35.4" r="1.4"/>
	<path class="st0" d="M53.5,35.5l-5.7-4.4c0.3-0.4,0.6-0.9,0.7-1.3c1-1.9,1.4-3.9,1.4-6c0-8.3-8.2-15-18.2-15
		c-7.8,0-14.6,4.2-17.2,10c0.8-0.5,1.9-1.1,2.9-1.4c2.4-0.9,5.1-1.5,8-1.5c10.6,0,19.2,7.6,19.2,16.7c0,1.4-0.2,2.7-0.5,3.9
		c0,0-0.4,1.4-1,2.6h9.3c0.5,0,1-0.2,1.4-0.6c0.4-0.3,0.5-0.9,0.5-1.3C54.3,36.4,54.1,35.8,53.5,35.5z"/>
</g>
</svg>
