<?xml version="1.0" encoding="utf-8"?>
<!-- Generator: Adobe Illustrator 23.0.1, SVG Export Plug-In . SVG Version: 6.00 Build 0)  -->
<svg version="1.1" id="Layer_1" xmlns="http://www.w3.org/2000/svg" xmlns:xlink="http://www.w3.org/1999/xlink" x="0px" y="0px"
	 viewBox="0 0 32.7 23.1" style="enable-background:new 0 0 32.7 23.1;" xml:space="preserve">
<style type="text/css">
	.st0{fill:#005596;}
</style>
<g id="icons_2_">
	<path id="email_1_" class="st0" d="M29.5,0H3.2C1.4,0,0,1.4,0,3.2v16.7c0,1.8,1.4,3.2,3.2,3.2h26.3c1.8,0,3.2-1.4,3.2-3.2V3.2
		C32.7,1.4,31.2,0,29.5,0z M29.4,7.9l-10.8,7.2c-0.7,0.4-1.5,0.7-2.3,0.7s-1.6-0.3-2.3-0.7L3.3,7.9C2.7,7.5,2.6,6.7,3,6
		c0.4-0.5,1.2-0.7,1.9-0.3l10.8,7.2c0.4,0.3,1.1,0.3,1.5,0l10.8-7.2c0.7-0.4,1.5-0.3,1.9,0.4C30.1,6.7,29.9,7.5,29.4,7.9z"/>
</g>
</svg>
