<?xml version="1.0" encoding="utf-8"?>
<!-- Generator: Adobe Illustrator 23.0.1, SVG Export Plug-In . SVG Version: 6.00 Build 0)  -->
<svg version="1.1" id="Layer_1" xmlns="http://www.w3.org/2000/svg" xmlns:xlink="http://www.w3.org/1999/xlink" x="0px" y="0px"
	 viewBox="0 0 31.1 32.1" style="enable-background:new 0 0 31.1 32.1;" xml:space="preserve">
<style type="text/css">
	.st0{fill:#005596;}
</style>
<g>
	<path class="st0" d="M25.9,24.4c3.3-3.8,4.1-8.1,2.3-12.8c-0.5-1.4-1.4-2.6-2.4-3.7c-0.3-0.3-0.4-0.7-0.3-1.1
		c0.1-0.4,0.4-0.5,0.7-0.6c0.6-0.1,0.9,0.3,1.2,0.6c4.9,5.3,4.9,13.6-0.1,18.8c-0.7,0.7-1.3,0.9-1.7,0.4
		C25.2,25.7,25.3,25.2,25.9,24.4z"/>
	<path class="st0" d="M23.1,21.8c3-3.1,3-7.8,0.1-11c-0.5-0.6-0.6-1.1-0.2-1.6c0.4-0.4,1-0.3,1.6,0.2c1.4,1.5,2.3,3.4,2.6,5.5
		c0.4,3-0.6,6.2-2.7,8.3c-0.4,0.4-0.7,0.6-1.2,0.3C22.5,23.3,22.5,22.5,23.1,21.8z"/>
	<path class="st0" d="M20.3,19.2c1.6-1.8,1.6-3.9,0-5.8c-0.4-0.5-0.4-1.1,0-1.5c0.4-0.4,1-0.3,1.4,0.2c0.9,0.9,1.4,2.1,1.6,3.3
		c0.3,1.8-0.4,3.8-1.6,5.1c-0.5,0.5-1,0.5-1.5,0.1C19.8,20.3,19.8,19.8,20.3,19.2z"/>
	<path class="st0" d="M24.4,28.6c-0.3-0.5-0.8-0.6-1.4-0.3c-0.4,0.2-0.9,0.5-1.3,0.7c-3.8,1.6-7.6,1.6-11.4-0.1
		c-0.2-0.1-0.5-0.1-0.4-0.5c0.5-1.5,1.3-2.9,3.4-2.9c0.7,0,1.5,0,2.2-0.2c1.7-0.5,2-1.3,1.5-2.6c-0.2-0.7-0.4-1.4-0.3-2.1
		c0.1-0.5,0-0.6-0.5-0.6c-0.5,0-1.1,0-1.8,0c0.7-0.4,1.2-0.7,1.7-0.9c0.2-0.1,0.4-0.3,0.2-0.6c-0.4-0.8-0.4-1.4,0.2-2.1
		c0.1,0,0.1-0.1,0.2-0.1c0.3-0.1,0.6-0.2,0.9-0.4c0.1,0,0.2-0.1,0.2-0.2c0.4-0.4,0.2-0.8,0-1.2c-0.4-0.6-0.9-1.3-1.3-1.9
		c-0.9-1.3-1.5-2.7-1.8-4.2c-0.4-2-1.1-3.8-2.2-5.5c-0.2-0.3-0.1-0.4,0.2-0.4c2.1-0.5,4.3-0.5,6.4,0c1.4,0.3,2.6,0.8,3.8,1.5
		C23.5,4,23.9,4,24.3,3.6c0.3-0.4,0.3-0.8,0.1-1.2C24.2,2.2,24,2.1,23.7,2c-3.5-1.9-7.3-2.4-11.2-1.6C6.5,1.6,1.4,6.8,0.3,12.7
		c0,0,0,0.1,0,0.1C0,14.4-0.1,16,0.1,17.7c0,0.1,0,0.2,0,0.3c0.8,5.4,3.5,9.6,8.4,12.2c5.1,2.7,10.3,2.6,15.4-0.1
		C24.5,29.6,24.7,29.1,24.4,28.6z"/>
</g>
</svg>
