<?xml version="1.0" encoding="utf-8"?>
<!-- Generator: Adobe Illustrator 23.0.1, SVG Export Plug-In . SVG Version: 6.00 Build 0)  -->
<svg version="1.1" id="Capa_1" xmlns="http://www.w3.org/2000/svg" xmlns:xlink="http://www.w3.org/1999/xlink" x="0px" y="0px"
	 viewBox="0 0 317.5 318.3" style="enable-background:new 0 0 317.5 318.3;" xml:space="preserve">
<style type="text/css">
	.st0{fill:#233D91;}
</style>
<g>
	<path class="st0" d="M160.3,0C73.6,0,3.1,70.5,3.1,157.2c0,26.5,6.8,52.6,19.7,76L0,318.3l85.6-22.9c23,12.5,48.7,19.1,74.7,19.1
		c86.7,0,157.2-70.5,157.2-157.2C317.5,70.5,247,0,160.3,0z M160.3,288.2c-23.4,0-46.5-6.4-66.9-18.5l-4.1-2.5l-52.2,14L51,229.3
		l-2.5-4.2C36,204.5,29.3,181,29.3,157.2C29.4,85,88.1,26.3,160.3,26.3S291.2,85,291.2,157.2S232.5,288.2,160.3,288.2z"/>
	<path class="st0" d="M160.3,33.2c-68.4,0-124.1,55.7-124.1,124.1c0,22.6,6.3,44.8,18.1,64.3l4.1,6.7l-11.6,43.2l43.5-11.6l6.6,4
		c19.3,11.5,41.2,17.5,63.3,17.5c68.4,0,124.1-55.7,124.1-124.1S228.7,33.2,160.3,33.2z M229.3,201.5c-4.4,10.6-15.2,17.4-26.2,19.5
		c-10.5,2-19.2-1.4-28.9-4.6c-8.7-2.9-17.1-7.1-24.8-11.8c-15.6-9.5-29-22.3-39.8-37c-3.3-4.5-6.4-9.2-9.2-14
		c-3.7-6.4-7.1-13.1-8.8-20.3c-0.7-3-1.1-6.1-1.1-9.2c-0.1-10.9,4-21.9,12.6-28.9c5-4.1,12.4-5.8,18-2.7c6.1,3.4,9.2,12.1,12.1,18.2
		c2.2,4.8,4.7,11,3.8,16.4c-0.9,5.3-5.1,9.9-8.5,13.8c-2.3,2.7-2.6,5-0.7,7.8c11.2,18.6,26.6,32.1,46.9,40.1
		c2.7,1.1,4.9,0.8,6.7-1.4c3.5-4.3,6.9-12.7,12.3-14.9c7-2.9,14.8,1.1,20.7,4.7c5.6,3.3,14.8,7.4,16.3,14.3
		C231.2,194.8,230.6,198.3,229.3,201.5z"/>
</g>
</svg>
