<?xml version="1.0" encoding="utf-8"?>
<!-- Generator: Adobe Illustrator 23.0.1, SVG Export Plug-In . SVG Version: 6.00 Build 0)  -->
<svg version="1.1" id="Layer_1" xmlns="http://www.w3.org/2000/svg" xmlns:xlink="http://www.w3.org/1999/xlink" x="0px" y="0px"
	 viewBox="0 0 50 50" style="enable-background:new 0 0 50 50;" xml:space="preserve">
<style type="text/css">
	.st0{fill:#28a745;}
</style>
<g>
	<path class="st0" d="M22.1,29.6c0-1.1,0-2.2,0-3.3c0-1.1,0-2.2,0-3.3c0-0.1,0-0.1-0.1-0.1c-0.8,0.1-1.7,0.3-2.4,0.6
		c-2.8,1.3-4.5,4.3-4.1,7.3c0.2,1.4,0.8,2.6,1.7,3.7c0.1,0.1,0.1,0.1,0.2,0c1.6-1.6,3.1-3.1,4.7-4.7C22,29.7,22.1,29.7,22.1,29.6z"
		/>
	<path class="st0" d="M33.2,12.3h3.1c0.6,0,1-0.5,1-1V8.2c0-0.6-0.5-1-1-1h-3.1c-0.6,0-1,0.5-1,1v3.1C32.2,11.9,32.7,12.3,33.2,12.3
		z"/>
	<path class="st0" d="M22.9,22.8c-0.1,0-0.1,0-0.1,0.1c0,2.2,0,4.4,0,6.7c0,0.2-0.1,0.4-0.2,0.6c-1.6,1.6-3.1,3.1-4.7,4.7
		c0,0-0.1,0.1-0.2,0.1c1.7,1.5,3.7,2.1,5.9,1.8c1.8-0.3,3.3-1.2,4.4-2.6c1.2-1.6,1.7-3.4,1.4-5.4c-0.2-1.5-0.9-2.7-1.9-3.8
		C26.2,23.7,24.6,23,22.9,22.8z"/>
	<path class="st0" d="M15.4,23.3c-3.6,3.9-3.4,9.9,0.5,13.5c3.9,3.6,9.9,3.4,13.5-0.5s3.4-9.9-0.5-13.5C25,19.2,19,19.4,15.4,23.3z
		 M22.4,37.5c-4.2,0-7.6-3.4-7.6-7.7c0-4.2,3.4-7.6,7.7-7.6c4.2,0,7.6,3.4,7.6,7.7C30,34.1,26.6,37.5,22.4,37.5z"/>
	<path class="st0" d="M13.6,39.4C8.3,34.5,8,26.3,12.9,21c4.9-5.3,13.1-5.6,18.3-0.7c4.6,4.3,5.4,11.1,2.2,16.3l9.7,9
		c0.2,0.2,0.3,0.3,0.4,0.5c0.1-0.4,0.2-0.9,0.2-1.4V5.2c0-2.4-2-4.4-4.4-4.4H10.5c-2.4,0-4.4,2-4.4,4.4v39.6c0,2.4,2,4.4,4.4,4.4
		h28.9L30,40.4C25.1,43.9,18.2,43.6,13.6,39.4z M29.7,6.9c0-1.3,1-2.3,2.3-2.3h5.6c1.3,0,2.3,1,2.3,2.3v5.6c0,1.3-1,2.3-2.3,2.3H32
		c-1.3,0-2.3-1-2.3-2.3V6.9z M9.6,5.6c0-0.5,0.4-0.9,0.9-0.9h16.4c0.5,0,0.9,0.4,0.9,0.9V6c0,0.5-0.4,0.9-0.9,0.9H10.5
		C10,6.9,9.6,6.5,9.6,6V5.6z M9.6,9.5c0-0.5,0.4-0.9,0.9-0.9h16.4c0.5,0,0.9,0.4,0.9,0.9v0.4c0,0.5-0.4,0.9-0.9,0.9H10.5
		c-0.5,0-0.9-0.4-0.9-0.9V9.5z M9.6,13.5c0-0.5,0.4-0.9,0.9-0.9h16.4c0.5,0,0.9,0.4,0.9,0.9v0.4c0,0.5-0.4,0.9-0.9,0.9H10.5
		c-0.5,0-0.9-0.4-0.9-0.9V13.5z"/>
	<path class="st0" d="M17.1,34.5c-0.9-1.1-1.5-2.3-1.7-3.7c-0.4-3.1,1.3-6.1,4.1-7.3c0.8-0.3,1.6-0.6,2.4-0.6c0.1,0,0.1,0,0.1,0.1
		c0,1.1,0,2.2,0,3.3c0,1.1,0,2.2,0,3.3c0,0.1,0,0.2-0.1,0.2c-1.6,1.6-3.1,3.1-4.7,4.7C17.2,34.6,17.2,34.6,17.1,34.5z M27.9,34.1
		c-1.1,1.4-2.6,2.3-4.4,2.6c-2.2,0.4-4.2-0.3-5.9-1.8c0.1,0,0.1-0.1,0.2-0.1c1.6-1.6,3.1-3.1,4.7-4.7c0.2-0.2,0.2-0.3,0.2-0.6
		c0-2.2,0-4.4,0-6.7c0-0.1,0-0.1,0.1-0.1c1.8,0.1,3.3,0.8,4.6,2.1c1,1,1.7,2.3,1.9,3.8C29.6,30.7,29.2,32.5,27.9,34.1z"/>
</g>
</svg>
