<?xml version="1.0" encoding="utf-8"?>
<!-- Generator: Adobe Illustrator 23.0.1, SVG Export Plug-In . SVG Version: 6.00 Build 0)  -->
<svg version="1.1" id="Layer_1" xmlns="http://www.w3.org/2000/svg" xmlns:xlink="http://www.w3.org/1999/xlink" x="0px" y="0px"
	 viewBox="0 0 849.8 447" style="enable-background:new 0 0 849.8 447;" xml:space="preserve">
<style type="text/css">
	.st0{fill:#004E97;}
	.st1{opacity:0.2;}
	.st2{fill:#FFFFFF;}
</style>
<g>
	<g>
		<path class="st0" d="M495,167.4c-6,0-10.8-4.9-10.8-10.8s4.9-10.8,10.8-10.8s10.8,4.9,10.8,10.8S501,167.4,495,167.4z M495,150.1
			c-3.6,0-6.5,2.9-6.5,6.5s2.9,6.5,6.5,6.5c3.6,0,6.5-2.9,6.5-6.5S498.6,150.1,495,150.1z"/>
	</g>
	<g>
		<path class="st0" d="M348.8,167.9c-5.2,0-9.4-4.2-9.4-9.4c0-5.2,4.2-9.4,9.4-9.4c5.2,0,9.4,4.2,9.4,9.4
			C358.2,163.7,354,167.9,348.8,167.9z M348.8,153.5c-2.8,0-5,2.3-5,5c0,2.8,2.3,5,5,5c2.8,0,5-2.3,5-5
			C353.8,155.8,351.6,153.5,348.8,153.5z"/>
	</g>
	<g>
		<circle class="st0" cx="376.6" cy="144.1" r="3"/>
	</g>
	<g>
		<circle class="st0" cx="452.8" cy="135" r="3"/>
	</g>
	<g>
		<circle class="st0" cx="416.9" cy="140.7" r="3"/>
	</g>
	<g>
		<g>
			<path class="st0" d="M449.9,303.5H325.4c-1.2,0-2.2-1-2.2-2.2c0-1.2,1-2.2,2.2-2.2h124.5c1.2,0,2.2,1,2.2,2.2
				C452.1,302.5,451.1,303.5,449.9,303.5z"/>
		</g>
		<g>
			<path class="st0" d="M492.6,312.5h-68.4c-1.2,0-2.2-1-2.2-2.2c0-1.2,1-2.2,2.2-2.2h68.4c1.2,0,2.2,1,2.2,2.2
				C494.7,311.5,493.7,312.5,492.6,312.5z"/>
		</g>
		<g>
			<path class="st0" d="M524.4,312.5h-16.5c-1.2,0-2.2-1-2.2-2.2c0-1.2,1-2.2,2.2-2.2h16.5c1.2,0,2.2,1,2.2,2.2
				C526.5,311.5,525.5,312.5,524.4,312.5z"/>
		</g>
		<g>
			<path class="st0" d="M500.7,312.5h-0.2c-1.2,0-2.2-1-2.2-2.2c0-1.2,1-2.2,2.2-2.2h0.2c1.2,0,2.2,1,2.2,2.2
				C502.9,311.5,501.9,312.5,500.7,312.5z"/>
		</g>
		<g>
			<g>
				<path class="st0" d="M441,321.9h-68.4c-1.2,0-2.2-1-2.2-2.2s1-2.2,2.2-2.2H441c1.2,0,2.2,1,2.2,2.2S442.2,321.9,441,321.9z"/>
			</g>
			<g>
				<path class="st0" d="M364.6,321.9h-0.2c-1.2,0-2.2-1-2.2-2.2s1-2.2,2.2-2.2h0.2c1.2,0,2.2,1,2.2,2.2S365.8,321.9,364.6,321.9z"
					/>
			</g>
		</g>
	</g>
	<g>
		<path class="st0" d="M511.1,284.9H338.7c-10.6,0-19.2-8.6-19.2-19.2v-43.5c0-10.6,8.6-19.2,19.2-19.2h11c1.2,0,2.2,1,2.2,2.2
			c0,1.2-1,2.2-2.2,2.2h-11c-8.2,0-14.9,6.7-14.9,14.9v43.5c0,8.2,6.7,14.9,14.9,14.9h172.4c8.2,0,14.9-6.7,14.9-14.9v-43.5
			c0-8.2-6.7-14.9-14.9-14.9h-13c-1.2,0-2.2-1-2.2-2.2c0-1.2,1-2.2,2.2-2.2h13c10.6,0,19.2,8.6,19.2,19.2v43.5
			C530.3,276.3,521.7,284.9,511.1,284.9z"/>
	</g>
	<g>
		<g>
			<path class="st0" d="M401.3,212.7c-9.6,0-17.5-7.8-17.5-17.4c0-9.6,7.8-17.5,17.4-17.5c0,0,0,0,0.1,0c4.6,0,9,1.8,12.3,5.1
				c3.3,3.3,5.1,7.7,5.2,12.3v0c0,4.7-1.8,9.1-5.1,12.4C410.4,210.8,406,212.6,401.3,212.7C401.3,212.7,401.3,212.7,401.3,212.7z
				 M401.3,182C401.3,182,401.3,182,401.3,182c-3.6,0-6.9,1.4-9.3,3.9c-2.5,2.5-3.8,5.8-3.8,9.3c0,3.5,1.4,6.8,3.9,9.3
				c2.5,2.5,5.8,3.8,9.3,3.8c0,0,0,0,0,0c3.5,0,6.8-1.4,9.3-3.9c2.5-2.5,3.8-5.8,3.8-9.3v0C414.4,187.9,408.5,182,401.3,182z"/>
		</g>
		<g>
			<g>
				<path class="st0" d="M426.1,235.6c-1.1,0-2.1-0.9-2.2-2c-0.4-6.7-3.8-12.9-9.3-16.9c-1-0.7-1.2-2.1-0.5-3s2.1-1.2,3-0.5
					c6.5,4.7,10.6,12.1,11.1,20.1c0.1,1.2-0.8,2.2-2,2.3C426.2,235.6,426.1,235.6,426.1,235.6z"/>
			</g>
			<g>
				<path class="st0" d="M376.7,235.7c0,0-0.1,0-0.1,0c-1.2-0.1-2.1-1.1-2-2.3c0.4-8,4.4-15.4,11-20.2c1-0.7,2.3-0.5,3,0.5
					c0.7,1,0.5,2.3-0.5,3c-5.5,4-8.8,10.2-9.2,16.9C378.8,234.9,377.9,235.7,376.7,235.7z"/>
			</g>
		</g>
		<g>
			<g>
				<path class="st0" d="M437.1,184.1c-1.2,0-2.2-1-2.2-2.2c0-1.2,1-2.2,2.2-2.2l31.8-0.1c0,0,0,0,0,0c1.2,0,2.2,1,2.2,2.2
					c0,1.2-1,2.2-2.2,2.2L437.1,184.1C437.1,184.1,437.1,184.1,437.1,184.1z"/>
			</g>
			<g>
				<path class="st0" d="M437.1,199.2c-1.2,0-2.2-1-2.2-2.2c0-1.2,1-2.2,2.2-2.2l31.8-0.1c0,0,0,0,0,0c1.2,0,2.2,1,2.2,2.2
					c0,1.2-1,2.2-2.2,2.2L437.1,199.2C437.1,199.2,437.1,199.2,437.1,199.2z"/>
			</g>
		</g>
		<g>
			<path class="st0" d="M474,262c-12,0-21.7-9.7-21.8-21.7c0-12,9.7-21.8,21.7-21.8c0,0,0,0,0.1,0c12,0,21.7,9.7,21.8,21.7l0,0
				C495.8,252.2,486.1,262,474,262C474.1,262,474.1,262,474,262z M474,222.8C474,222.8,474,222.8,474,222.8c-4.7,0-9.1,1.8-12.4,5.1
				c-3.3,3.3-5.1,7.7-5.1,12.3c0,9.6,7.8,17.4,17.4,17.4c0,0,0,0,0.1,0c4.7,0,9-1.8,12.3-5.1c3.3-3.3,5.1-7.7,5.1-12.3l0,0
				C491.5,230.6,483.6,222.8,474,222.8z"/>
		</g>
		<g>
			<path class="st0" d="M472.4,247.3c0-1,0.7-1.8,1.7-1.8c1,0,1.7,0.7,1.7,1.8c0,1-0.7,1.8-1.7,1.8
				C473.1,249,472.4,248.3,472.4,247.3z M473.1,243.1l-0.4-13.8l2.8,0l-0.4,13.8L473.1,243.1z"/>
		</g>
		<g>
			<path class="st0" d="M374.2,253.4c-10.1,0-18.3-8.2-18.3-18.2l-0.2-55.7c0-10.1,8.2-18.3,18.2-18.4l97-0.3c0,0,0,0,0.1,0
				c10.1,0,18.3,8.2,18.3,18.2l0.1,36.9c0,1.2-1,2.2-2.2,2.2c0,0,0,0,0,0c-1.2,0-2.2-1-2.2-2.2L485,179c0-3.7-1.5-7.2-4.1-9.9
				c-2.6-2.6-6.1-4.1-9.9-4.1c0,0,0,0,0,0l-97,0.3c-7.7,0-14,6.3-13.9,14l0.2,55.7c0,7.7,6.3,13.9,14,13.9c0,0,0,0,0,0l72.5-0.2
				c0,0,0,0,0,0c1.2,0,2.2,1,2.2,2.2c0,1.2-1,2.2-2.2,2.2L374.2,253.4C374.2,253.4,374.2,253.4,374.2,253.4z"/>
		</g>
	</g>
</g>
<g class="st1">
	<g>
		<path class="st0" d="M425.8,410.3c-98.5,0-178.7-80.1-178.7-178.7S327.3,53,425.8,53s178.7,80.1,178.7,178.7
			S524.3,410.3,425.8,410.3z M425.8,59c-95.2,0-172.7,77.5-172.7,172.7s77.5,172.7,172.7,172.7s172.7-77.5,172.7-172.7
			S521,59,425.8,59z"/>
	</g>
</g>
<g>
	<circle class="st2" cx="284.1" cy="226.5" r="19.7"/>
</g>
<g class="st1">
	<g>
		<path class="st0" d="M364.7,48.4c-0.8,0-1.6-0.1-2.4-0.3c-2.4-0.6-4.4-2.2-5.7-4.4c-1.3-2.2-1.6-4.7-0.9-7.1
			c0.6-2.4,2.2-4.4,4.4-5.7c4.5-2.6,10.2-1,12.8,3.4c2.6,4.5,1,10.2-3.4,12.8C368,48,366.4,48.4,364.7,48.4z M364.7,35.6
			c-0.6,0-1.2,0.1-1.7,0.5c-0.8,0.5-1.3,1.2-1.6,2.1c-0.2,0.9-0.1,1.8,0.3,2.6c0.5,0.8,1.2,1.3,2.1,1.6c0.9,0.2,1.8,0.1,2.6-0.3
			c1.6-0.9,2.2-3,1.2-4.6C367,36.2,365.9,35.6,364.7,35.6z"/>
	</g>
</g>
<g class="st1">
	<g>
		<path class="st0" d="M403.6,127.1c-1,0-2-0.2-3-0.4c-3-0.8-5.5-2.7-7-5.4c-1.6-2.7-2-5.8-1.1-8.8c0.8-3,2.7-5.5,5.4-7
			c5.5-3.2,12.6-1.3,15.8,4.2c1.6,2.7,2,5.8,1.1,8.8c-0.8,3-2.7,5.5-5.4,7C407.6,126.5,405.6,127.1,403.6,127.1z M403.6,108.8
			c-1.1,0-2.3,0.3-3.3,0.9c-1.6,0.9-2.6,2.4-3.1,4.1s-0.2,3.5,0.7,5.1c0.9,1.6,2.4,2.6,4.1,3.1s3.5,0.2,5.1-0.7l0,0
			c1.6-0.9,2.6-2.4,3.1-4.1s0.2-3.5-0.7-5.1C408.1,110,405.9,108.8,403.6,108.8z"/>
	</g>
</g>
<g>
	<circle class="st2" cx="311.4" cy="153" r="11.2"/>
</g>
<g class="st1">
	<g>
		<g>
			<path class="st0" d="M619.1,200.7c-9.8,0-17.8-8-17.8-17.8s8-17.8,17.8-17.8s17.8,8,17.8,17.8
				C636.9,192.7,628.9,200.7,619.1,200.7z M619.1,171.1c-6.5,0-11.8,5.3-11.8,11.8s5.3,11.8,11.8,11.8s11.8-5.3,11.8-11.8
				S625.6,171.1,619.1,171.1z"/>
		</g>
	</g>
	<g>
		<g>
			<path class="st0" d="M581.8,121c-5,0-9.1-4.1-9.1-9.1s4.1-9.1,9.1-9.1s9.1,4.1,9.1,9.1S586.8,121,581.8,121z M581.8,108.8
				c-1.7,0-3.1,1.4-3.1,3.1s1.4,3.1,3.1,3.1s3.1-1.4,3.1-3.1S583.5,108.8,581.8,108.8z"/>
		</g>
	</g>
	<g>
		<g>
			<path class="st0" d="M479,132.9c-5,0-9.1-4.1-9.1-9.1s4.1-9.1,9.1-9.1s9.1,4.1,9.1,9.1C488.1,128.8,484,132.9,479,132.9z
				 M479,120.7c-1.7,0-3.1,1.4-3.1,3.1s1.4,3.1,3.1,3.1s3.1-1.4,3.1-3.1S480.7,120.7,479,120.7z"/>
		</g>
	</g>
</g>
<g>
	<g>
		<path class="st0" d="M547.4,197.8c-0.1,0-0.2,0-0.3,0c-1-0.1-1.9-0.6-2.6-1.3c-1.4-1.6-1.1-4,0.5-5.4c0.8-0.7,1.8-1,2.8-0.9
			s1.9,0.6,2.6,1.3c0.7,0.8,1,1.8,0.9,2.8s-0.6,1.9-1.3,2.6l0,0C549.2,197.5,548.3,197.8,547.4,197.8z M547.4,192.2
			c-0.4,0-0.8,0.1-1.2,0.4c-0.8,0.6-0.9,1.8-0.2,2.5c0.3,0.4,0.7,0.6,1.2,0.6s1-0.1,1.3-0.4l0,0c0.4-0.3,0.6-0.7,0.6-1.2
			s-0.1-1-0.4-1.3C548.4,192.4,548,192.2,547.4,192.2C547.5,192.2,547.5,192.2,547.4,192.2z"/>
	</g>
</g>
<g class="st1">
	<g>
		<g>
			<path class="st0" d="M308.1,234.6c-7,0-13.8-4-17-10.8c-4.4-9.3-0.3-20.5,9-24.9s20.5-0.3,24.9,9l0,0c2.1,4.5,2.3,9.6,0.6,14.3
				s-5.1,8.5-9.7,10.6C313.4,234,310.8,234.6,308.1,234.6z M308.1,203.2c-1.8,0-3.6,0.4-5.4,1.2c-6.4,3-9.1,10.6-6.1,16.9
				c3,6.4,10.6,9.1,16.9,6.1c3.1-1.4,5.4-4,6.6-7.2s1-6.6-0.4-9.7C317.4,205.9,312.8,203.2,308.1,203.2z"/>
		</g>
	</g>
	<g>
		<g>
			<path class="st0" d="M240.3,173.9c-1.1,0-2.2-0.2-3.2-0.6c-2.4-0.9-4.3-2.6-5.4-4.9c-2.2-4.7-0.2-10.4,4.6-12.6
				c4.7-2.2,10.4-0.2,12.6,4.6c1.1,2.3,1.2,4.9,0.3,7.3s-2.6,4.3-4.9,5.4C243.1,173.6,241.7,173.9,240.3,173.9z M240.3,160.9
				c-0.5,0-1,0.1-1.5,0.3c-1.7,0.8-2.5,2.9-1.7,4.7c0.8,1.7,2.9,2.5,4.7,1.7c0.8-0.4,1.5-1.1,1.8-2s0.3-1.8-0.1-2.7
				C242.9,161.7,241.6,160.9,240.3,160.9z"/>
		</g>
	</g>
</g>
<g class="st1">
	<g>
		<path class="st0" d="M193.7,211.8H97c-1.9,0-3.5-1.6-3.5-3.5s1.6-3.5,3.5-3.5h96.6c1.9,0,3.5,1.6,3.5,3.5S195.6,211.8,193.7,211.8
			z"/>
	</g>
</g>
<g class="st1">
	<g>
		<path class="st0" d="M219.5,302.5h-96.6c-1.9,0-3.5-1.6-3.5-3.5s1.6-3.5,3.5-3.5h96.6c1.9,0,3.5,1.6,3.5,3.5
			S221.4,302.5,219.5,302.5z"/>
	</g>
</g>
<g class="st1">
	<g>
		<path class="st0" d="M215.2,259.9H38.7c-1.9,0-3.5-1.6-3.5-3.5s1.6-3.5,3.5-3.5h176.5c1.9,0,3.5,1.6,3.5,3.5
			C218.7,258.4,217.1,259.9,215.2,259.9z"/>
	</g>
</g>
<g>
	<g class="st1">
		<g>
			<path class="st0" d="M755.8,211.8h-96.6c-1.9,0-3.5-1.6-3.5-3.5s1.6-3.5,3.5-3.5h96.6c1.9,0,3.5,1.6,3.5,3.5
				S757.7,211.8,755.8,211.8z"/>
		</g>
	</g>
	<g class="st1">
		<g>
			<path class="st0" d="M729.9,302.5h-96.6c-1.9,0-3.5-1.6-3.5-3.5s1.6-3.5,3.5-3.5h96.6c1.9,0,3.5,1.6,3.5,3.5
				S731.9,302.5,729.9,302.5z"/>
		</g>
	</g>
	<g class="st1">
		<g>
			<path class="st0" d="M814.1,259.9H637.6c-1.9,0-3.5-1.6-3.5-3.5s1.6-3.5,3.5-3.5h176.5c1.9,0,3.5,1.6,3.5,3.5
				C817.6,258.4,816,259.9,814.1,259.9z"/>
		</g>
	</g>
</g>
<g class="st1">
	<g>
		<path class="st0" d="M314.4,330.5l-2.1-2.5c-24.2-28.4-36.7-64.7-35.3-102.1c1.4-37.6,16.9-73,43.5-99.6s62-42.1,99.6-43.5
			c37.4-1.4,73.7,11.1,102.1,35.3l2.5,2.1l-2.3,2.3L314.4,330.5z M425.9,88.9c-36.8,0-73.6,14-101.2,41.6
			c-51.5,51.5-55.6,134.8-10,191.1l201-201C489.7,99.4,457.8,88.9,425.9,88.9z"/>
	</g>
	<g>
		<path class="st0" d="M425.8,380.6c-35.4,0-69.4-12.5-96.4-35.4l-2.5-2.1l210.3-210.3l2.1,2.5c24.2,28.4,36.7,64.7,35.3,102.1
			c-1.4,37.6-16.9,73-43.5,99.6c-26.6,26.6-62,42.1-99.6,43.5C429.6,380.5,427.6,380.6,425.8,380.6z M335.8,342.7
			c56.2,45.7,139.5,41.5,191.1-10c51.5-51.5,55.6-134.8,10-191.1L335.8,342.7z"/>
	</g>
</g>
<g>
	
		<rect x="278.1" y="225" transform="matrix(0.7071 -0.7071 0.7071 0.7071 -41.2616 368.0079)" class="st2" width="291" height="17.7"/>
</g>
</svg>
