<?xml version="1.0" encoding="utf-8"?>
<!-- Generator: Adobe Illustrator 23.0.1, SVG Export Plug-In . SVG Version: 6.00 Build 0)  -->
<svg version="1.1" id="Layer_1" xmlns="http://www.w3.org/2000/svg" xmlns:xlink="http://www.w3.org/1999/xlink" x="0px" y="0px"
	 viewBox="0 0 849.8 447" style="enable-background:new 0 0 849.8 447;" xml:space="preserve">
<style type="text/css">
	.st0{fill:#004E97;}
	.st1{opacity:0.2;}
	.st2{fill:#FFFFFF;}
</style>
<g>
	<g>
		<path class="st0" d="M531.8,175.3c-4.9,0-8.9-4-8.9-8.9c0-4.9,4-8.9,8.9-8.9s8.9,4,8.9,8.9C540.7,171.3,536.7,175.3,531.8,175.3z
			 M531.8,161c-3,0-5.4,2.4-5.4,5.4s2.4,5.4,5.4,5.4s5.4-2.4,5.4-5.4S534.7,161,531.8,161z"/>
	</g>
	<g>
		<path class="st0" d="M346.3,157c-4.8,0-8.7-3.9-8.7-8.7c0-4.8,3.9-8.7,8.7-8.7c4.8,0,8.7,3.9,8.7,8.7
			C355,153.1,351.1,157,346.3,157z M346.3,143.5c-2.6,0-4.7,2.1-4.7,4.7c0,2.6,2.1,4.7,4.7,4.7c2.6,0,4.7-2.1,4.7-4.7
			C351,145.7,348.9,143.5,346.3,143.5z"/>
	</g>
	<g>
		<circle class="st0" cx="375.6" cy="122.9" r="2.8"/>
	</g>
	<g>
		<circle class="st0" cx="451.1" cy="129.6" r="2.8"/>
	</g>
	<g>
		<circle class="st0" cx="429.7" cy="107" r="2.8"/>
	</g>
	<g>
		<path class="st0" d="M504.8,287.1H346.8c-10,0-18.1-8.1-18.1-18.1v-78.7c0-10,8.1-18.1,18.1-18.1h8.9c1.1,0,2,0.9,2,2s-0.9,2-2,2
			h-8.9c-7.8,0-14.1,6.3-14.1,14.1V269c0,7.8,6.3,14.1,14.1,14.1h158.1c7.8,0,14.1-6.3,14.1-14.1v-78.7c0-7.8-6.3-14.1-14.1-14.1
			h-7.3c-1.1,0-2-0.9-2-2s0.9-2,2-2h7.3c10,0,18.1,8.1,18.1,18.1V269C522.9,279,514.8,287.1,504.8,287.1z"/>
	</g>
	<g>
		<path class="st0" d="M448.7,312.7H332.9c-1.1,0-2-0.9-2-2s0.9-2,2-2h115.8c1.1,0,2,0.9,2,2S449.8,312.7,448.7,312.7z"/>
	</g>
	<g>
		<path class="st0" d="M488.3,321.2h-63.6c-1.1,0-2-0.9-2-2s0.9-2,2-2h63.6c1.1,0,2,0.9,2,2S489.4,321.2,488.3,321.2z"/>
	</g>
	<g>
		<path class="st0" d="M517.9,321.2h-15.4c-1.1,0-2-0.9-2-2s0.9-2,2-2h15.4c1.1,0,2,0.9,2,2S519,321.2,517.9,321.2z"/>
	</g>
	<g>
		<path class="st0" d="M495.9,321.2h-0.2c-1.1,0-2-0.9-2-2s0.9-2,2-2h0.2c1.1,0,2,0.9,2,2S497,321.2,495.9,321.2z"/>
	</g>
	<g>
		<g>
			<path class="st0" d="M440.4,329.9h-63.6c-1.1,0-2-0.9-2-2s0.9-2,2-2h63.6c1.1,0,2,0.9,2,2S441.5,329.9,440.4,329.9z"/>
		</g>
		<g>
			<path class="st0" d="M369.3,329.9h-0.2c-1.1,0-2-0.9-2-2s0.9-2,2-2h0.2c1.1,0,2,0.9,2,2S370.4,329.9,369.3,329.9z"/>
		</g>
	</g>
	<g>
		<path class="st0" d="M481.5,237.4H370.1c-4.7,0-8.6-3.8-8.6-8.6v-79.7c0-4.7,3.8-8.6,8.6-8.6h111.4c4.7,0,8.6,3.8,8.6,8.6v79.7
			C490.1,233.6,486.2,237.4,481.5,237.4z M370.1,144.6c-2.5,0-4.6,2-4.6,4.6v79.7c0,2.5,2,4.6,4.6,4.6h111.4c2.5,0,4.6-2,4.6-4.6
			v-79.7c0-2.5-2-4.6-4.6-4.6H370.1z"/>
	</g>
	<g>
		<g>
			<path class="st0" d="M431,264c-1.1,0-2-0.9-2-2v-26c0-1.1,0.9-2,2-2s2,0.9,2,2v26C433,263.1,432.1,264,431,264z"/>
		</g>
		<g>
			<path class="st0" d="M420.6,264c-1.1,0-2-0.9-2-2v-26c0-1.1,0.9-2,2-2s2,0.9,2,2v26C422.6,263.1,421.7,264,420.6,264z"/>
		</g>
	</g>
	<g>
		<path class="st0" d="M456.7,266h-61.9c-1.1,0-2-0.9-2-2s0.9-2,2-2h61.9c1.1,0,2,0.9,2,2S457.8,266,456.7,266z"/>
	</g>
	<g>
		<g>
			<path class="st0" d="M471.2,172.5c8,11,5.5,26.5-5.5,34.5c-11,8-26.5,5.5-34.5-5.5c-8-11-5.5-26.5,5.5-34.5
				C447.7,159,463.2,161.5,471.2,172.5z M433.6,199.7c7,9.7,20.6,11.9,30.3,4.9c9.7-7,11.9-20.6,4.9-30.3c-7-9.7-20.6-11.9-30.3-4.9
				C428.7,176.4,426.6,190,433.6,199.7z"/>
		</g>
		<g>
			<path class="st0" d="M462.9,178.4c4.7,6.5,3.2,15.6-3.2,20.3c-6.5,4.7-15.6,3.2-20.3-3.2c-0.4-0.5-0.7-1.1-1-1.6
				c-1.6-2.9-2.1-6.3-1.5-9.6c0.7-3.7,2.7-6.9,5.8-9.1C449.2,170.5,458.2,172,462.9,178.4z M441.8,193.7c3.7,5.2,11,6.3,16.2,2.6
				c5.2-3.7,6.3-11,2.6-16.2c-3.7-5.2-11-6.3-16.2-2.6c-2.4,1.7-4,4.3-4.6,7.2c-0.5,2.6-0.1,5.3,1.2,7.6
				C441.2,192.9,441.5,193.3,441.8,193.7z"/>
		</g>
		<g>
			<path class="st0" d="M439.6,183.7c0.2,0.3,0.3,0.7,0.2,1.2c-0.2,0.8-0.9,1.3-1.7,1.1l-9.7-2.1c-0.8-0.2-1.3-1-1.1-1.7
				c0.2-0.8,0.9-1.3,1.7-1.1l9.7,2.1C439,183.2,439.3,183.4,439.6,183.7z"/>
		</g>
		<g>
			<path class="st0" d="M446.7,163.7c0.1,0.1,0.2,0.3,0.2,0.5l2.7,9.6c0.2,0.8-0.2,1.6-1,1.8c-0.8,0.2-1.6-0.2-1.8-1l-2.7-9.6
				c-0.2-0.8,0.2-1.6,1-1.8C445.7,163,446.4,163.2,446.7,163.7z"/>
		</g>
	</g>
	<g>
		<path class="st0" d="M385.8,222.7h-12v-44.8h12V222.7z M376.8,219.7h6.1v-38.9h-6.1V219.7z"/>
	</g>
	<g>
		<path class="st0" d="M400.3,222.7h-12v-35.1h12V222.7z M391.3,219.7h6.1v-29.2h-6.1V219.7z"/>
	</g>
	<g>
		<path class="st0" d="M414.8,222.7h-12v-22.5h12V222.7z M405.8,219.7h6.1v-16.6h-6.1V219.7z"/>
	</g>
	<g>
		<path class="st0" d="M476.6,223.2h-54.5c-0.8,0-1.5-0.7-1.5-1.5c0-0.8,0.7-1.5,1.5-1.5h54.5c0.8,0,1.5,0.7,1.5,1.5
			C478.1,222.5,477.4,223.2,476.6,223.2z"/>
	</g>
</g>
<g class="st1">
	<g>
		<path class="st0" d="M425.8,410.3c-98.5,0-178.7-80.1-178.7-178.7S327.3,53,425.8,53s178.7,80.1,178.7,178.7
			S524.3,410.3,425.8,410.3z M425.8,59c-95.2,0-172.7,77.5-172.7,172.7s77.5,172.7,172.7,172.7s172.7-77.5,172.7-172.7
			S521,59,425.8,59z"/>
	</g>
</g>
<g>
	<circle class="st2" cx="284.1" cy="226.5" r="19.7"/>
</g>
<g class="st1">
	<g>
		<path class="st0" d="M364.7,48.4c-0.8,0-1.6-0.1-2.4-0.3c-2.4-0.6-4.4-2.2-5.7-4.4c-1.3-2.2-1.6-4.7-0.9-7.1
			c0.6-2.4,2.2-4.4,4.4-5.7c4.5-2.6,10.2-1,12.8,3.4c2.6,4.5,1,10.2-3.4,12.8C368,48,366.4,48.4,364.7,48.4z M364.7,35.6
			c-0.6,0-1.2,0.1-1.7,0.5c-0.8,0.5-1.3,1.2-1.6,2.1c-0.2,0.9-0.1,1.8,0.3,2.6c0.5,0.8,1.2,1.3,2.1,1.6c0.9,0.2,1.8,0.1,2.6-0.3
			c1.6-0.9,2.2-3,1.2-4.6C367,36.2,365.9,35.6,364.7,35.6z"/>
	</g>
</g>
<g class="st1">
	<g>
		<path class="st0" d="M403.6,127.1c-1,0-2-0.2-3-0.4c-3-0.8-5.5-2.7-7-5.4c-1.6-2.7-2-5.8-1.1-8.8c0.8-3,2.7-5.5,5.4-7
			c5.5-3.2,12.6-1.3,15.8,4.2c1.6,2.7,2,5.8,1.1,8.8c-0.8,3-2.7,5.5-5.4,7C407.6,126.5,405.6,127.1,403.6,127.1z M403.6,108.8
			c-1.1,0-2.3,0.3-3.3,0.9c-1.6,0.9-2.6,2.4-3.1,4.1c-0.5,1.7-0.2,3.5,0.7,5.1c0.9,1.6,2.4,2.6,4.1,3.1c1.7,0.5,3.5,0.2,5.1-0.7l0,0
			c1.6-0.9,2.6-2.4,3.1-4.1s0.2-3.5-0.7-5.1C408.1,110,405.9,108.8,403.6,108.8z"/>
	</g>
</g>
<g>
	<circle class="st2" cx="311.4" cy="153" r="11.2"/>
</g>
<g class="st1">
	<g>
		<g>
			<path class="st0" d="M619.1,200.7c-9.8,0-17.8-8-17.8-17.8s8-17.8,17.8-17.8s17.8,8,17.8,17.8
				C636.9,192.7,628.9,200.7,619.1,200.7z M619.1,171.1c-6.5,0-11.8,5.3-11.8,11.8s5.3,11.8,11.8,11.8s11.8-5.3,11.8-11.8
				S625.6,171.1,619.1,171.1z"/>
		</g>
	</g>
	<g>
		<g>
			<path class="st0" d="M581.8,121c-5,0-9.1-4.1-9.1-9.1s4.1-9.1,9.1-9.1s9.1,4.1,9.1,9.1S586.8,121,581.8,121z M581.8,108.8
				c-1.7,0-3.1,1.4-3.1,3.1s1.4,3.1,3.1,3.1s3.1-1.4,3.1-3.1S583.5,108.8,581.8,108.8z"/>
		</g>
	</g>
	<g>
		<g>
			<path class="st0" d="M479,132.9c-5,0-9.1-4.1-9.1-9.1s4.1-9.1,9.1-9.1s9.1,4.1,9.1,9.1C488.1,128.8,484,132.9,479,132.9z
				 M479,120.7c-1.7,0-3.1,1.4-3.1,3.1s1.4,3.1,3.1,3.1s3.1-1.4,3.1-3.1S480.7,120.7,479,120.7z"/>
		</g>
	</g>
</g>
<g>
	<g>
		<path class="st0" d="M547.4,197.8c-0.1,0-0.2,0-0.3,0c-1-0.1-1.9-0.6-2.6-1.3c-1.4-1.6-1.1-4,0.5-5.4c0.8-0.7,1.8-1,2.8-0.9
			s1.9,0.6,2.6,1.3c0.7,0.8,1,1.8,0.9,2.8s-0.6,1.9-1.3,2.6l0,0C549.2,197.5,548.3,197.8,547.4,197.8z M547.4,192.2
			c-0.4,0-0.8,0.1-1.2,0.4c-0.8,0.6-0.9,1.8-0.2,2.5c0.3,0.4,0.7,0.6,1.2,0.6s1-0.1,1.3-0.4l0,0c0.4-0.3,0.6-0.7,0.6-1.2
			s-0.1-1-0.4-1.3C548.4,192.4,548,192.2,547.4,192.2C547.5,192.2,547.5,192.2,547.4,192.2z"/>
	</g>
</g>
<g class="st1">
	<g>
		<g>
			<path class="st0" d="M308.1,234.6c-7,0-13.8-4-17-10.8c-4.4-9.3-0.3-20.5,9-24.9s20.5-0.3,24.9,9l0,0c2.1,4.5,2.3,9.6,0.6,14.3
				s-5.1,8.5-9.7,10.6C313.4,234,310.8,234.6,308.1,234.6z M308.1,203.2c-1.8,0-3.6,0.4-5.4,1.2c-6.4,3-9.1,10.6-6.1,16.9
				c3,6.4,10.6,9.1,16.9,6.1c3.1-1.4,5.4-4,6.6-7.2s1-6.6-0.4-9.7C317.4,205.9,312.8,203.2,308.1,203.2z"/>
		</g>
	</g>
	<g>
		<g>
			<path class="st0" d="M240.3,173.9c-1.1,0-2.2-0.2-3.2-0.6c-2.4-0.9-4.3-2.6-5.4-4.9c-2.2-4.7-0.2-10.4,4.6-12.6
				c4.7-2.2,10.4-0.2,12.6,4.6c1.1,2.3,1.2,4.9,0.3,7.3s-2.6,4.3-4.9,5.4C243.1,173.6,241.7,173.9,240.3,173.9z M240.3,160.9
				c-0.5,0-1,0.1-1.5,0.3c-1.7,0.8-2.5,2.9-1.7,4.7c0.8,1.7,2.9,2.5,4.7,1.7c0.8-0.4,1.5-1.1,1.8-2s0.3-1.8-0.1-2.7
				C242.9,161.7,241.6,160.9,240.3,160.9z"/>
		</g>
	</g>
</g>
<g class="st1">
	<g>
		<path class="st0" d="M193.7,211.8H97c-1.9,0-3.5-1.6-3.5-3.5s1.6-3.5,3.5-3.5h96.6c1.9,0,3.5,1.6,3.5,3.5S195.6,211.8,193.7,211.8
			z"/>
	</g>
</g>
<g class="st1">
	<g>
		<path class="st0" d="M219.5,302.5h-96.6c-1.9,0-3.5-1.6-3.5-3.5s1.6-3.5,3.5-3.5h96.6c1.9,0,3.5,1.6,3.5,3.5
			S221.4,302.5,219.5,302.5z"/>
	</g>
</g>
<g class="st1">
	<g>
		<path class="st0" d="M215.2,259.9H38.7c-1.9,0-3.5-1.6-3.5-3.5s1.6-3.5,3.5-3.5h176.5c1.9,0,3.5,1.6,3.5,3.5
			C218.7,258.4,217.1,259.9,215.2,259.9z"/>
	</g>
</g>
<g>
	<g class="st1">
		<g>
			<path class="st0" d="M755.8,211.8h-96.6c-1.9,0-3.5-1.6-3.5-3.5s1.6-3.5,3.5-3.5h96.6c1.9,0,3.5,1.6,3.5,3.5
				S757.7,211.8,755.8,211.8z"/>
		</g>
	</g>
	<g class="st1">
		<g>
			<path class="st0" d="M729.9,302.5h-96.6c-1.9,0-3.5-1.6-3.5-3.5s1.6-3.5,3.5-3.5h96.6c1.9,0,3.5,1.6,3.5,3.5
				S731.9,302.5,729.9,302.5z"/>
		</g>
	</g>
	<g class="st1">
		<g>
			<path class="st0" d="M814.1,259.9H637.6c-1.9,0-3.5-1.6-3.5-3.5s1.6-3.5,3.5-3.5h176.5c1.9,0,3.5,1.6,3.5,3.5
				C817.6,258.4,816,259.9,814.1,259.9z"/>
		</g>
	</g>
</g>
<g class="st1">
	<g>
		<path class="st0" d="M314.4,330.5l-2.1-2.5c-24.2-28.4-36.7-64.7-35.3-102.1c1.4-37.6,16.9-73,43.5-99.6s62-42.1,99.6-43.5
			c37.4-1.4,73.7,11.1,102.1,35.3l2.5,2.1l-2.3,2.3L314.4,330.5z M425.9,88.9c-36.8,0-73.6,14-101.2,41.6
			c-51.5,51.5-55.6,134.8-10,191.1l201-201C489.7,99.4,457.8,88.9,425.9,88.9z"/>
	</g>
	<g>
		<path class="st0" d="M425.8,380.6c-35.4,0-69.4-12.5-96.4-35.4l-2.5-2.1l210.3-210.3l2.1,2.5c24.2,28.4,36.7,64.7,35.3,102.1
			c-1.4,37.6-16.9,73-43.5,99.6c-26.6,26.6-62,42.1-99.6,43.5C429.6,380.5,427.6,380.6,425.8,380.6z M335.8,342.7
			c56.2,45.7,139.5,41.5,191.1-10c51.5-51.5,55.6-134.8,10-191.1L335.8,342.7z"/>
	</g>
</g>
<g>
	
		<rect x="278.1" y="225" transform="matrix(0.7071 -0.7071 0.7071 0.7071 -41.2888 367.9833)" class="st2" width="291" height="17.7"/>
</g>
</svg>
