<?xml version="1.0" encoding="utf-8"?>
<!-- Generator: Adobe Illustrator 23.0.1, SVG Export Plug-In . SVG Version: 6.00 Build 0)  -->
<svg version="1.1" id="Layer_1" xmlns="http://www.w3.org/2000/svg" xmlns:xlink="http://www.w3.org/1999/xlink" x="0px" y="0px"
	 viewBox="0 0 849.8 447" style="enable-background:new 0 0 849.8 447;" xml:space="preserve">
<style type="text/css">
	.st0{opacity:0.2;}
	.st1{fill:#004E97;}
	.st2{fill:#FFFFFF;}
</style>
<g class="st0">
	<g>
		<path class="st1" d="M425.8,410.3c-98.5,0-178.7-80.1-178.7-178.7S327.3,53,425.8,53c98.5,0,178.7,80.1,178.7,178.7
			S524.3,410.3,425.8,410.3z M425.8,59c-95.2,0-172.7,77.5-172.7,172.7s77.5,172.7,172.7,172.7s172.7-77.5,172.7-172.7
			S521,59,425.8,59z"/>
	</g>
</g>
<g>
	<circle class="st2" cx="284.1" cy="226.5" r="19.7"/>
</g>
<g class="st0">
	<g>
		<path class="st1" d="M364.7,57.4c-0.8,0-1.6-0.1-2.4-0.3c-2.4-0.6-4.4-2.2-5.7-4.4c-1.3-2.2-1.6-4.7-0.9-7.1
			c0.6-2.4,2.2-4.4,4.4-5.7c4.5-2.6,10.2-1,12.8,3.4c2.6,4.5,1,10.2-3.4,12.8C368,57,366.4,57.4,364.7,57.4z M364.7,44.6
			c-0.6,0-1.2,0.1-1.7,0.5c-0.8,0.5-1.3,1.2-1.6,2.1c-0.2,0.9-0.1,1.8,0.3,2.6c0.5,0.8,1.2,1.3,2.1,1.6c0.9,0.2,1.8,0.1,2.6-0.3
			c1.6-0.9,2.2-3,1.2-4.6C367,45.2,365.9,44.6,364.7,44.6z"/>
	</g>
</g>
<g class="st0">
	<g>
		<path class="st1" d="M410.9,129.4c-1.2,0-2.5-0.2-3.7-0.5c-3.7-1-6.7-3.3-8.6-6.6c-1.9-3.3-2.4-7.1-1.4-10.8
			c1-3.7,3.3-6.7,6.6-8.6c6.8-3.9,15.5-1.6,19.4,5.2c1.9,3.3,2.4,7.1,1.4,10.8c-1,3.7-3.3,6.7-6.6,8.6
			C415.8,128.7,413.4,129.4,410.9,129.4z M410.9,107c-1.4,0-2.8,0.4-4.1,1.1c-1.9,1.1-3.2,2.9-3.8,5s-0.3,4.3,0.8,6.2
			c1.1,1.9,2.9,3.2,5,3.8c2.1,0.6,4.3,0.3,6.2-0.8l0,0c1.9-1.1,3.2-2.9,3.8-5c0.6-2.1,0.3-4.3-0.8-6.2
			C416.4,108.5,413.7,107,410.9,107z"/>
	</g>
</g>
<g>
	<circle class="st2" cx="311.4" cy="153" r="11.2"/>
</g>
<g class="st0">
	<g>
		<g>
			<path class="st1" d="M619.1,200.7c-9.8,0-17.8-8-17.8-17.8c0-9.8,8-17.8,17.8-17.8s17.8,8,17.8,17.8
				C636.9,192.7,628.9,200.7,619.1,200.7z M619.1,171.1c-6.5,0-11.8,5.3-11.8,11.8s5.3,11.8,11.8,11.8s11.8-5.3,11.8-11.8
				S625.6,171.1,619.1,171.1z"/>
		</g>
	</g>
	<g>
		<g>
			<path class="st1" d="M581.8,121c-5,0-9.1-4.1-9.1-9.1s4.1-9.1,9.1-9.1c5,0,9.1,4.1,9.1,9.1S586.8,121,581.8,121z M581.8,108.8
				c-1.7,0-3.1,1.4-3.1,3.1s1.4,3.1,3.1,3.1s3.1-1.4,3.1-3.1S583.5,108.8,581.8,108.8z"/>
		</g>
	</g>
</g>
<g>
	<g>
		<path class="st1" d="M533.6,235.8c-2.2,0-4.4-0.9-6-2.8c-2.8-3.3-2.3-8.2,0.9-11c3.3-2.8,8.2-2.3,11,0.9c2.8,3.3,2.3,8.2-0.9,11
			l0,0C537.1,235.2,535.3,235.8,533.6,235.8z M533.5,222.2c-1.3,0-2.6,0.4-3.7,1.4c-2.4,2.1-2.8,5.7-0.7,8.2
			c2.1,2.4,5.7,2.8,8.2,0.7c2.4-2.1,2.8-5.7,0.7-8.2C536.8,222.9,535.2,222.2,533.5,222.2z"/>
	</g>
	<g>
		<path class="st1" d="M547.4,197.8c-0.1,0-0.2,0-0.3,0c-1-0.1-1.9-0.6-2.6-1.3c-1.4-1.6-1.1-4,0.5-5.4c0.8-0.7,1.8-1,2.8-0.9
			c1,0.1,1.9,0.6,2.6,1.3c0.7,0.8,1,1.8,0.9,2.8c-0.1,1-0.6,1.9-1.3,2.6l0,0C549.2,197.5,548.3,197.8,547.4,197.8z M547.4,192.2
			c-0.4,0-0.8,0.1-1.2,0.4c-0.8,0.6-0.9,1.8-0.2,2.5c0.3,0.4,0.7,0.6,1.2,0.6c0.5,0,1-0.1,1.3-0.4h0c0.4-0.3,0.6-0.7,0.6-1.2
			c0-0.5-0.1-1-0.4-1.3c-0.3-0.4-0.7-0.6-1.2-0.6C547.5,192.2,547.5,192.2,547.4,192.2z"/>
	</g>
</g>
<g class="st0">
	<g>
		<g>
			<path class="st1" d="M308.1,234.6c-7,0-13.8-4-17-10.8c-4.4-9.3-0.3-20.5,9-24.9c9.3-4.4,20.5-0.3,24.9,9v0
				c2.1,4.5,2.3,9.6,0.6,14.3s-5.1,8.5-9.7,10.6C313.4,234,310.8,234.6,308.1,234.6z M308.1,203.2c-1.8,0-3.6,0.4-5.4,1.2
				c-6.4,3-9.1,10.6-6.1,16.9c3,6.4,10.6,9.1,16.9,6.1c3.1-1.4,5.4-4,6.6-7.2s1-6.6-0.4-9.7C317.4,205.9,312.8,203.2,308.1,203.2z"
				/>
		</g>
	</g>
	<g>
		<g>
			<path class="st1" d="M240.3,173.9c-1.1,0-2.2-0.2-3.2-0.6c-2.4-0.9-4.3-2.6-5.4-4.9c-2.2-4.7-0.2-10.4,4.6-12.6
				c4.7-2.2,10.4-0.2,12.6,4.6c1.1,2.3,1.2,4.9,0.3,7.3s-2.6,4.3-4.9,5.4C243.1,173.6,241.7,173.9,240.3,173.9z M240.3,160.9
				c-0.5,0-1,0.1-1.5,0.3c-1.7,0.8-2.5,2.9-1.7,4.7c0.8,1.7,2.9,2.5,4.7,1.7c0.8-0.4,1.5-1.1,1.8-2c0.3-0.9,0.3-1.8-0.1-2.7
				C242.9,161.7,241.6,160.9,240.3,160.9z"/>
		</g>
	</g>
</g>
<g class="st0">
	<g>
		<path class="st1" d="M193.7,211.8H97c-1.9,0-3.5-1.6-3.5-3.5s1.6-3.5,3.5-3.5h96.6c1.9,0,3.5,1.6,3.5,3.5S195.6,211.8,193.7,211.8
			z"/>
	</g>
</g>
<g class="st0">
	<g>
		<path class="st1" d="M219.5,302.5h-96.6c-1.9,0-3.5-1.6-3.5-3.5s1.6-3.5,3.5-3.5h96.6c1.9,0,3.5,1.6,3.5,3.5
			S221.4,302.5,219.5,302.5z"/>
	</g>
</g>
<g class="st0">
	<g>
		<path class="st1" d="M215.2,259.9H38.7c-1.9,0-3.5-1.6-3.5-3.5c0-1.9,1.6-3.5,3.5-3.5h176.5c1.9,0,3.5,1.6,3.5,3.5
			C218.7,258.4,217.1,259.9,215.2,259.9z"/>
	</g>
</g>
<g>
	<g class="st0">
		<g>
			<path class="st1" d="M755.8,211.8h-96.6c-1.9,0-3.5-1.6-3.5-3.5s1.6-3.5,3.5-3.5h96.6c1.9,0,3.5,1.6,3.5,3.5
				S757.7,211.8,755.8,211.8z"/>
		</g>
	</g>
	<g class="st0">
		<g>
			<path class="st1" d="M729.9,302.5h-96.6c-1.9,0-3.5-1.6-3.5-3.5s1.6-3.5,3.5-3.5h96.6c1.9,0,3.5,1.6,3.5,3.5
				S731.9,302.5,729.9,302.5z"/>
		</g>
	</g>
	<g class="st0">
		<g>
			<path class="st1" d="M814.1,259.9H637.6c-1.9,0-3.5-1.6-3.5-3.5c0-1.9,1.6-3.5,3.5-3.5h176.5c1.9,0,3.5,1.6,3.5,3.5
				C817.6,258.4,816,259.9,814.1,259.9z"/>
		</g>
	</g>
</g>
<g>
	<g>
		<g>
			<path class="st1" d="M501.7,167.7c6.9,0,12.6,5.6,12.6,12.6v107.4c0,6.9-5.6,12.6-12.6,12.6H348.5c-6.9,0-12.6-5.6-12.6-12.6
				V180.3c0-6.9,5.6-12.6,12.6-12.6H501.7 M501.7,163.8H348.5c-9.2,0-16.6,7.4-16.6,16.6v107.4c0,9.2,7.4,16.6,16.6,16.6h153.2
				c9.2,0,16.6-7.4,16.6-16.6V180.3C518.3,171.2,510.9,163.8,501.7,163.8L501.7,163.8z"/>
		</g>
	</g>
	<g>
		<g>
			<rect x="334.2" y="192.3" class="st1" width="180.7" height="4"/>
		</g>
	</g>
	<g>
		<g>
			<path class="st1" d="M362.2,180.5c-1.1,0-2-0.9-2-2s0.9-2,2-2c5.9,0,10.8-4.8,10.8-10.8s-4.8-10.8-10.8-10.8
				c-5.9,0-10.8,4.8-10.8,10.8c0,1.1-0.9,2-2,2s-2-0.9-2-2c0-8.1,6.6-14.8,14.8-14.8s14.8,6.6,14.8,14.8
				C376.9,173.9,370.3,180.5,362.2,180.5z"/>
		</g>
	</g>
	<g>
		<g>
			<path class="st1" d="M387.4,180.5c-1.1,0-2-0.9-2-2s0.9-2,2-2c5.9,0,10.8-4.8,10.8-10.8s-4.8-10.8-10.8-10.8
				c-5.9,0-10.8,4.8-10.8,10.8c0,1.1-0.9,2-2,2s-2-0.9-2-2c0-8.1,6.6-14.8,14.8-14.8s14.8,6.6,14.8,14.8
				C402.2,173.9,395.6,180.5,387.4,180.5z"/>
		</g>
	</g>
	<g>
		<g>
			<path class="st1" d="M412.5,180.5c-1.1,0-2-0.9-2-2s0.9-2,2-2c5.9,0,10.8-4.8,10.8-10.8s-4.8-10.8-10.8-10.8s-10.8,4.8-10.8,10.8
				c0,1.1-0.9,2-2,2s-2-0.9-2-2c0-8.1,6.6-14.8,14.8-14.8s14.8,6.6,14.8,14.8C427.3,173.9,420.6,180.5,412.5,180.5z"/>
		</g>
	</g>
	<g>
		<g>
			<path class="st1" d="M437.8,180.5c-1.1,0-2-0.9-2-2s0.9-2,2-2c5.9,0,10.8-4.8,10.8-10.8s-4.8-10.8-10.8-10.8
				c-5.9,0-10.8,4.8-10.8,10.8c0,1.1-0.9,2-2,2s-2-0.9-2-2c0-8.1,6.6-14.8,14.8-14.8c8.1,0,14.8,6.6,14.8,14.8
				C452.6,173.9,446,180.5,437.8,180.5z"/>
		</g>
	</g>
	<g>
		<g>
			<path class="st1" d="M462.9,180.5c-1.1,0-2-0.9-2-2s0.9-2,2-2c5.9,0,10.8-4.8,10.8-10.8s-4.8-10.8-10.8-10.8s-10.8,4.8-10.8,10.8
				c0,1.1-0.9,2-2,2s-2-0.9-2-2c0-8.1,6.6-14.8,14.8-14.8s14.8,6.6,14.8,14.8C477.6,173.9,471,180.5,462.9,180.5z"/>
		</g>
	</g>
	<g>
		<g>
			<path class="st1" d="M487.9,180.5c-1.1,0-2-0.9-2-2s0.9-2,2-2c5.9,0,10.8-4.8,10.8-10.8s-4.8-10.8-10.8-10.8s-10.8,4.8-10.8,10.8
				c0,1.1-0.9,2-2,2s-2-0.9-2-2c0-8.1,6.6-14.8,14.8-14.8c8.1,0,14.8,6.6,14.8,14.8C502.7,173.9,496.1,180.5,487.9,180.5z"/>
		</g>
	</g>
	<g>
		<g>
			<path class="st1" d="M481.9,230.1c-0.5,0-1-0.2-1.4-0.6c-0.8-0.8-0.8-2,0-2.8l33.8-33.5c0.8-0.8,2-0.8,2.8,0c0.8,0.8,0.8,2,0,2.8
				l-33.8,33.5C482.9,229.9,482.4,230.1,481.9,230.1z"/>
		</g>
	</g>
	<g>
		<g>
			<path class="st1" d="M463.2,282.8c-0.5,0-1-0.2-1.4-0.6c-0.8-0.8-0.8-2,0-2.8l33.8-33.5c0.8-0.8,2-0.8,2.8,0c0.8,0.8,0.8,2,0,2.8
				l-33.8,33.5C464.2,282.6,463.7,282.8,463.2,282.8z"/>
		</g>
	</g>
	<g>
		<g>
			<path class="st1" d="M412.6,302.8c-0.5,0-1-0.2-1.4-0.6c-0.8-0.8-0.8-2,0-2.8l33.8-33.5c0.8-0.8,2-0.8,2.8,0c0.8,0.8,0.8,2,0,2.8
				L414,302.2C413.6,302.6,413.1,302.8,412.6,302.8z"/>
		</g>
	</g>
	<g>
		<g>
			<path class="st1" d="M404.5,284h-69.3c-1.1,0-2-0.9-2-2s0.9-2,2-2h69.3c1.1,0,2,0.9,2,2S405.6,284,404.5,284z"/>
		</g>
	</g>
	<g>
		<g>
			<path class="st1" d="M515.7,284h-61.8c-1.1,0-2-0.9-2-2s0.9-2,2-2h61.8c1.1,0,2,0.9,2,2S516.8,284,515.7,284z"/>
		</g>
	</g>
	<g>
		<g>
			<path class="st1" d="M507.5,153.2c-5.5,0-10-4.5-10-10c0-5.5,4.5-10,10-10c5.5,0,10,4.5,10,10
				C517.6,148.7,513.1,153.2,507.5,153.2z M507.5,137.2c-3.3,0-6,2.7-6,6c0,3.3,2.7,6,6,6c3.3,0,6-2.7,6-6
				C513.6,139.9,510.9,137.2,507.5,137.2z"/>
		</g>
	</g>
	<g>
		<g>
			<path class="st1" d="M340,159.2c-4.8,0-8.6-3.9-8.6-8.6c0-4.8,3.9-8.6,8.6-8.6c4.8,0,8.6,3.9,8.6,8.6
				C348.6,155.3,344.7,159.2,340,159.2z M340,145.9c-2.6,0-4.7,2.1-4.7,4.7c0,2.6,2.1,4.7,4.7,4.7c2.6,0,4.7-2.1,4.7-4.7
				C344.6,148,342.5,145.9,340,145.9z"/>
		</g>
	</g>
	<g>
		<g>
			<circle class="st1" cx="365.9" cy="139.3" r="2.8"/>
		</g>
	</g>
	<g>
		<g>
			<circle class="st1" cx="430.5" cy="143.4" r="2.8"/>
		</g>
	</g>
	<g>
		<g>
			<circle class="st1" cx="474.3" cy="137.7" r="2.8"/>
		</g>
	</g>
	<g>
		<g>
			<path class="st1" d="M449.6,313.1H334.7c-1.1,0-2-0.9-2-2s0.9-2,2-2h114.9c1.1,0,2,0.9,2,2S450.7,313.1,449.6,313.1z"/>
		</g>
	</g>
	<g>
		<g>
			<path class="st1" d="M488.9,321.4h-63.2c-1.1,0-2-0.9-2-2s0.9-2,2-2h63.2c1.1,0,2,0.9,2,2S490,321.4,488.9,321.4z"/>
		</g>
	</g>
	<g>
		<g>
			<path class="st1" d="M518.3,321.4H503c-1.1,0-2-0.9-2-2s0.9-2,2-2h15.2c1.1,0,2,0.9,2,2S519.4,321.4,518.3,321.4z"/>
		</g>
	</g>
	<g>
		<g>
			<path class="st1" d="M496.5,321.4h-0.2c-1.1,0-2-0.9-2-2s0.9-2,2-2h0.2c1.1,0,2,0.9,2,2S497.6,321.4,496.5,321.4z"/>
		</g>
	</g>
	<g>
		<g>
			<g>
				<path class="st1" d="M441.3,330.1h-63.2c-1.1,0-2-0.9-2-2c0-1.1,0.9-2,2-2h63.2c1.1,0,2,0.9,2,2
					C443.3,329.2,442.4,330.1,441.3,330.1z"/>
			</g>
		</g>
		<g>
			<g>
				<path class="st1" d="M370.8,330.1h-0.2c-1.1,0-2-0.9-2-2c0-1.1,0.9-2,2-2h0.2c1.1,0,2,0.9,2,2
					C372.8,329.2,371.9,330.1,370.8,330.1z"/>
			</g>
		</g>
	</g>
	<g>
		<g>
			<path class="st1" d="M382.1,253.4h-22.5c-4.7,0-8.4-3.8-8.4-8.4v-22.5c0-4.7,3.8-8.4,8.4-8.4h22.5c4.7,0,8.4,3.8,8.4,8.4V245
				C390.6,249.6,386.8,253.4,382.1,253.4z M359.6,218c-2.5,0-4.5,2-4.5,4.5V245c0,2.5,2,4.5,4.5,4.5h22.5c2.5,0,4.5-2,4.5-4.5v-22.5
				c0-2.5-2-4.5-4.5-4.5H359.6z"/>
		</g>
	</g>
	<g>
		<g>
			<path class="st1" d="M370.1,228.7L370.1,228.7l-3.3,1.5l-0.7-3l4.5-2.1h3.3v17h-3.8V228.7z"/>
		</g>
	</g>
</g>
<g class="st0">
	<g>
		<path class="st1" d="M314.4,330.5l-2.1-2.5c-24.2-28.4-36.7-64.7-35.3-102.1c1.4-37.6,16.9-73,43.5-99.6
			c26.6-26.6,62-42.1,99.6-43.5c37.4-1.4,73.7,11.1,102.1,35.3l2.5,2.1l-2.3,2.3L314.4,330.5z M425.9,88.9
			c-36.8,0-73.6,14-101.2,41.6c-51.5,51.5-55.6,134.8-10,191.1l201-201C489.7,99.4,457.8,88.9,425.9,88.9z"/>
	</g>
	<g>
		<path class="st1" d="M425.8,380.6c-35.4,0-69.4-12.5-96.4-35.4l-2.5-2.1l210.3-210.3l2.1,2.5c24.2,28.4,36.7,64.7,35.3,102.1
			c-1.4,37.6-16.9,73-43.5,99.6c-26.6,26.6-62,42.1-99.6,43.5C429.6,380.5,427.6,380.6,425.8,380.6z M335.8,342.7
			c56.2,45.7,139.5,41.5,191.1-10c51.5-51.5,55.6-134.8,10-191.1L335.8,342.7z"/>
	</g>
</g>
<g>
	
		<rect x="414.7" y="88.4" transform="matrix(0.7071 0.7071 -0.7071 0.7071 289.4523 -230.9888)" class="st2" width="17.7" height="291"/>
</g>
</svg>
