<?xml version="1.0" encoding="utf-8"?>
<!-- Generator: Adobe Illustrator 23.0.1, SVG Export Plug-In . SVG Version: 6.00 Build 0)  -->
<svg version="1.1" id="Layer_1" xmlns="http://www.w3.org/2000/svg" xmlns:xlink="http://www.w3.org/1999/xlink" x="0px" y="0px"
	 viewBox="0 0 849.8 447" style="enable-background:new 0 0 849.8 447;" xml:space="preserve">
<style type="text/css">
	.st0{fill:#004E97;}
	.st1{opacity:0.2;}
	.st2{fill:#FFFFFF;}
</style>
<g>
	<g>
		<path class="st0" d="M495.7,194c-6,0-10.8-4.9-10.8-10.8s4.8-10.8,10.8-10.8s10.8,4.9,10.8,10.8S501.7,194,495.7,194z
			 M495.7,176.7c-3.6,0-6.5,2.9-6.5,6.5s2.9,6.5,6.5,6.5s6.5-2.9,6.5-6.5C502.2,179.6,499.3,176.7,495.7,176.7z"/>
	</g>
	<g>
		<path class="st0" d="M350.2,189c-5.2,0-9.3-4.2-9.3-9.3c0-5.2,4.2-9.3,9.3-9.3s9.3,4.2,9.3,9.3S355.3,189,350.2,189z M350.2,174.6
			c-2.8,0-5,2.3-5,5c0,2.8,2.3,5,5,5s5-2.3,5-5C355.2,176.9,353,174.6,350.2,174.6z"/>
	</g>
	<g>
		<circle class="st0" cx="377.7" cy="160.7" r="3"/>
	</g>
	<g>
		<circle class="st0" cx="453.6" cy="151.6" r="3"/>
	</g>
	<g>
		<circle class="st0" cx="413.7" cy="143" r="3"/>
	</g>
	<g>
		<g>
			<path class="st0" d="M450.7,298.3H326.6c-1.2,0-2.2-1-2.2-2.2s1-2.2,2.2-2.2h124.1c1.2,0,2.2,1,2.2,2.2S451.9,298.3,450.7,298.3z
				"/>
		</g>
		<g>
			<path class="st0" d="M493.3,307.3H425c-1.2,0-2.2-1-2.2-2.2s1-2.2,2.2-2.2h68.2c1.2,0,2.2,1,2.2,2.2
				C495.4,306.4,494.4,307.3,493.3,307.3z"/>
		</g>
		<g>
			<path class="st0" d="M525,307.3h-16.5c-1.2,0-2.2-1-2.2-2.2s1-2.2,2.2-2.2H525c1.2,0,2.2,1,2.2,2.2
				C527.1,306.4,526.2,307.3,525,307.3z"/>
		</g>
		<g>
			<path class="st0" d="M501.4,307.3h-0.2c-1.2,0-2.2-1-2.2-2.2s1-2.2,2.2-2.2h0.2c1.2,0,2.2,1,2.2,2.2
				C503.6,306.4,502.6,307.3,501.4,307.3z"/>
		</g>
		<g>
			<g>
				<path class="st0" d="M441.9,316.7h-68.2c-1.2,0-2.2-1-2.2-2.2s1-2.2,2.2-2.2h68.2c1.2,0,2.2,1,2.2,2.2
					C444,315.7,443,316.7,441.9,316.7z"/>
			</g>
			<g>
				<path class="st0" d="M365.7,316.7h-0.2c-1.2,0-2.2-1-2.2-2.2s1-2.2,2.2-2.2h0.2c1.2,0,2.2,1,2.2,2.2
					C367.8,315.7,366.9,316.7,365.7,316.7z"/>
			</g>
		</g>
	</g>
	<g>
		<path class="st0" d="M511.8,279.8h-172c-10.6,0-19.2-8.6-19.2-19.2v-39c0-10.6,8.6-19.2,19.2-19.2h25.1c1.2,0,2.2,1,2.2,2.2
			s-1,2.2-2.2,2.2h-25.1c-8.2,0-14.9,6.7-14.9,14.9v39c0,8.2,6.7,14.9,14.9,14.9h172c8.2,0,14.9-6.7,14.9-14.9v-39
			c0-8.2-6.7-14.9-14.9-14.9h-24.5c-1.2,0-2.2-1-2.2-2.2s1-2.2,2.2-2.2h24.5c10.6,0,19.2,8.6,19.2,19.2v39
			C530.9,271.2,522.3,279.8,511.8,279.8z"/>
	</g>
	<g>
		<path class="st0" d="M425.8,262c-28.5,0-51.7-23.2-51.7-51.7s23.2-51.7,51.7-51.7s51.7,23.2,51.7,51.7S454.3,262,425.8,262z
			 M425.8,162.9c-26.2,0-47.4,21.3-47.4,47.4c0,26.2,21.3,47.4,47.4,47.4c26.2,0,47.4-21.3,47.4-47.4
			C473.2,184.1,451.9,162.9,425.8,162.9z"/>
	</g>
	<g>
		<g>
			<g>
				<path class="st0" d="M438.6,211.9c-6,0-10.9-5.1-10.9-11.3s4.9-11.3,10.9-11.3s10.9,5.1,10.9,11.3
					C449.5,206.8,444.7,211.9,438.6,211.9z M438.6,193.7c-3.6,0-6.6,3.1-6.6,7s3,7,6.6,7s6.6-3.1,6.6-7S442.3,193.7,438.6,193.7z"/>
			</g>
			<g>
				<path class="st0" d="M457.1,235.7h-37c-2.1,0-3.7-1.6-3.8-3.7c0-0.3,0-0.5,0-0.8c0-13.1,10-23.7,22.3-23.7s22.3,10.6,22.3,23.7
					c0,0.3,0,0.5,0,0.8C460.9,234.1,459.2,235.7,457.1,235.7z M420.6,231.4h36c0-0.1,0-0.1,0-0.2c0-10.7-8.1-19.4-18-19.4
					s-18,8.7-18,19.4C420.6,231.3,420.6,231.4,420.6,231.4z"/>
			</g>
		</g>
		<g>
			<g>
				<path class="st0" d="M408.3,197.6c-6,0-10.9-5.1-10.9-11.3s4.9-11.3,10.9-11.3s10.9,5.1,10.9,11.3
					C419.3,192.6,414.4,197.6,408.3,197.6z M408.3,179.4c-3.6,0-6.6,3.1-6.6,7s3,7,6.6,7s6.6-3.1,6.6-7S412,179.4,408.3,179.4z"/>
			</g>
			<g>
				<path class="st0" d="M422.4,221.5h-32.6c-2.1,0-3.7-1.6-3.8-3.7c0-0.3,0-0.5,0-0.8c0-13.1,10-23.7,22.3-23.7
					c5.2,0,10.2,1.9,14.2,5.4c3.9,3.4,6.6,8.1,7.7,13.3l-4.2,0.9c-1.8-8.8-9.2-15.3-17.6-15.3c-9.9,0-18,8.7-18,19.4
					c0,0.1,0,0.1,0,0.2h32.1v4.3H422.4z"/>
			</g>
		</g>
	</g>
	<g>
		<path class="st0" d="M390.9,246.9c-0.6,0-1.3-0.3-1.7-0.8c-0.7-0.9-0.6-2.3,0.3-3l20.7-16.5c0.9-0.7,2.3-0.6,3,0.3
			c0.7,0.9,0.6,2.3-0.3,3l-20.7,16.5C391.8,246.7,391.3,246.9,390.9,246.9z"/>
	</g>
	<g>
		<path class="st0" d="M452.3,196c-0.6,0-1.2-0.3-1.7-0.8c-0.8-0.9-0.6-2.3,0.3-3l14-11.4c0.9-0.8,2.3-0.6,3,0.3
			c0.8,0.9,0.6,2.3-0.3,3l-14,11.4C453.3,195.9,452.8,196,452.3,196z"/>
	</g>
</g>
<g class="st1">
	<g>
		<path class="st0" d="M425.8,410.3c-98.5,0-178.7-80.1-178.7-178.7S327.3,53,425.8,53s178.7,80.1,178.7,178.7
			S524.3,410.3,425.8,410.3z M425.8,59c-95.2,0-172.7,77.5-172.7,172.7s77.5,172.7,172.7,172.7s172.7-77.5,172.7-172.7
			S521,59,425.8,59z"/>
	</g>
</g>
<g>
	<circle class="st2" cx="284.1" cy="226.5" r="19.7"/>
</g>
<g class="st1">
	<g>
		<path class="st0" d="M364.7,57.4c-0.8,0-1.6-0.1-2.4-0.3c-2.4-0.6-4.4-2.2-5.7-4.4c-1.3-2.2-1.6-4.7-0.9-7.1
			c0.6-2.4,2.2-4.4,4.4-5.7c4.5-2.6,10.2-1,12.8,3.4c2.6,4.5,1,10.2-3.4,12.8C368,57,366.4,57.4,364.7,57.4z M364.7,44.6
			c-0.6,0-1.2,0.1-1.7,0.5c-0.8,0.5-1.3,1.2-1.6,2.1c-0.2,0.9-0.1,1.8,0.3,2.6c0.5,0.8,1.2,1.3,2.1,1.6c0.9,0.2,1.8,0.1,2.6-0.3
			c1.6-0.9,2.2-3,1.2-4.6C367,45.2,365.9,44.6,364.7,44.6z"/>
	</g>
</g>
<g class="st1">
	<g>
		<path class="st0" d="M410.9,129.4c-1.2,0-2.5-0.2-3.7-0.5c-3.7-1-6.7-3.3-8.6-6.6c-1.9-3.3-2.4-7.1-1.4-10.8
			c1-3.7,3.3-6.7,6.6-8.6c6.8-3.9,15.5-1.6,19.4,5.2c1.9,3.3,2.4,7.1,1.4,10.8c-1,3.7-3.3,6.7-6.6,8.6
			C415.8,128.7,413.4,129.4,410.9,129.4z M410.9,107c-1.4,0-2.8,0.4-4.1,1.1c-1.9,1.1-3.2,2.9-3.8,5s-0.3,4.3,0.8,6.2
			c1.1,1.9,2.9,3.2,5,3.8c2.1,0.6,4.3,0.3,6.2-0.8l0,0c1.9-1.1,3.2-2.9,3.8-5c0.6-2.1,0.3-4.3-0.8-6.2
			C416.4,108.5,413.7,107,410.9,107z"/>
	</g>
</g>
<g>
	<circle class="st2" cx="311.4" cy="153" r="11.2"/>
</g>
<g class="st1">
	<g>
		<g>
			<path class="st0" d="M619.1,200.7c-9.8,0-17.8-8-17.8-17.8s8-17.8,17.8-17.8s17.8,8,17.8,17.8
				C636.9,192.7,628.9,200.7,619.1,200.7z M619.1,171.1c-6.5,0-11.8,5.3-11.8,11.8s5.3,11.8,11.8,11.8s11.8-5.3,11.8-11.8
				S625.6,171.1,619.1,171.1z"/>
		</g>
	</g>
	<g>
		<g>
			<path class="st0" d="M581.8,121c-5,0-9.1-4.1-9.1-9.1s4.1-9.1,9.1-9.1s9.1,4.1,9.1,9.1S586.8,121,581.8,121z M581.8,108.8
				c-1.7,0-3.1,1.4-3.1,3.1s1.4,3.1,3.1,3.1s3.1-1.4,3.1-3.1S583.5,108.8,581.8,108.8z"/>
		</g>
	</g>
</g>
<g class="st1">
	<g>
		<g>
			<path class="st0" d="M308.1,234.6c-7,0-13.8-4-17-10.8c-4.4-9.3-0.3-20.5,9-24.9s20.5-0.3,24.9,9l0,0c2.1,4.5,2.3,9.6,0.6,14.3
				s-5.1,8.5-9.7,10.6C313.4,234,310.8,234.6,308.1,234.6z M308.1,203.2c-1.8,0-3.6,0.4-5.4,1.2c-6.4,3-9.1,10.6-6.1,16.9
				c3,6.4,10.6,9.1,16.9,6.1c3.1-1.4,5.4-4,6.6-7.2s1-6.6-0.4-9.7C317.4,205.9,312.8,203.2,308.1,203.2z"/>
		</g>
	</g>
	<g>
		<g>
			<path class="st0" d="M240.3,173.9c-1.1,0-2.2-0.2-3.2-0.6c-2.4-0.9-4.3-2.6-5.4-4.9c-2.2-4.7-0.2-10.4,4.6-12.6
				c4.7-2.2,10.4-0.2,12.6,4.6c1.1,2.3,1.2,4.9,0.3,7.3s-2.6,4.3-4.9,5.4C243.1,173.6,241.7,173.9,240.3,173.9z M240.3,160.9
				c-0.5,0-1,0.1-1.5,0.3c-1.7,0.8-2.5,2.9-1.7,4.7c0.8,1.7,2.9,2.5,4.7,1.7c0.8-0.4,1.5-1.1,1.8-2s0.3-1.8-0.1-2.7
				C242.9,161.7,241.6,160.9,240.3,160.9z"/>
		</g>
	</g>
</g>
<g class="st1">
	<g>
		<path class="st0" d="M193.7,211.8H97c-1.9,0-3.5-1.6-3.5-3.5s1.6-3.5,3.5-3.5h96.6c1.9,0,3.5,1.6,3.5,3.5S195.6,211.8,193.7,211.8
			z"/>
	</g>
</g>
<g class="st1">
	<g>
		<path class="st0" d="M219.5,302.5h-96.6c-1.9,0-3.5-1.6-3.5-3.5s1.6-3.5,3.5-3.5h96.6c1.9,0,3.5,1.6,3.5,3.5
			S221.4,302.5,219.5,302.5z"/>
	</g>
</g>
<g class="st1">
	<g>
		<path class="st0" d="M215.2,259.9H38.7c-1.9,0-3.5-1.6-3.5-3.5s1.6-3.5,3.5-3.5h176.5c1.9,0,3.5,1.6,3.5,3.5
			C218.7,258.4,217.1,259.9,215.2,259.9z"/>
	</g>
</g>
<g>
	<g class="st1">
		<g>
			<path class="st0" d="M755.8,211.8h-96.6c-1.9,0-3.5-1.6-3.5-3.5s1.6-3.5,3.5-3.5h96.6c1.9,0,3.5,1.6,3.5,3.5
				S757.7,211.8,755.8,211.8z"/>
		</g>
	</g>
	<g class="st1">
		<g>
			<path class="st0" d="M729.9,302.5h-96.6c-1.9,0-3.5-1.6-3.5-3.5s1.6-3.5,3.5-3.5h96.6c1.9,0,3.5,1.6,3.5,3.5
				S731.9,302.5,729.9,302.5z"/>
		</g>
	</g>
	<g class="st1">
		<g>
			<path class="st0" d="M814.1,259.9H637.6c-1.9,0-3.5-1.6-3.5-3.5s1.6-3.5,3.5-3.5h176.5c1.9,0,3.5,1.6,3.5,3.5
				C817.6,258.4,816,259.9,814.1,259.9z"/>
		</g>
	</g>
</g>
<g class="st1">
	<g>
		<path class="st0" d="M314.4,330.5l-2.1-2.5c-24.2-28.4-36.7-64.7-35.3-102.1c1.4-37.6,16.9-73,43.5-99.6s62-42.1,99.6-43.5
			c37.4-1.4,73.7,11.1,102.1,35.3l2.5,2.1l-2.3,2.3L314.4,330.5z M425.9,88.9c-36.8,0-73.6,14-101.2,41.6
			c-51.5,51.5-55.6,134.8-10,191.1l201-201C489.7,99.4,457.8,88.9,425.9,88.9z"/>
	</g>
	<g>
		<path class="st0" d="M425.8,380.6c-35.4,0-69.4-12.5-96.4-35.4l-2.5-2.1l210.3-210.3l2.1,2.5c24.2,28.4,36.7,64.7,35.3,102.1
			c-1.4,37.6-16.9,73-43.5,99.6c-26.6,26.6-62,42.1-99.6,43.5C429.6,380.5,427.6,380.6,425.8,380.6z M335.8,342.7
			c56.2,45.7,139.5,41.5,191.1-10c51.5-51.5,55.6-134.8,10-191.1L335.8,342.7z"/>
	</g>
</g>
<g>
	
		<rect x="278.1" y="225" transform="matrix(0.7071 -0.7071 0.7071 0.7071 -41.3321 368.0038)" class="st2" width="291" height="17.7"/>
</g>
</svg>
