<?xml version="1.0" encoding="utf-8"?>
<!-- Generator: Adobe Illustrator 23.0.1, SVG Export Plug-In . SVG Version: 6.00 Build 0)  -->
<svg version="1.1" id="Layer_1" xmlns="http://www.w3.org/2000/svg" xmlns:xlink="http://www.w3.org/1999/xlink" x="0px" y="0px"
	 viewBox="0 0 849.8 447" style="enable-background:new 0 0 849.8 447;" xml:space="preserve">
<style type="text/css">
	.st0{fill:#004E97;}
	.st1{opacity:0.2;}
	.st2{fill:#FFFFFF;}
</style>
<g>
	<path class="st0" d="M502.1,196.4c-6,0-10.9-4.9-10.9-10.9s4.9-10.9,10.9-10.9s10.9,4.9,10.9,10.9S508.1,196.4,502.1,196.4z
		 M502.1,178.9c-3.6,0-6.6,2.9-6.6,6.6c0,3.6,2.9,6.6,6.6,6.6c3.6,0,6.6-2.9,6.6-6.6C508.7,181.9,505.7,178.9,502.1,178.9z"/>
</g>
<g>
	<path class="st0" d="M347.9,187.3c-5.2,0-9.4-4.2-9.4-9.4s4.2-9.4,9.4-9.4c5.2,0,9.4,4.2,9.4,9.4
		C357.4,183,353.1,187.3,347.9,187.3z M347.9,172.7c-2.8,0-5.1,2.3-5.1,5.1s2.3,5.1,5.1,5.1s5.1-2.3,5.1-5.1
		S350.7,172.7,347.9,172.7z"/>
</g>
<g>
	<circle class="st0" cx="371.1" cy="144.4" r="3"/>
</g>
<g>
	<circle class="st0" cx="468" cy="140.2" r="3"/>
</g>
<g>
	<circle class="st0" cx="420.7" cy="128.8" r="3"/>
</g>
<g>
	<g>
		<path class="st0" d="M449.5,308.7H324.1c-1.2,0-2.2-1-2.2-2.2s1-2.2,2.2-2.2h125.4c1.2,0,2.2,1,2.2,2.2S450.7,308.7,449.5,308.7z"
			/>
	</g>
	<g>
		<path class="st0" d="M492.5,317.8h-68.9c-1.2,0-2.2-1-2.2-2.2s1-2.2,2.2-2.2h68.9c1.2,0,2.2,1,2.2,2.2
			C494.6,316.8,493.7,317.8,492.5,317.8z"/>
	</g>
	<g>
		<path class="st0" d="M524.5,317.8h-16.6c-1.2,0-2.2-1-2.2-2.2s1-2.2,2.2-2.2h16.6c1.2,0,2.2,1,2.2,2.2S525.7,317.8,524.5,317.8z"
			/>
	</g>
	<g>
		<path class="st0" d="M500.7,317.8h-0.2c-1.2,0-2.2-1-2.2-2.2s1-2.2,2.2-2.2h0.2c1.2,0,2.2,1,2.2,2.2
			C502.9,316.8,501.9,317.8,500.7,317.8z"/>
	</g>
	<g>
		<g>
			<path class="st0" d="M440.5,327.3h-68.9c-1.2,0-2.2-1-2.2-2.2s1-2.2,2.2-2.2h68.9c1.2,0,2.2,1,2.2,2.2S441.7,327.3,440.5,327.3z"
				/>
		</g>
		<g>
			<path class="st0" d="M363.6,327.3h-0.2c-1.2,0-2.2-1-2.2-2.2s1-2.2,2.2-2.2h0.2c1.2,0,2.2,1,2.2,2.2
				C365.7,326.3,364.8,327.3,363.6,327.3z"/>
		</g>
	</g>
</g>
<g>
	<path class="st0" d="M511.2,285H337.4c-10.7,0-19.4-9.1-19.4-20.2v-41.2c0-11.2,8.7-20.2,19.4-20.2h10.3c1.2,0,2.2,1,2.2,2.3
		s-1,2.3-2.2,2.3h-10.3c-8.3,0-15,7-15,15.7v41.2c0,8.7,6.7,15.7,15,15.7h173.7c8.3,0,15-7,15-15.7v-41.2c0-8.7-6.7-15.7-15-15.7
		h-10.8c-1.2,0-2.2-1-2.2-2.3s1-2.3,2.2-2.3h10.8c10.7,0,19.4,9.1,19.4,20.2v41.2C530.5,275.9,521.8,285,511.2,285z"/>
</g>
<g>
	<path class="st0" d="M424.3,257.7c-31.9,0-57.9-26-57.9-57.9s26-57.9,57.9-57.9s57.9,26,57.9,57.9S456.2,257.7,424.3,257.7z
		 M424.3,146.7c-29.3,0-53.1,23.8-53.1,53.1s23.8,53.1,53.1,53.1c29.3,0,53.1-23.8,53.1-53.1S453.6,146.7,424.3,146.7z"/>
</g>
<g>
	<path class="st0" d="M435.7,235.8c-2.7,0-5.6-0.4-8.9-1.5c-10.2-3.4-34.3-14.3-38.3-42.9c-1.4-10.2,4.2-17.1,6.7-19.6
		c0.8-0.8,1.9-1.3,3.1-1.3l0,0c1.2,0,2.3,0.5,3.1,1.3l12,12c1.7,1.7,1.7,4.5,0,6.2l-3.4,3.4c0.1,0.6,0.3,1.6,0.6,2.4v0.1
		c2.7,8.2,9.2,14.8,17.3,17.5l0,0c0.9,0.3,2.1,0.6,2.7,0.7l3.7-3.7c1.7-1.7,4.5-1.7,6.2,0l11.8,11.8c1.6,1.6,1.7,4.2,0.2,5.9
		C450.3,230.7,444.7,235.8,435.7,235.8z M398.3,175.4c-2.5,2.6-6.1,7.9-5,15.3c3.6,25.9,25.7,35.9,35,39c11.2,3.7,17.8-1.6,20.3-4.4
		L437.4,214l-3.8,3.8c-0.6,0.6-1.8,1.8-7.2-0.1c-9.6-3.3-17.2-10.9-20.4-20.6c-1.8-5-0.5-6.4,0-6.9l3.6-3.6L398.3,175.4z M409.9,187
		L409.9,187L409.9,187z M398,175.1L398,175.1L398,175.1z"/>
</g>
<g>
	<path class="st0" d="M440.5,185.5h-13.6c-2.2,0-4-1.8-4-4v-13.6c0-1.1,0.9-1.9,1.9-1.9s1.9,0.9,1.9,1.9v13.6c0,0.1,0.1,0.2,0.2,0.2
		h13.6c1.1,0,1.9,0.9,1.9,1.9C442.4,184.7,441.5,185.5,440.5,185.5z"/>
</g>
<g>
	<path class="st0" d="M449.4,176.6h-13.6c-2.2,0-4-1.8-4-4V159c0-1.1,0.9-1.9,1.9-1.9s1.9,0.9,1.9,1.9v13.6c0,0.1,0.1,0.2,0.2,0.2
		h13.6c1.1,0,1.9,0.9,1.9,1.9C451.3,175.7,450.5,176.6,449.4,176.6z"/>
</g>
<g class="st1">
	<g>
		<path class="st0" d="M424.3,409.3c-98.5,0-178.7-80.1-178.7-178.7S325.8,52,424.3,52S603,132.1,603,230.7S522.8,409.3,424.3,409.3
			z M424.3,58c-95.2,0-172.7,77.5-172.7,172.7s77.5,172.7,172.7,172.7S597,325.9,597,230.7S519.5,58,424.3,58z"/>
	</g>
</g>
<g class="st1">
	<g>
		<path class="st0" d="M363.2,56.4c-0.8,0-1.6-0.1-2.4-0.3c-2.4-0.6-4.4-2.2-5.7-4.4c-1.3-2.2-1.6-4.7-0.9-7.1
			c0.6-2.4,2.2-4.4,4.4-5.7c4.5-2.6,10.2-1,12.8,3.4c2.6,4.5,1,10.2-3.4,12.8C366.5,56,364.9,56.4,363.2,56.4z M363.2,43.6
			c-0.6,0-1.2,0.1-1.7,0.5c-0.8,0.5-1.3,1.2-1.6,2.1c-0.2,0.9-0.1,1.8,0.3,2.6c0.5,0.8,1.2,1.3,2.1,1.6c0.9,0.2,1.8,0.1,2.6-0.3
			c1.6-0.9,2.2-3,1.2-4.6C365.5,44.2,364.4,43.6,363.2,43.6z"/>
	</g>
</g>
<g class="st1">
	<g>
		<path class="st0" d="M390.5,131c-1.2,0-2.5-0.2-3.7-0.5c-3.7-1-6.7-3.3-8.6-6.6c-1.9-3.3-2.4-7.1-1.4-10.8c1-3.7,3.3-6.7,6.6-8.6
			c6.8-3.9,15.5-1.6,19.4,5.2c1.9,3.3,2.4,7.1,1.4,10.8c-1,3.7-3.3,6.7-6.6,8.6C395.4,130.3,393,131,390.5,131z M390.5,108.6
			c-1.4,0-2.8,0.4-4.1,1.1c-1.9,1.1-3.2,2.9-3.8,5s-0.3,4.3,0.8,6.2c1.1,1.9,2.9,3.2,5,3.8c2.1,0.6,4.3,0.3,6.2-0.8l0,0
			c1.9-1.1,3.2-2.9,3.8-5c0.6-2.1,0.3-4.3-0.8-6.2C396,110.1,393.3,108.6,390.5,108.6z"/>
	</g>
</g>
<g class="st1">
	<g>
		<g>
			<path class="st0" d="M617.6,199.7c-9.8,0-17.8-8-17.8-17.8s8-17.8,17.8-17.8s17.8,8,17.8,17.8
				C635.4,191.7,627.4,199.7,617.6,199.7z M617.6,170.1c-6.5,0-11.8,5.3-11.8,11.8s5.3,11.8,11.8,11.8s11.8-5.3,11.8-11.8
				S624.1,170.1,617.6,170.1z"/>
		</g>
	</g>
	<g>
		<g>
			<path class="st0" d="M580.3,120c-5,0-9.1-4.1-9.1-9.1s4.1-9.1,9.1-9.1s9.1,4.1,9.1,9.1S585.3,120,580.3,120z M580.3,107.8
				c-1.7,0-3.1,1.4-3.1,3.1s1.4,3.1,3.1,3.1s3.1-1.4,3.1-3.1S582,107.8,580.3,107.8z"/>
		</g>
	</g>
</g>
<g class="st1">
	<g>
		<path class="st0" d="M535.6,197.8c-7.6,0-13.8-6.2-13.8-13.8s6.2-13.8,13.8-13.8s13.8,6.2,13.8,13.8
			C549.4,191.6,543.2,197.8,535.6,197.8z M535.6,174.8c-5,0-9.2,4.1-9.2,9.2s4.1,9.2,9.2,9.2s9.2-4.1,9.2-9.2
			S540.6,174.8,535.6,174.8z"/>
	</g>
</g>
<g class="st1">
	<g>
		<g>
			<path class="st0" d="M316.2,194c-6.6,0-13.1-3.8-16.1-10.2c-4.2-8.8-0.3-19.4,8.5-23.6s19.4-0.3,23.6,8.5l0,0
				c2,4.3,2.2,9.1,0.6,13.5c-1.6,4.5-4.8,8.1-9.2,10C321.2,193.5,318.7,194,316.2,194z M316.2,164.3c-1.7,0-3.4,0.4-5.1,1.1
				c-6.1,2.8-8.6,10-5.8,16c2.8,6.1,10,8.6,16,5.8c2.9-1.3,5.1-3.8,6.3-6.8c1.1-3,0.9-6.3-0.4-9.2
				C325,166.8,320.6,164.3,316.2,164.3z"/>
		</g>
	</g>
	<g>
		<g>
			<path class="st0" d="M251.9,136.5c-1,0-2.1-0.2-3-0.6c-2.3-0.9-4.1-2.5-5.1-4.6c-2.1-4.5-0.2-9.9,4.4-11.9
				c4.5-2.1,9.9-0.2,11.9,4.4c1,2.2,1.1,4.6,0.3,6.9c-0.9,2.3-2.5,4.1-4.6,5.1C254.6,136.2,253.3,136.5,251.9,136.5z M251.9,124.2
				c-0.5,0-0.9,0.1-1.4,0.3c-1.6,0.8-2.4,2.7-1.6,4.5c0.8,1.6,2.7,2.4,4.5,1.6c0.8-0.4,1.4-1,1.7-1.9c0.3-0.9,0.3-1.7-0.1-2.6
				C254.4,125,253.2,124.2,251.9,124.2z"/>
		</g>
	</g>
</g>
<g class="st1">
	<g>
		<path class="st0" d="M192.2,210.8H95.5c-1.9,0-3.5-1.6-3.5-3.5s1.6-3.5,3.5-3.5h96.6c1.9,0,3.5,1.6,3.5,3.5
			S194.1,210.8,192.2,210.8z"/>
	</g>
</g>
<g class="st1">
	<g>
		<path class="st0" d="M218,301.5h-96.6c-1.9,0-3.5-1.6-3.5-3.5s1.6-3.5,3.5-3.5H218c1.9,0,3.5,1.6,3.5,3.5S219.9,301.5,218,301.5z"
			/>
	</g>
</g>
<g class="st1">
	<g>
		<path class="st0" d="M213.7,258.9H37.2c-1.9,0-3.5-1.6-3.5-3.5s1.6-3.5,3.5-3.5h176.5c1.9,0,3.5,1.6,3.5,3.5
			C217.2,257.4,215.6,258.9,213.7,258.9z"/>
	</g>
</g>
<g>
	<g class="st1">
		<g>
			<path class="st0" d="M754.3,210.8h-96.6c-1.9,0-3.5-1.6-3.5-3.5s1.6-3.5,3.5-3.5h96.6c1.9,0,3.5,1.6,3.5,3.5
				S756.2,210.8,754.3,210.8z"/>
		</g>
	</g>
	<g class="st1">
		<g>
			<path class="st0" d="M728.4,301.5h-96.6c-1.9,0-3.5-1.6-3.5-3.5s1.6-3.5,3.5-3.5h96.6c1.9,0,3.5,1.6,3.5,3.5
				S730.4,301.5,728.4,301.5z"/>
		</g>
	</g>
	<g class="st1">
		<g>
			<path class="st0" d="M812.6,258.9H636.1c-1.9,0-3.5-1.6-3.5-3.5s1.6-3.5,3.5-3.5h176.5c1.9,0,3.5,1.6,3.5,3.5
				C816.1,257.4,814.5,258.9,812.6,258.9z"/>
		</g>
	</g>
</g>
<g class="st1">
	<g>
		<path class="st0" d="M312.9,329.5l-2.1-2.5c-24.2-28.4-36.7-64.7-35.3-102.1c1.4-37.6,16.9-73,43.5-99.6s62-42.1,99.6-43.5
			c37.4-1.4,73.7,11.1,102.1,35.3l2.5,2.1l-2.3,2.3L312.9,329.5z M424.4,87.9c-36.8,0-73.6,14-101.2,41.6
			c-51.5,51.5-55.6,134.8-10,191.1l201-201C488.2,98.4,456.3,87.9,424.4,87.9z"/>
	</g>
	<g>
		<path class="st0" d="M424.3,379.6c-35.4,0-69.4-12.5-96.4-35.4l-2.5-2.1l210.3-210.3l2.1,2.5c24.2,28.4,36.7,64.7,35.3,102.1
			c-1.4,37.6-16.9,73-43.5,99.6c-26.6,26.6-62,42.1-99.6,43.5C428.1,379.5,426.1,379.6,424.3,379.6z M334.3,341.7
			c56.2,45.7,139.5,41.5,191.1-10c51.5-51.5,55.6-134.8,10-191.1L334.3,341.7z"/>
	</g>
</g>
<g>
	
		<rect x="281.6" y="218.7" transform="matrix(0.7071 -0.7071 0.7071 0.7071 -35.7941 368.6277)" class="st2" width="291" height="17.7"/>
</g>
</svg>
