<?xml version="1.0" encoding="utf-8"?>
<!-- Generator: Adobe Illustrator 23.0.1, SVG Export Plug-In . SVG Version: 6.00 Build 0)  -->
<svg version="1.1" id="Layer_1" xmlns="http://www.w3.org/2000/svg" xmlns:xlink="http://www.w3.org/1999/xlink" x="0px" y="0px"
	 viewBox="0 0 849.8 447" style="enable-background:new 0 0 849.8 447;" xml:space="preserve">
<style type="text/css">
	.st0{fill:#004E97;}
	.st1{opacity:0.2;}
	.st2{fill:#FFFFFF;}
</style>
<g>
	<path class="st0" d="M495.9,191.8c-6.1,0-11.1-5-11.1-11.1s5-11.1,11.1-11.1c6.1,0,11.1,5,11.1,11.1S502.1,191.8,495.9,191.8z
		 M495.9,174c-3.7,0-6.7,3-6.7,6.7c0,3.7,3,6.7,6.7,6.7c3.7,0,6.7-3,6.7-6.7C502.6,177,499.6,174,495.9,174z"/>
</g>
<g>
	<path class="st0" d="M346,189.9c-5.3,0-9.6-4.3-9.6-9.6s4.3-9.6,9.6-9.6s9.6,4.3,9.6,9.6S351.4,189.9,346,189.9z M346,175.1
		c-2.9,0-5.2,2.3-5.2,5.2s2.3,5.2,5.2,5.2s5.2-2.3,5.2-5.2S348.9,175.1,346,175.1z"/>
</g>
<g>
	<circle class="st0" cx="374.3" cy="147.5" r="3.1"/>
</g>
<g>
	<circle class="st0" cx="466" cy="136.3" r="3.1"/>
</g>
<g>
	<circle class="st0" cx="418.4" cy="126" r="3.1"/>
</g>
<g>
	<g>
		<path class="st0" d="M449.6,306.9H321.8c-1.2,0-2.2-1-2.2-2.2s1-2.2,2.2-2.2h127.8c1.2,0,2.2,1,2.2,2.2S450.8,306.9,449.6,306.9z"
			/>
	</g>
	<g>
		<path class="st0" d="M493.4,316.2h-70.2c-1.2,0-2.2-1-2.2-2.2c0-1.2,1-2.2,2.2-2.2h70.2c1.2,0,2.2,1,2.2,2.2
			C495.6,315.2,494.6,316.2,493.4,316.2z"/>
	</g>
	<g>
		<path class="st0" d="M526,316.2h-17c-1.2,0-2.2-1-2.2-2.2c0-1.2,1-2.2,2.2-2.2h17c1.2,0,2.2,1,2.2,2.2
			C528.2,315.2,527.3,316.2,526,316.2z"/>
	</g>
	<g>
		<path class="st0" d="M501.8,316.2h-0.2c-1.2,0-2.2-1-2.2-2.2c0-1.2,1-2.2,2.2-2.2h0.2c1.2,0,2.2,1,2.2,2.2
			C504,315.2,503,316.2,501.8,316.2z"/>
	</g>
	<g>
		<g>
			<path class="st0" d="M440.4,325.9h-70.2c-1.2,0-2.2-1-2.2-2.2s1-2.2,2.2-2.2h70.2c1.2,0,2.2,1,2.2,2.2S441.7,325.9,440.4,325.9z"
				/>
		</g>
		<g>
			<path class="st0" d="M362,325.9h-0.2c-1.2,0-2.2-1-2.2-2.2s1-2.2,2.2-2.2h0.2c1.2,0,2.2,1,2.2,2.2S363.2,325.9,362,325.9z"/>
		</g>
	</g>
</g>
<g>
	<path class="st0" d="M512.4,287.9H335.4c-10.9,0-19.7-8.9-19.7-19.7v-44.6c0-10.9,8.9-19.7,19.7-19.7h9.8c1.2,0,2.2,1,2.2,2.2
		c0,1.2-1,2.2-2.2,2.2h-9.8c-8.4,0-15.3,6.9-15.3,15.3v44.6c0,8.4,6.9,15.3,15.3,15.3h177.1c8.4,0,15.3-6.9,15.3-15.3v-44.6
		c0-8.4-6.9-15.3-15.3-15.3h-13.2c-1.2,0-2.2-1-2.2-2.2c0-1.2,1-2.2,2.2-2.2h13.2c10.9,0,19.7,8.9,19.7,19.7v44.6
		C532.2,279,523.3,287.9,512.4,287.9z"/>
</g>
<g>
	<path class="st0" d="M423.9,267.8c-33.3,0-60.3-27.1-60.3-60.3s27.1-60.3,60.3-60.3c33.3,0,60.3,27.1,60.3,60.3
		S457.2,267.8,423.9,267.8z M423.9,152.2c-30.5,0-55.3,24.8-55.3,55.3s24.8,55.3,55.3,55.3s55.3-24.8,55.3-55.3
		S454.4,152.2,423.9,152.2z"/>
</g>
<g>
	<path class="st0" d="M430.3,195.7h-15c-2.7,0-4.8-2.2-4.8-4.8V176c0-1.4,1-2.6,2.4-2.7c1.4-0.1,2.6,1.1,2.6,2.5V190
		c0,0.3,0.3,0.6,0.6,0.6l14,0c1.4,0,2.6,1,2.7,2.4C432.9,194.5,431.8,195.7,430.3,195.7z"/>
</g>
<g>
	<path class="st0" d="M440.3,184h-15c-2.7,0-4.8-2.2-4.8-4.8v-14.8c0-1.4,1-2.6,2.4-2.7c1.4-0.1,2.6,1.1,2.6,2.5v14.1
		c0,0.3,0.3,0.6,0.6,0.6l14,0c1.4,0,2.6,1,2.7,2.4C442.9,182.9,441.7,184,440.3,184z"/>
</g>
<g>
	<g>
		<path class="st0" d="M424.2,218.1l-33.9-30.9c-0.9-0.8-1.2-2.2-0.5-3.2c0.9-1.4,2.7-1.6,3.8-0.6l30.7,27.9l31-27.2
			c1.1-0.9,2.7-0.8,3.6,0.3c0.8,1.1,0.6,2.6-0.4,3.5L424.2,218.1z"/>
	</g>
	<g>
		<path class="st0" d="M457.2,231.9c-0.6,0-1.2-0.2-1.7-0.6L431,209.4c-1-0.9-1.2-2.5-0.4-3.5c0.9-1.1,2.6-1.3,3.6-0.3l24.5,21.9
			c1,0.9,1.2,2.5,0.4,3.6C458.6,231.6,457.9,231.9,457.2,231.9z"/>
	</g>
	<g>
		<path class="st0" d="M391.5,232.7c-0.7,0-1.4-0.3-1.9-0.9c-0.9-1.1-0.6-2.6,0.4-3.6l24.8-22.4c1.1-1,2.7-0.8,3.6,0.3
			c0.9,1.1,0.6,2.6-0.4,3.5l-24.8,22.4C392.7,232.5,392.1,232.7,391.5,232.7z"/>
	</g>
</g>
<g>
	<circle class="st0" cx="68.4" cy="538.3" r="3"/>
</g>
<g class="st1">
	<g>
		<path class="st0" d="M424.3,409.3c-98.5,0-178.7-80.1-178.7-178.7S325.8,52,424.3,52S603,132.1,603,230.7S522.8,409.3,424.3,409.3
			z M424.3,58c-95.2,0-172.7,77.5-172.7,172.7s77.5,172.7,172.7,172.7S597,325.9,597,230.7S519.5,58,424.3,58z"/>
	</g>
</g>
<g class="st1">
	<g>
		<path class="st0" d="M363.2,56.4c-0.8,0-1.6-0.1-2.4-0.3c-2.4-0.6-4.4-2.2-5.7-4.4c-1.3-2.2-1.6-4.7-0.9-7.1
			c0.6-2.4,2.2-4.4,4.4-5.7c4.5-2.6,10.2-1,12.8,3.4c2.6,4.5,1,10.2-3.4,12.8C366.5,56,364.9,56.4,363.2,56.4z M363.2,43.6
			c-0.6,0-1.2,0.1-1.7,0.5c-0.8,0.5-1.3,1.2-1.6,2.1c-0.2,0.9-0.1,1.8,0.3,2.6c0.5,0.8,1.2,1.3,2.1,1.6c0.9,0.2,1.8,0.1,2.6-0.3
			c1.6-0.9,2.2-3,1.2-4.6C365.5,44.2,364.4,43.6,363.2,43.6z"/>
	</g>
</g>
<g class="st1">
	<g>
		<path class="st0" d="M390.5,131c-1.2,0-2.5-0.2-3.7-0.5c-3.7-1-6.7-3.3-8.6-6.6c-1.9-3.3-2.4-7.1-1.4-10.8c1-3.7,3.3-6.7,6.6-8.6
			c6.8-3.9,15.5-1.6,19.4,5.2c1.9,3.3,2.4,7.1,1.4,10.8c-1,3.7-3.3,6.7-6.6,8.6C395.4,130.3,393,131,390.5,131z M390.5,108.6
			c-1.4,0-2.8,0.4-4.1,1.1c-1.9,1.1-3.2,2.9-3.8,5s-0.3,4.3,0.8,6.2c1.1,1.9,2.9,3.2,5,3.8c2.1,0.6,4.3,0.3,6.2-0.8l0,0
			c1.9-1.1,3.2-2.9,3.8-5c0.6-2.1,0.3-4.3-0.8-6.2C396,110.1,393.3,108.6,390.5,108.6z"/>
	</g>
</g>
<g class="st1">
	<g>
		<g>
			<path class="st0" d="M617.6,199.7c-9.8,0-17.8-8-17.8-17.8s8-17.8,17.8-17.8s17.8,8,17.8,17.8
				C635.4,191.7,627.4,199.7,617.6,199.7z M617.6,170.1c-6.5,0-11.8,5.3-11.8,11.8s5.3,11.8,11.8,11.8s11.8-5.3,11.8-11.8
				S624.1,170.1,617.6,170.1z"/>
		</g>
	</g>
	<g>
		<g>
			<path class="st0" d="M580.3,120c-5,0-9.1-4.1-9.1-9.1s4.1-9.1,9.1-9.1s9.1,4.1,9.1,9.1S585.3,120,580.3,120z M580.3,107.8
				c-1.7,0-3.1,1.4-3.1,3.1s1.4,3.1,3.1,3.1s3.1-1.4,3.1-3.1S582,107.8,580.3,107.8z"/>
		</g>
	</g>
</g>
<g class="st1">
	<g>
		<path class="st0" d="M535.6,197.8c-7.6,0-13.8-6.2-13.8-13.8s6.2-13.8,13.8-13.8s13.8,6.2,13.8,13.8
			C549.4,191.6,543.2,197.8,535.6,197.8z M535.6,174.8c-5,0-9.2,4.1-9.2,9.2s4.1,9.2,9.2,9.2s9.2-4.1,9.2-9.2
			S540.6,174.8,535.6,174.8z"/>
	</g>
</g>
<g class="st1">
	<g>
		<g>
			<path class="st0" d="M316.2,194c-6.6,0-13.1-3.8-16.1-10.2c-4.2-8.8-0.3-19.4,8.5-23.6s19.4-0.3,23.6,8.5l0,0
				c2,4.3,2.2,9.1,0.6,13.5c-1.6,4.5-4.8,8.1-9.2,10C321.2,193.5,318.7,194,316.2,194z M316.2,164.3c-1.7,0-3.4,0.4-5.1,1.1
				c-6.1,2.8-8.6,10-5.8,16c2.8,6.1,10,8.6,16,5.8c2.9-1.3,5.1-3.8,6.3-6.8c1.1-3,0.9-6.3-0.4-9.2
				C325,166.8,320.6,164.3,316.2,164.3z"/>
		</g>
	</g>
	<g>
		<g>
			<path class="st0" d="M251.9,136.5c-1,0-2.1-0.2-3-0.6c-2.3-0.9-4.1-2.5-5.1-4.6c-2.1-4.5-0.2-9.9,4.4-11.9
				c4.5-2.1,9.9-0.2,11.9,4.4c1,2.2,1.1,4.6,0.3,6.9c-0.9,2.3-2.5,4.1-4.6,5.1C254.6,136.2,253.3,136.5,251.9,136.5z M251.9,124.2
				c-0.5,0-0.9,0.1-1.4,0.3c-1.6,0.8-2.4,2.7-1.6,4.5c0.8,1.6,2.7,2.4,4.5,1.6c0.8-0.4,1.4-1,1.7-1.9c0.3-0.9,0.3-1.7-0.1-2.6
				C254.4,125,253.2,124.2,251.9,124.2z"/>
		</g>
	</g>
</g>
<g class="st1">
	<g>
		<path class="st0" d="M192.2,210.8H95.5c-1.9,0-3.5-1.6-3.5-3.5s1.6-3.5,3.5-3.5h96.6c1.9,0,3.5,1.6,3.5,3.5
			S194.1,210.8,192.2,210.8z"/>
	</g>
</g>
<g class="st1">
	<g>
		<path class="st0" d="M218,301.5h-96.6c-1.9,0-3.5-1.6-3.5-3.5s1.6-3.5,3.5-3.5H218c1.9,0,3.5,1.6,3.5,3.5S219.9,301.5,218,301.5z"
			/>
	</g>
</g>
<g class="st1">
	<g>
		<path class="st0" d="M213.7,258.9H37.2c-1.9,0-3.5-1.6-3.5-3.5s1.6-3.5,3.5-3.5h176.5c1.9,0,3.5,1.6,3.5,3.5
			C217.2,257.4,215.6,258.9,213.7,258.9z"/>
	</g>
</g>
<g>
	<g class="st1">
		<g>
			<path class="st0" d="M754.3,210.8h-96.6c-1.9,0-3.5-1.6-3.5-3.5s1.6-3.5,3.5-3.5h96.6c1.9,0,3.5,1.6,3.5,3.5
				S756.2,210.8,754.3,210.8z"/>
		</g>
	</g>
	<g class="st1">
		<g>
			<path class="st0" d="M728.4,301.5h-96.6c-1.9,0-3.5-1.6-3.5-3.5s1.6-3.5,3.5-3.5h96.6c1.9,0,3.5,1.6,3.5,3.5
				S730.4,301.5,728.4,301.5z"/>
		</g>
	</g>
	<g class="st1">
		<g>
			<path class="st0" d="M812.6,258.9H636.1c-1.9,0-3.5-1.6-3.5-3.5s1.6-3.5,3.5-3.5h176.5c1.9,0,3.5,1.6,3.5,3.5
				C816.1,257.4,814.5,258.9,812.6,258.9z"/>
		</g>
	</g>
</g>
<g>
	<path class="st0" d="M452.2,179l-2.8,0.1c-1.4,0-2.5,1.1-2.5,2.5l0,0c0,1.4,1.1,2.5,2.6,2.5l2.8-0.1c2.1,0,3.8,1.7,3.8,3.8v39.4
		c0,2.1-1.7,3.8-3.8,3.8h-56.6c-2.1,0-3.8-1.7-3.8-3.8v-39.4c0-2.1,1.7-3.8,3.8-3.8h8.5c1.5,0,2.6-1.3,2.5-2.8
		c-0.1-1.3-1.3-2.3-2.6-2.3h-8.4c-4.9,0-8.8,3.9-8.8,8.8v39.4c0,4.9,3.9,8.8,8.8,8.8h56.6c4.9,0,8.8-3.9,8.8-8.8v-39.4
		C461,182.9,457.1,179,452.2,179z"/>
</g>
<g class="st1">
	<g>
		<path class="st0" d="M312.9,329.5l-2.1-2.5c-24.2-28.4-36.7-64.7-35.3-102.1c1.4-37.6,16.9-73,43.5-99.6s62-42.1,99.6-43.5
			c37.4-1.4,73.7,11.1,102.1,35.3l2.5,2.1l-2.3,2.3L312.9,329.5z M424.4,87.9c-36.8,0-73.6,14-101.2,41.6
			c-51.5,51.5-55.6,134.8-10,191.1l201-201C488.2,98.4,456.3,87.9,424.4,87.9z"/>
	</g>
	<g>
		<path class="st0" d="M424.3,379.6c-35.4,0-69.4-12.5-96.4-35.4l-2.5-2.1l210.3-210.3l2.1,2.5c24.2,28.4,36.7,64.7,35.3,102.1
			c-1.4,37.6-16.9,73-43.5,99.6c-26.6,26.6-62,42.1-99.6,43.5C428.1,379.5,426.1,379.6,424.3,379.6z M334.3,341.7
			c56.2,45.7,139.5,41.5,191.1-10c51.5-51.5,55.6-134.8,10-191.1L334.3,341.7z"/>
	</g>
</g>
<g>
	
		<rect x="281.6" y="218.7" transform="matrix(0.7071 -0.7071 0.7071 0.7071 -35.827 368.623)" class="st2" width="291" height="17.7"/>
</g>
</svg>
