<?xml version="1.0" encoding="utf-8"?>
<!-- Generator: Adobe Illustrator 23.0.1, SVG Export Plug-In . SVG Version: 6.00 Build 0)  -->
<svg version="1.1" id="Layer_1" xmlns="http://www.w3.org/2000/svg" xmlns:xlink="http://www.w3.org/1999/xlink" x="0px" y="0px"
	 viewBox="0 0 849.8 447" style="enable-background:new 0 0 849.8 447;" xml:space="preserve">
<style type="text/css">
	.st0{fill:#004E97;}
	.st1{opacity:0.2;}
	.st2{fill:#FFFFFF;}
</style>
<g>
	<g>
		<path class="st0" d="M502.7,165.6c-5.8,0-10.5-4.7-10.5-10.5c0-5.8,4.7-10.5,10.5-10.5s10.5,4.7,10.5,10.5
			C513.2,160.9,508.5,165.6,502.7,165.6z M502.7,148.8c-3.5,0-6.3,2.8-6.3,6.3c0,3.5,2.8,6.3,6.3,6.3c3.5,0,6.3-2.8,6.3-6.3
			C509,151.6,506.2,148.8,502.7,148.8z"/>
	</g>
	<g>
		<path class="st0" d="M367.9,168c-5,0-9.1-4.1-9.1-9.1c0-5,4.1-9.1,9.1-9.1c5,0,9.1,4.1,9.1,9.1C376.9,163.9,372.9,168,367.9,168z
			 M367.9,154c-2.7,0-4.9,2.2-4.9,4.9c0,2.7,2.2,4.9,4.9,4.9c2.7,0,4.9-2.2,4.9-4.9C372.8,156.2,370.6,154,367.9,154z"/>
	</g>
	<g>
		<circle class="st0" cx="397.4" cy="152.2" r="2.9"/>
	</g>
	<g>
		<circle class="st0" cx="461.8" cy="143.7" r="2.9"/>
	</g>
	<g>
		<circle class="st0" cx="417.1" cy="128" r="2.9"/>
	</g>
	<g>
		<g>
			<g>
				<path class="st0" d="M475.7,253.6C475.7,253.6,475.7,253.6,475.7,253.6l-87.2-0.7c-3,0-5.8-1.5-7.5-3.9c-1.7-2.4-2-5.3-1-8
					l0.1-0.2l11-16.8c0.1-0.4,0.2-0.9,0.2-1.3l0-0.1l0-0.1c1.6-11.4,4.2-30.1,4.3-31.7c0.1-16.5,14.6-29,29.3-33.4l0.1-9.1
					c0.1-7.2,4.2-11.7,10.8-11.7c0,0,0,0,0,0c2.6,0,5,1,6.8,2.8c2.3,2.3,3.5,5.6,3.5,9.4l-0.1,9.5c4.4,1.8,11.2,5.2,15.4,10.2
					l-3.2,2.7c-2.9-3.5-8.4-7-15.1-9.6l-1.5-0.6l0.1-1.6c0-0.2,0-0.4,0-0.6l0.1-10.2c0-2.6-0.8-5-2.2-6.4c-1-1.1-2.4-1.6-3.8-1.6
					c0,0,0,0,0,0c-5.7,0-6.6,4.8-6.7,7.6l-0.1,12.3l-1.6,0.4c-13.7,3.5-27.6,14.9-27.7,29.8c0,2.1-3.5,26.8-4.3,32.1
					c0,1-0.2,1.9-0.5,2.8l-0.1,0.2l-11,16.8c-0.4,1.4-0.2,2.8,0.6,4c0.9,1.3,2.4,2.1,4.1,2.1l87.1,0.7c0,0,0,0,0,0
					c1.7,0,3.2-0.8,4.1-2.1c0.8-1.2,1.1-2.6,0.7-4l-10.8-17l-0.1-0.2c-0.3-0.9-0.5-1.9-0.5-2.8c-0.2-1.6-2.3-18.2-3.3-26.8l4.2-0.5
					c1,9,3.3,26.7,3.3,26.9l0,0.1l0,0.1c0,0.5,0.1,0.9,0.2,1.3l10.8,17l0.1,0.2c1,2.7,0.5,5.7-1.2,8
					C481.5,252.1,478.7,253.6,475.7,253.6z"/>
			</g>
		</g>
		<g>
			<g>
				<path class="st0" d="M432.2,267.7c0,0-0.1,0-0.1,0c-8.7-0.1-15.7-7.8-15.7-17.3l4.2,0c-0.1,7.2,5.1,13,11.5,13.1
					c6.4,0.1,11.7-5.7,11.7-12.9l4.2,0C447.9,260.1,440.8,267.7,432.2,267.7z"/>
			</g>
		</g>
		<g>
			<g>
				<path class="st0" d="M431.8,306.5c-2.4,0-4.7-0.9-6.6-2.7l-18.8-18.8h-56.8c-10.4,0-18.8-8.4-18.8-18.8v-70.9
					c0-10.4,8.4-18.8,18.8-18.8h41.7c1.2,0,2.1,0.9,2.1,2.1s-0.9,2.1-2.1,2.1h-41.7c-8.1,0-14.6,6.6-14.6,14.6v70.9
					c0,8.1,6.6,14.6,14.6,14.6h58.5l20.1,20.1c2,2,5.2,2,7.2,0l20.1-20.1H514c8.1,0,14.6-6.6,14.6-14.6v-70.9
					c0-8.1-6.6-14.6-14.6-14.6h-25.7c-1.2,0-2.1-0.9-2.1-2.1s0.9-2.1,2.1-2.1H514c10.4,0,18.8,8.4,18.8,18.8v70.9
					c0,10.4-8.4,18.8-18.8,18.8h-56.8l-18.8,18.8C436.5,305.6,434.2,306.5,431.8,306.5z"/>
			</g>
		</g>
		<g>
			<g>
				<g>
					<path class="st0" d="M464.4,169.7c6.4,0,11.6,5.2,11.6,11.6s-5.2,11.6-11.6,11.6s-11.6-5.2-11.6-11.6S458,169.7,464.4,169.7
						 M464.4,165.5c-8.7,0-15.8,7.1-15.8,15.8c0,8.7,7.1,15.8,15.8,15.8s15.8-7.1,15.8-15.8C480.2,172.6,473.1,165.5,464.4,165.5
						L464.4,165.5z"/>
				</g>
			</g>
		</g>
		<g>
			<g>
				<path class="st0" d="M427.2,222.1h-32c-1.2,0-2.1-0.9-2.1-2.1s0.9-2.1,2.1-2.1h32c1.2,0,2.1,0.9,2.1,2.1
					S428.4,222.1,427.2,222.1z"/>
			</g>
		</g>
		<g>
			<g>
				<path class="st0" d="M468.2,206.3h-70c-1.2,0-2.1-0.9-2.1-2.1s0.9-2.1,2.1-2.1h70c1.2,0,2.1,0.9,2.1,2.1
					S469.4,206.3,468.2,206.3z"/>
			</g>
		</g>
	</g>
	<g>
		<path class="st0" d="M455.6,320.3H335.1c-1.2,0-2.1-0.9-2.1-2.1s0.9-2.1,2.1-2.1h120.4c1.2,0,2.1,0.9,2.1,2.1
			S456.7,320.3,455.6,320.3z"/>
	</g>
	<g>
		<path class="st0" d="M496.8,329h-66.2c-1.2,0-2.1-0.9-2.1-2.1s0.9-2.1,2.1-2.1h66.2c1.2,0,2.1,0.9,2.1,2.1S498,329,496.8,329z"/>
	</g>
	<g>
		<path class="st0" d="M527.6,329h-16c-1.2,0-2.1-0.9-2.1-2.1s0.9-2.1,2.1-2.1h16c1.2,0,2.1,0.9,2.1,2.1S528.7,329,527.6,329z"/>
	</g>
	<g>
		<path class="st0" d="M504.7,329h-0.2c-1.2,0-2.1-0.9-2.1-2.1s0.9-2.1,2.1-2.1h0.2c1.2,0,2.1,0.9,2.1,2.1S505.9,329,504.7,329z"/>
	</g>
	<g>
		<g>
			<path class="st0" d="M446.9,338.1h-66.2c-1.2,0-2.1-0.9-2.1-2.1s0.9-2.1,2.1-2.1h66.2c1.2,0,2.1,0.9,2.1,2.1
				S448.1,338.1,446.9,338.1z"/>
		</g>
		<g>
			<path class="st0" d="M373,338.1h-0.2c-1.2,0-2.1-0.9-2.1-2.1s0.9-2.1,2.1-2.1h0.2c1.2,0,2.1,0.9,2.1,2.1S374.2,338.1,373,338.1z"
				/>
		</g>
	</g>
</g>
<g class="st1">
	<g>
		<path class="st0" d="M425.8,410.3c-98.5,0-178.7-80.1-178.7-178.7S327.3,53,425.8,53c98.5,0,178.7,80.1,178.7,178.7
			S524.3,410.3,425.8,410.3z M425.8,59c-95.2,0-172.7,77.5-172.7,172.7s77.5,172.7,172.7,172.7s172.7-77.5,172.7-172.7
			S521,59,425.8,59z"/>
	</g>
</g>
<g>
	<circle class="st2" cx="284.1" cy="226.5" r="19.7"/>
</g>
<g class="st1">
	<g>
		<path class="st0" d="M364.7,57.4c-0.8,0-1.6-0.1-2.4-0.3c-2.4-0.6-4.4-2.2-5.7-4.4c-1.3-2.2-1.6-4.7-0.9-7.1
			c0.6-2.4,2.2-4.4,4.4-5.7c4.5-2.6,10.2-1,12.8,3.4c2.6,4.5,1,10.2-3.4,12.8C368,57,366.4,57.4,364.7,57.4z M364.7,44.6
			c-0.6,0-1.2,0.1-1.7,0.5c-0.8,0.5-1.3,1.2-1.6,2.1c-0.2,0.9-0.1,1.8,0.3,2.6c0.5,0.8,1.2,1.3,2.1,1.6c0.9,0.2,1.8,0.1,2.6-0.3
			c1.6-0.9,2.2-3,1.2-4.6C367,45.2,365.9,44.6,364.7,44.6z"/>
	</g>
</g>
<g class="st1">
	<g>
		<path class="st0" d="M410.9,129.4c-1.2,0-2.5-0.2-3.7-0.5c-3.7-1-6.7-3.3-8.6-6.6c-1.9-3.3-2.4-7.1-1.4-10.8
			c1-3.7,3.3-6.7,6.6-8.6c6.8-3.9,15.5-1.6,19.4,5.2c1.9,3.3,2.4,7.1,1.4,10.8c-1,3.7-3.3,6.7-6.6,8.6
			C415.8,128.7,413.4,129.4,410.9,129.4z M410.9,107c-1.4,0-2.8,0.4-4.1,1.1c-1.9,1.1-3.2,2.9-3.8,5s-0.3,4.3,0.8,6.2
			c1.1,1.9,2.9,3.2,5,3.8c2.1,0.6,4.3,0.3,6.2-0.8l0,0c1.9-1.1,3.2-2.9,3.8-5c0.6-2.1,0.3-4.3-0.8-6.2
			C416.4,108.5,413.7,107,410.9,107z"/>
	</g>
</g>
<g>
	<circle class="st2" cx="311.4" cy="153" r="11.2"/>
</g>
<g class="st1">
	<g>
		<g>
			<path class="st0" d="M619.1,200.7c-9.8,0-17.8-8-17.8-17.8c0-9.8,8-17.8,17.8-17.8s17.8,8,17.8,17.8
				C636.9,192.7,628.9,200.7,619.1,200.7z M619.1,171.1c-6.5,0-11.8,5.3-11.8,11.8s5.3,11.8,11.8,11.8s11.8-5.3,11.8-11.8
				S625.6,171.1,619.1,171.1z"/>
		</g>
	</g>
	<g>
		<g>
			<path class="st0" d="M581.8,121c-5,0-9.1-4.1-9.1-9.1s4.1-9.1,9.1-9.1c5,0,9.1,4.1,9.1,9.1S586.8,121,581.8,121z M581.8,108.8
				c-1.7,0-3.1,1.4-3.1,3.1s1.4,3.1,3.1,3.1s3.1-1.4,3.1-3.1S583.5,108.8,581.8,108.8z"/>
		</g>
	</g>
</g>
<g>
	<g>
		<path class="st0" d="M547.4,197.8c-0.1,0-0.2,0-0.3,0c-1-0.1-1.9-0.6-2.6-1.3c-1.4-1.6-1.1-4,0.5-5.4c0.8-0.7,1.8-1,2.8-0.9
			c1,0.1,1.9,0.6,2.6,1.3c0.7,0.8,1,1.8,0.9,2.8c-0.1,1-0.6,1.9-1.3,2.6l0,0C549.2,197.5,548.3,197.8,547.4,197.8z M547.4,192.2
			c-0.4,0-0.8,0.1-1.2,0.4c-0.8,0.6-0.9,1.8-0.2,2.5c0.3,0.4,0.7,0.6,1.2,0.6c0.5,0,1-0.1,1.3-0.4h0c0.4-0.3,0.6-0.7,0.6-1.2
			c0-0.5-0.1-1-0.4-1.3c-0.3-0.4-0.7-0.6-1.2-0.6C547.5,192.2,547.5,192.2,547.4,192.2z"/>
	</g>
</g>
<g class="st1">
	<g>
		<g>
			<path class="st0" d="M308.1,234.6c-7,0-13.8-4-17-10.8c-4.4-9.3-0.3-20.5,9-24.9c9.3-4.4,20.5-0.3,24.9,9v0
				c2.1,4.5,2.3,9.6,0.6,14.3s-5.1,8.5-9.7,10.6C313.4,234,310.8,234.6,308.1,234.6z M308.1,203.2c-1.8,0-3.6,0.4-5.4,1.2
				c-6.4,3-9.1,10.6-6.1,16.9c3,6.4,10.6,9.1,16.9,6.1c3.1-1.4,5.4-4,6.6-7.2s1-6.6-0.4-9.7C317.4,205.9,312.8,203.2,308.1,203.2z"
				/>
		</g>
	</g>
	<g>
		<g>
			<path class="st0" d="M240.3,173.9c-1.1,0-2.2-0.2-3.2-0.6c-2.4-0.9-4.3-2.6-5.4-4.9c-2.2-4.7-0.2-10.4,4.6-12.6
				c4.7-2.2,10.4-0.2,12.6,4.6c1.1,2.3,1.2,4.9,0.3,7.3s-2.6,4.3-4.9,5.4C243.1,173.6,241.7,173.9,240.3,173.9z M240.3,160.9
				c-0.5,0-1,0.1-1.5,0.3c-1.7,0.8-2.5,2.9-1.7,4.7c0.8,1.7,2.9,2.5,4.7,1.7c0.8-0.4,1.5-1.1,1.8-2c0.3-0.9,0.3-1.8-0.1-2.7
				C242.9,161.7,241.6,160.9,240.3,160.9z"/>
		</g>
	</g>
</g>
<g class="st1">
	<g>
		<path class="st0" d="M193.7,211.8H97c-1.9,0-3.5-1.6-3.5-3.5s1.6-3.5,3.5-3.5h96.6c1.9,0,3.5,1.6,3.5,3.5S195.6,211.8,193.7,211.8
			z"/>
	</g>
</g>
<g class="st1">
	<g>
		<path class="st0" d="M219.5,302.5h-96.6c-1.9,0-3.5-1.6-3.5-3.5s1.6-3.5,3.5-3.5h96.6c1.9,0,3.5,1.6,3.5,3.5
			S221.4,302.5,219.5,302.5z"/>
	</g>
</g>
<g class="st1">
	<g>
		<path class="st0" d="M215.2,259.9H38.7c-1.9,0-3.5-1.6-3.5-3.5c0-1.9,1.6-3.5,3.5-3.5h176.5c1.9,0,3.5,1.6,3.5,3.5
			C218.7,258.4,217.1,259.9,215.2,259.9z"/>
	</g>
</g>
<g>
	<g class="st1">
		<g>
			<path class="st0" d="M755.8,211.8h-96.6c-1.9,0-3.5-1.6-3.5-3.5s1.6-3.5,3.5-3.5h96.6c1.9,0,3.5,1.6,3.5,3.5
				S757.7,211.8,755.8,211.8z"/>
		</g>
	</g>
	<g class="st1">
		<g>
			<path class="st0" d="M729.9,302.5h-96.6c-1.9,0-3.5-1.6-3.5-3.5s1.6-3.5,3.5-3.5h96.6c1.9,0,3.5,1.6,3.5,3.5
				S731.9,302.5,729.9,302.5z"/>
		</g>
	</g>
	<g class="st1">
		<g>
			<path class="st0" d="M814.1,259.9H637.6c-1.9,0-3.5-1.6-3.5-3.5c0-1.9,1.6-3.5,3.5-3.5h176.5c1.9,0,3.5,1.6,3.5,3.5
				C817.6,258.4,816,259.9,814.1,259.9z"/>
		</g>
	</g>
</g>
<g class="st1">
	<g>
		<path class="st0" d="M314.4,330.5l-2.1-2.5c-24.2-28.4-36.7-64.7-35.3-102.1c1.4-37.6,16.9-73,43.5-99.6
			c26.6-26.6,62-42.1,99.6-43.5c37.4-1.4,73.7,11.1,102.1,35.3l2.5,2.1l-2.3,2.3L314.4,330.5z M425.9,88.9
			c-36.8,0-73.6,14-101.2,41.6c-51.5,51.5-55.6,134.8-10,191.1l201-201C489.7,99.4,457.8,88.9,425.9,88.9z"/>
	</g>
	<g>
		<path class="st0" d="M425.8,380.6c-35.4,0-69.4-12.5-96.4-35.4l-2.5-2.1l210.3-210.3l2.1,2.5c24.2,28.4,36.7,64.7,35.3,102.1
			c-1.4,37.6-16.9,73-43.5,99.6c-26.6,26.6-62,42.1-99.6,43.5C429.6,380.5,427.6,380.6,425.8,380.6z M335.8,342.7
			c56.2,45.7,139.5,41.5,191.1-10c51.5-51.5,55.6-134.8,10-191.1L335.8,342.7z"/>
	</g>
</g>
<g>
	
		<rect x="414.7" y="88.4" transform="matrix(0.7071 0.7071 -0.7071 0.7071 289.4523 -230.9888)" class="st2" width="17.7" height="291"/>
</g>
</svg>
