<?xml version="1.0" encoding="utf-8"?>
<!-- Generator: Adobe Illustrator 23.0.1, SVG Export Plug-In . SVG Version: 6.00 Build 0)  -->
<svg version="1.1" id="Layer_1" xmlns="http://www.w3.org/2000/svg" xmlns:xlink="http://www.w3.org/1999/xlink" x="0px" y="0px"
	 viewBox="0 0 50 50" style="enable-background:new 0 0 50 50;" xml:space="preserve">
<style type="text/css">
	.st0{fill:#01B050;}
</style>
<g>
	<path class="st0" d="M41.5,27.4c-0.8-0.1-1.6,0.5-1.8,1.2c-0.1,0.2-0.1,0.3-0.1,0.5c0.4,0,0.7,0,1,0l0,0V29
		c0.1-0.3,0.3-0.5,0.6-0.6s0.6,0,0.8,0.3c0.2,0.2,0.2,0.5,0.1,0.8c-0.1,0.3-0.4,0.4-0.7,0.4c-0.2,0-0.3,0-0.5,0c0,0.5,0,1,0,1.4
		c0.3,0,0.7,0,1,0c0-0.1,0-0.2,0-0.3c0-0.1,0-0.2,0.1-0.2c0.8-0.3,1.2-1.1,1.1-1.9C43,28,42.3,27.4,41.5,27.4z"/>
	<path class="st0" d="M40.9,32.8c0.3,0,0.7,0,1,0c0-0.3,0-0.6,0-0.8c-0.3,0-0.7,0-1,0C40.9,32.3,40.9,32.5,40.9,32.8z"/>
	<path class="st0" d="M31.4,22.5c-0.5,0-0.9,0.4-0.9,0.9v15.3c0,1.7-1.4,3.1-3.1,3.1H14.1l-5.2,4.7v-4.7H5.5c-1.7,0-3.1-1.4-3.1-3.1
		V17.8c0-1.7,1.4-3.1,3.1-3.1h11c0.5,0,0.9-0.4,0.9-0.9s-0.4-0.9-0.9-0.9h-11c-2.7,0-4.8,2.2-4.8,4.8v20.9c0,2.7,2.2,4.8,4.8,4.8
		h1.7v3.3c0,0.6,0.4,1.1,0.9,1.4c0.2,0.1,0.4,0.1,0.7,0.1c0.4,0,0.8-0.1,1.1-0.4l4.8-4.4h12.7c2.7,0,4.8-2.2,4.8-4.8V23.3
		C32.2,22.8,31.8,22.5,31.4,22.5z"/>
	<path class="st0" d="M21.4,21.8H24v3c0,0.5,0.3,0.9,0.8,1.1C25,26,25.2,26,25.3,26c0.3,0,0.6-0.1,0.9-0.4l4-3.9H36
		c1.7,0,3.1-1.4,3.1-3.2V6.2C39.2,4.4,37.8,3,36,3H21.4c-1.7,0-3.1,1.4-3.1,3.2v12.4C18.2,20.4,19.7,21.8,21.4,21.8z M20,6.2
		c0-0.8,0.6-1.5,1.4-1.5H36c0.8,0,1.4,0.7,1.4,1.5v12.4c0,0.8-0.6,1.5-1.4,1.5h-6.5l-3.8,3.7v-3.7h-4.4c-0.8,0-1.4-0.7-1.4-1.5
		L20,6.2L20,6.2z"/>
	<path class="st0" d="M46.7,23.3H36.3c-1.4,0-2.5,1.1-2.5,2.5v8.7c0,1.4,1.1,2.5,2.5,2.5h4l2.8,2.7c0.2,0.2,0.5,0.3,0.8,0.3
		c0.2,0,0.3,0,0.5-0.1c0.4-0.2,0.7-0.6,0.7-1v-1.8h1.6c1.4,0,2.5-1.1,2.5-2.5v-8.7C49,24.4,47.9,23.3,46.7,23.3z M47.3,34.5
		c0,0.4-0.3,0.8-0.8,0.8h-3.3v2.2l-2.3-2.2h-4.7c-0.4,0-0.8-0.4-0.8-0.8v-8.7c0-0.4,0.3-0.8,0.8-0.8h10.3c0.4,0,0.8,0.4,0.8,0.8
		V34.5z"/>
	<path class="st0" d="M27.5,10.9c0-0.1,0-0.1,0-0.2c0.1-0.5,0.4-0.8,0.8-0.9c0.5-0.1,0.9,0,1.2,0.4s0.3,0.8,0.1,1.2s-0.5,0.6-1,0.7
		c-0.3,0-0.5,0-0.8,0c0,0.7,0,1.4,0,2.2c0.5,0,1,0,1.5,0c0-0.2,0-0.3,0-0.5s0-0.2,0.2-0.3c1.2-0.5,1.9-1.7,1.7-2.9S30,8.4,28.7,8.3
		C27.5,8.2,26.3,9,26,10.2c-0.1,0.2-0.1,0.5-0.2,0.8C26.5,10.9,27,10.9,27.5,10.9L27.5,10.9z"/>
	<path class="st0" d="M27.9,16.5c0.5,0,1,0,1.5,0c0-0.4,0-0.9,0-1.3c-0.5,0-1,0-1.5,0C27.9,15.7,27.9,16.1,27.9,16.5z"/>
	<path class="st0" d="M17.9,31.7c1.8-0.7,2.8-2.5,2.5-4.3c-0.3-1.8-1.8-3.3-3.7-3.4c-1.8-0.1-3.5,1-4.1,2.8
		c-0.1,0.4-0.2,0.8-0.2,1.2c0.8,0,1.6,0,2.3,0l0,0c0-0.1,0-0.2,0-0.2c0.1-0.7,0.6-1.2,1.3-1.3c0.7-0.2,1.3,0,1.8,0.6
		c0.4,0.5,0.5,1.2,0.2,1.8c-0.3,0.6-0.8,1-1.5,1c-0.4,0-0.8,0-1.2,0c0,1.1,0,2.2,0,3.2c0.8,0,1.5,0,2.3,0c0-0.3,0-0.5,0-0.8
		C17.7,31.9,17.7,31.8,17.9,31.7z"/>
	<path class="st0" d="M17.7,36.3c0-0.7,0-1.3,0-1.9c-0.8,0-1.5,0-2.2,0c0,0.6,0,1.3,0,1.9C16.2,36.3,16.8,36.3,17.7,36.3z"/>
	<path class="st0" d="M7.3,8.6H9v1.6c0,0.5,0.4,0.9,0.9,0.9s0.9-0.4,0.9-0.9V8.6h1.6c0.5,0,0.9-0.4,0.9-0.9s-0.4-0.9-0.9-0.9h-1.6
		V5.3c0-0.5-0.4-0.9-0.9-0.9S9,4.8,9,5.3v1.6H7.3c-0.5,0-0.9,0.4-0.9,0.9S6.8,8.6,7.3,8.6z"/>
	<path class="st0" d="M13.2,4.5h0.6v0.6c0,0.4,0.3,0.7,0.7,0.7s0.7-0.3,0.7-0.7V4.5h0.6c0.4,0,0.7-0.3,0.7-0.7s-0.3-0.7-0.7-0.7
		h-0.6V2.6c0-0.4-0.3-0.7-0.7-0.7s-0.7,0.3-0.7,0.7v0.6h-0.6c-0.4,0-0.7,0.3-0.7,0.7C12.5,4.3,12.8,4.5,13.2,4.5z"/>
</g>
</svg>
