<?xml version="1.0" encoding="utf-8"?>
<!-- Generator: Adobe Illustrator 23.0.1, SVG Export Plug-In . SVG Version: 6.00 Build 0)  -->
<svg version="1.1" id="Layer_1" xmlns="http://www.w3.org/2000/svg" xmlns:xlink="http://www.w3.org/1999/xlink" x="0px" y="0px"
	 viewBox="0 0 849.8 447" style="enable-background:new 0 0 849.8 447;" xml:space="preserve">
<style type="text/css">
	.st0{opacity:0.2;}
	.st1{fill:#004E97;}
	.st2{fill:#FFFFFF;}
</style>
<g class="st0">
	<g>
		<path class="st1" d="M425.8,410.3c-98.5,0-178.7-80.1-178.7-178.7S327.3,53,425.8,53c98.5,0,178.7,80.1,178.7,178.7
			S524.3,410.3,425.8,410.3z M425.8,59c-95.2,0-172.7,77.5-172.7,172.7s77.5,172.7,172.7,172.7s172.7-77.5,172.7-172.7
			S521,59,425.8,59z"/>
	</g>
</g>
<g>
	<circle class="st2" cx="284.1" cy="226.5" r="19.7"/>
</g>
<g class="st0">
	<g>
		<path class="st1" d="M364.7,57.4c-0.8,0-1.6-0.1-2.4-0.3c-2.4-0.6-4.4-2.2-5.7-4.4c-1.3-2.2-1.6-4.7-0.9-7.1
			c0.6-2.4,2.2-4.4,4.4-5.7c4.5-2.6,10.2-1,12.8,3.4c2.6,4.5,1,10.2-3.4,12.8C368,57,366.4,57.4,364.7,57.4z M364.7,44.6
			c-0.6,0-1.2,0.1-1.7,0.5c-0.8,0.5-1.3,1.2-1.6,2.1c-0.2,0.9-0.1,1.8,0.3,2.6c0.5,0.8,1.2,1.3,2.1,1.6c0.9,0.2,1.8,0.1,2.6-0.3
			c1.6-0.9,2.2-3,1.2-4.6C367,45.2,365.9,44.6,364.7,44.6z"/>
	</g>
</g>
<g class="st0">
	<g>
		<path class="st1" d="M410.9,129.4c-1.2,0-2.5-0.2-3.7-0.5c-3.7-1-6.7-3.3-8.6-6.6c-1.9-3.3-2.4-7.1-1.4-10.8
			c1-3.7,3.3-6.7,6.6-8.6c6.8-3.9,15.5-1.6,19.4,5.2c1.9,3.3,2.4,7.1,1.4,10.8c-1,3.7-3.3,6.7-6.6,8.6
			C415.8,128.7,413.4,129.4,410.9,129.4z M410.9,107c-1.4,0-2.8,0.4-4.1,1.1c-1.9,1.1-3.2,2.9-3.8,5s-0.3,4.3,0.8,6.2
			c1.1,1.9,2.9,3.2,5,3.8c2.1,0.6,4.3,0.3,6.2-0.8l0,0c1.9-1.1,3.2-2.9,3.8-5c0.6-2.1,0.3-4.3-0.8-6.2
			C416.4,108.5,413.7,107,410.9,107z"/>
	</g>
</g>
<g>
	<circle class="st2" cx="311.4" cy="153" r="11.2"/>
</g>
<g class="st0">
	<g>
		<g>
			<path class="st1" d="M619.1,200.7c-9.8,0-17.8-8-17.8-17.8c0-9.8,8-17.8,17.8-17.8s17.8,8,17.8,17.8
				C636.9,192.7,628.9,200.7,619.1,200.7z M619.1,171.1c-6.5,0-11.8,5.3-11.8,11.8s5.3,11.8,11.8,11.8s11.8-5.3,11.8-11.8
				S625.6,171.1,619.1,171.1z"/>
		</g>
	</g>
	<g>
		<g>
			<path class="st1" d="M581.8,121c-5,0-9.1-4.1-9.1-9.1s4.1-9.1,9.1-9.1c5,0,9.1,4.1,9.1,9.1S586.8,121,581.8,121z M581.8,108.8
				c-1.7,0-3.1,1.4-3.1,3.1s1.4,3.1,3.1,3.1s3.1-1.4,3.1-3.1S583.5,108.8,581.8,108.8z"/>
		</g>
	</g>
</g>
<g class="st0">
	<g>
		<g>
			<path class="st1" d="M308.1,234.6c-7,0-13.8-4-17-10.8c-4.4-9.3-0.3-20.5,9-24.9c9.3-4.4,20.5-0.3,24.9,9v0
				c2.1,4.5,2.3,9.6,0.6,14.3s-5.1,8.5-9.7,10.6C313.4,234,310.8,234.6,308.1,234.6z M308.1,203.2c-1.8,0-3.6,0.4-5.4,1.2
				c-6.4,3-9.1,10.6-6.1,16.9c3,6.4,10.6,9.1,16.9,6.1c3.1-1.4,5.4-4,6.6-7.2s1-6.6-0.4-9.7C317.4,205.9,312.8,203.2,308.1,203.2z"
				/>
		</g>
	</g>
	<g>
		<g>
			<path class="st1" d="M240.3,173.9c-1.1,0-2.2-0.2-3.2-0.6c-2.4-0.9-4.3-2.6-5.4-4.9c-2.2-4.7-0.2-10.4,4.6-12.6
				c4.7-2.2,10.4-0.2,12.6,4.6c1.1,2.3,1.2,4.9,0.3,7.3s-2.6,4.3-4.9,5.4C243.1,173.6,241.7,173.9,240.3,173.9z M240.3,160.9
				c-0.5,0-1,0.1-1.5,0.3c-1.7,0.8-2.5,2.9-1.7,4.7c0.8,1.7,2.9,2.5,4.7,1.7c0.8-0.4,1.5-1.1,1.8-2c0.3-0.9,0.3-1.8-0.1-2.7
				C242.9,161.7,241.6,160.9,240.3,160.9z"/>
		</g>
	</g>
</g>
<g class="st0">
	<g>
		<path class="st1" d="M193.7,211.8H97c-1.9,0-3.5-1.6-3.5-3.5s1.6-3.5,3.5-3.5h96.6c1.9,0,3.5,1.6,3.5,3.5S195.6,211.8,193.7,211.8
			z"/>
	</g>
</g>
<g class="st0">
	<g>
		<path class="st1" d="M219.5,302.5h-96.6c-1.9,0-3.5-1.6-3.5-3.5s1.6-3.5,3.5-3.5h96.6c1.9,0,3.5,1.6,3.5,3.5
			S221.4,302.5,219.5,302.5z"/>
	</g>
</g>
<g class="st0">
	<g>
		<path class="st1" d="M215.2,259.9H38.7c-1.9,0-3.5-1.6-3.5-3.5c0-1.9,1.6-3.5,3.5-3.5h176.5c1.9,0,3.5,1.6,3.5,3.5
			C218.7,258.4,217.1,259.9,215.2,259.9z"/>
	</g>
</g>
<g>
	<g class="st0">
		<g>
			<path class="st1" d="M755.8,211.8h-96.6c-1.9,0-3.5-1.6-3.5-3.5s1.6-3.5,3.5-3.5h96.6c1.9,0,3.5,1.6,3.5,3.5
				S757.7,211.8,755.8,211.8z"/>
		</g>
	</g>
	<g class="st0">
		<g>
			<path class="st1" d="M729.9,302.5h-96.6c-1.9,0-3.5-1.6-3.5-3.5s1.6-3.5,3.5-3.5h96.6c1.9,0,3.5,1.6,3.5,3.5
				S731.9,302.5,729.9,302.5z"/>
		</g>
	</g>
	<g class="st0">
		<g>
			<path class="st1" d="M814.1,259.9H637.6c-1.9,0-3.5-1.6-3.5-3.5c0-1.9,1.6-3.5,3.5-3.5h176.5c1.9,0,3.5,1.6,3.5,3.5
				C817.6,258.4,816,259.9,814.1,259.9z"/>
		</g>
	</g>
</g>
<g class="st0">
	<g>
		<path class="st1" d="M314.4,330.5l-2.1-2.5c-24.2-28.4-36.7-64.7-35.3-102.1c1.4-37.6,16.9-73,43.5-99.6
			c26.6-26.6,62-42.1,99.6-43.5c37.4-1.4,73.7,11.1,102.1,35.3l2.5,2.1l-2.3,2.3L314.4,330.5z M425.9,88.9
			c-36.8,0-73.6,14-101.2,41.6c-51.5,51.5-55.6,134.8-10,191.1l201-201C489.7,99.4,457.8,88.9,425.9,88.9z"/>
	</g>
	<g>
		<path class="st1" d="M425.8,380.6c-35.4,0-69.4-12.5-96.4-35.4l-2.5-2.1l210.3-210.3l2.1,2.5c24.2,28.4,36.7,64.7,35.3,102.1
			c-1.4,37.6-16.9,73-43.5,99.6c-26.6,26.6-62,42.1-99.6,43.5C429.6,380.5,427.6,380.6,425.8,380.6z M335.8,342.7
			c56.2,45.7,139.5,41.5,191.1-10c51.5-51.5,55.6-134.8,10-191.1L335.8,342.7z"/>
	</g>
</g>
<g>
	<g>
		<g>
			<g>
				<path class="st1" d="M446.8,139.9c0.1,0,0.2,0,0.3,0c0.4,0.1,0.7,0.4,0.8,0.6c0.1,0.2,0.3,0.5,0.2,1l-1.2,5.5c0,0,0,0,0,0.1
					l-0.9,3.1l2.7,1.8c2.3,1.5,4,3.7,5.1,6.2c1.1,2.6,1.3,5.4,0.7,8.2c-0.2,0.9-0.8,6.8-1.7,17.5c-0.1,0.8-0.2,1.6-0.1,2.3l0.1,0.5
					l0.2,0.5l2.9,8l-41.4-9.1l6-6.1l0.3-0.4l0.3-0.4c0.4-0.7,0.7-1.4,0.9-2.1c3.6-10.1,5.6-15.7,5.8-16.6c1.3-6,6.5-10.4,12.7-10.7
					l3.3-0.2l0.7-3.3l1.2-5.3C445.7,140.2,446.3,139.9,446.8,139.9 M446.8,135.5c-2.6,0-5,1.8-5.5,4.5l-1.2,5.3
					c-7.9,0.4-14.9,6-16.7,14.2c-0.2,1.1-5.7,16.2-5.7,16.2c-0.1,0.4-0.2,0.8-0.5,1.1l-7.5,7.6c-1.3,2.1-0.1,5,2.3,5.5l44.1,9.7
					c0.3,0.1,0.5,0.1,0.8,0.1c2.1,0,3.9-1.9,3.6-4.1l-3.6-10c0-0.4,0-0.8,0.1-1.2c0,0,1.4-16.1,1.6-17.1c1.7-7.5-1.6-15-7.7-19
					c0-0.1,0.1-0.3,0.1-0.4l1.2-5.5c0.7-3.1-1.3-6.1-4.3-6.8h0C447.6,135.5,447.2,135.5,446.8,135.5L446.8,135.5z"/>
			</g>
		</g>
		<g>
			
				<rect x="438.4" y="150" transform="matrix(0.2152 -0.9766 0.9766 0.2152 182.8931 561.249)" class="st1" width="4.4" height="33.7"/>
		</g>
		<g>
			<path class="st1" d="M437.5,180.7c-0.2,0-0.3,0-0.5-0.1l-15.9-3.5c-1.2-0.3-1.9-1.4-1.7-2.6c0.3-1.2,1.4-1.9,2.6-1.7l15.9,3.5
				c1.2,0.3,1.9,1.4,1.7,2.6C439.4,180,438.5,180.7,437.5,180.7z"/>
		</g>
		<g>
			<path class="st1" d="M442.3,208.7c-0.6,0-1.3-0.1-1.9-0.2c-4.8-1.1-7.8-5.8-6.8-10.6c0.6-2.6,2.2-4.8,4.6-6l2,3.9
				c-1.2,0.6-2,1.7-2.3,3c-0.5,2.4,1,4.8,3.4,5.4c2.4,0.5,4.8-1,5.4-3.4c0.3-1.3,0-2.6-0.8-3.7l3.5-2.6c1.6,2.1,2.2,4.7,1.6,7.3
				C450.1,205.9,446.4,208.7,442.3,208.7z"/>
		</g>
	</g>
	<g>
		<path class="st1" d="M496.7,203.3c-6,0-11-4.9-11-11c0-6,4.9-11,11-11s11,4.9,11,11C507.7,198.4,502.8,203.3,496.7,203.3z
			 M496.7,185.7c-3.6,0-6.6,3-6.6,6.6c0,3.6,3,6.6,6.6,6.6s6.6-3,6.6-6.6C503.3,188.7,500.4,185.7,496.7,185.7z"/>
	</g>
	<g>
		<path class="st1" d="M351.8,200.2c-5.2,0-9.5-4.3-9.5-9.5c0-5.2,4.3-9.5,9.5-9.5c5.2,0,9.5,4.3,9.5,9.5
			C361.3,195.9,357,200.2,351.8,200.2z M351.8,185.6c-2.8,0-5.1,2.3-5.1,5.1s2.3,5.1,5.1,5.1c2.8,0,5.1-2.3,5.1-5.1
			S354.6,185.6,351.8,185.6z"/>
	</g>
	<g>
		<circle class="st1" cx="370.4" cy="150.7" r="3"/>
	</g>
	<g>
		<circle class="st1" cx="418.5" cy="141.6" r="3"/>
	</g>
	<g>
		<circle class="st1" cx="474.7" cy="163.2" r="3"/>
	</g>
	<g>
		<g>
			<path class="st1" d="M451.1,309.1H325.2c-1.2,0-2.2-1-2.2-2.2s1-2.2,2.2-2.2h125.9c1.2,0,2.2,1,2.2,2.2S452.3,309.1,451.1,309.1z
				"/>
		</g>
		<g>
			<path class="st1" d="M494.2,318.3H425c-1.2,0-2.2-1-2.2-2.2s1-2.2,2.2-2.2h69.2c1.2,0,2.2,1,2.2,2.2S495.4,318.3,494.2,318.3z"/>
		</g>
		<g>
			<path class="st1" d="M526.4,318.3h-16.7c-1.2,0-2.2-1-2.2-2.2s1-2.2,2.2-2.2h16.7c1.2,0,2.2,1,2.2,2.2S527.6,318.3,526.4,318.3z"
				/>
		</g>
		<g>
			<path class="st1" d="M502.5,318.3h-0.2c-1.2,0-2.2-1-2.2-2.2s1-2.2,2.2-2.2h0.2c1.2,0,2.2,1,2.2,2.2S503.7,318.3,502.5,318.3z"/>
		</g>
		<g>
			<g>
				<path class="st1" d="M442.1,327.8h-69.2c-1.2,0-2.2-1-2.2-2.2s1-2.2,2.2-2.2h69.2c1.2,0,2.2,1,2.2,2.2S443.3,327.8,442.1,327.8z
					"/>
			</g>
			<g>
				<path class="st1" d="M364.8,327.8h-0.2c-1.2,0-2.2-1-2.2-2.2s1-2.2,2.2-2.2h0.2c1.2,0,2.2,1,2.2,2.2S366,327.8,364.8,327.8z"/>
			</g>
		</g>
	</g>
	<g>
		<path class="st1" d="M513,290.4H338.6c-10.7,0-19.5-8.7-19.5-19.5v-39.6c0-10.7,8.7-19.5,19.5-19.5h28.1c1.2,0,2.2,1,2.2,2.2
			s-1,2.2-2.2,2.2h-28.1c-8.3,0-15.1,6.8-15.1,15.1v39.6c0,8.3,6.8,15.1,15.1,15.1H513c8.3,0,15.1-6.8,15.1-15.1v-39.6
			c0-8.3-6.8-15.1-15.1-15.1h-25.3c-1.2,0-2.2-1-2.2-2.2s1-2.2,2.2-2.2H513c10.7,0,19.5,8.7,19.5,19.5v39.6
			C532.5,281.6,523.7,290.4,513,290.4z"/>
	</g>
	<g>
		<path class="st1" d="M450.8,224.4"/>
	</g>
	<g>
		<g>
			<path class="st1" d="M425.4,251c-12.5,0-24.4-4.8-33.3-13.6c-18.7-18.4-19-48.6-0.7-67.3c9-9.2,21.1-14.3,34-14.3v4.4
				c-11.7,0-22.7,4.6-30.9,13c-16.7,17-16.4,44.5,0.6,61.1c8.2,8.1,19.1,12.5,30.7,12.4c11.5-0.1,22.4-4.7,30.4-13
				c16.7-17,16.4-44.5-0.6-61.1l3.1-3.1c18.7,18.4,19,48.6,0.7,67.3c-8.9,9.1-20.8,14.2-33.5,14.3C425.7,251,425.6,251,425.4,251z"
				/>
		</g>
		<g>
			<path class="st1" d="M401.5,223.2c-0.6,0-1.1-0.2-1.5-0.6c-5.1-5-8-11.7-8-18.9c-0.1-7.2,2.7-13.9,7.7-19c0.8-0.9,2.2-0.9,3.1,0
				c0.9,0.8,0.9,2.2,0,3.1c-8.7,8.8-8.5,23.1,0.3,31.7c0.9,0.8,0.9,2.2,0,3.1C402.6,222.9,402.1,223.2,401.5,223.2z"/>
		</g>
		<g>
			<path class="st1" d="M491.5,277.4c-1.5,0-2.8-0.5-3.7-1.4l-25.1-24.6l11.5-11.7l25.1,24.6c2.5,2.4,1.9,6.9-1.4,10.2
				c-1.4,1.5-3.2,2.5-4.9,2.8C492.5,277.4,492,277.4,491.5,277.4z M468.9,251.4l21.9,21.5c0.2,0.2,0.7,0.2,1.2,0.1
				c0.9-0.2,1.9-0.8,2.7-1.6c1.7-1.7,1.9-3.5,1.4-4l-21.9-21.5L468.9,251.4z"/>
		</g>
		<g>
			
				<rect x="461.6" y="232.2" transform="matrix(0.7001 -0.714 0.714 0.7001 -32.9701 403.453)" class="st1" width="4.4" height="17.6"/>
		</g>
	</g>
</g>
<g>
	
		<rect x="414.7" y="88.4" transform="matrix(0.7071 0.7071 -0.7071 0.7071 289.4523 -230.9888)" class="st2" width="17.7" height="291"/>
</g>
</svg>
