<?xml version="1.0" encoding="utf-8"?>
<!-- Generator: Adobe Illustrator 23.0.1, SVG Export Plug-In . SVG Version: 6.00 Build 0)  -->
<svg version="1.1" id="Capa_1" xmlns="http://www.w3.org/2000/svg" xmlns:xlink="http://www.w3.org/1999/xlink" x="0px" y="0px"
	 viewBox="0 0 512 572.3" style="enable-background:new 0 0 512 572.3;" xml:space="preserve">
<style type="text/css">
	.st0{fill:#233D91;}
</style>
<path class="st0" d="M441.2,266.3H441V143.4c0-10.4-4.1-20.2-11.4-27.6L348.8,35c-7.4-7.4-17.2-11.4-27.6-11.4H132.3
	c-21.5,0-39.1,17.5-39.1,39.1v125.8H70.8c-29,0-52.6,23.6-52.6,52.5v255.3c0,28.9,23.6,52.5,52.6,52.5h370.3
	c29,0,52.6-23.6,52.6-52.5V318.8C493.7,289.9,470.1,266.3,441.2,266.3z M471.7,496.2c0,16.8-13.7,30.5-30.6,30.5H70.8
	c-16.9,0-30.6-13.7-30.6-30.5V240.9c0-16.8,13.7-30.5,30.6-30.5h22.4h22h34.5h3.4c6.4,0,12.4,1.9,17.6,5.6l14,12.4l55.6,49.2
	l0.8,0.7c9.1,6.6,19.8,10.1,31,10.1h92.1h22H419h22h0.1c16.9,0,30.6,13.7,30.6,30.5V496.2z M364.2,266.3h-92.1
	c-6.4,0-12.4-1.9-17.6-5.6L218,228.4h146.3V266.3z M115.3,62.6c0-9.4,7.7-17.1,17.1-17.1h188.8c4.6,0,8.8,1.8,12.1,5l80.8,80.8
	c3.2,3.2,5,7.5,5,12.1v122.9h-32.8v-41c0-10.4-8.5-18.9-18.9-18.9H193.1l-8.2-7.3l-0.8-0.7c-5.5-4-11.6-6.8-18-8.5h201.3
	c10.4,0,18.9-8.5,18.9-18.9v-41.5c0-10.4-8.5-18.9-18.9-18.9h-206c-10.4,0-18.9,8.5-18.9,18.9v41.5c0,7.7,4.7,14.4,11.3,17.3
	c-0.2,0-0.4,0-0.7,0h-37.8V62.6z M164.4,168v-35.3h199.8V168H164.4z"/>
</svg>
