<?xml version="1.0" encoding="utf-8"?>
<!-- Generator: Adobe Illustrator 23.0.1, SVG Export Plug-In . SVG Version: 6.00 Build 0)  -->
<svg version="1.1" id="Capa_1" xmlns="http://www.w3.org/2000/svg" xmlns:xlink="http://www.w3.org/1999/xlink" x="0px" y="0px"
	 viewBox="0 0 512 512" style="enable-background:new 0 0 512 512;" xml:space="preserve">
<style type="text/css">
	.st0{fill:#233D91;}
</style>
<g>
	<g>
		<path class="st0" d="M390.8,460.4H121.2c-21.5,0-39.1-17.5-39.1-39.1V90.7c0-21.5,17.5-39.1,39.1-39.1H310
			c10.4,0,20.2,4.1,27.6,11.4l80.8,80.8c7.4,7.4,11.4,17.2,11.4,27.6v249.8C429.9,442.9,412.4,460.4,390.8,460.4z M121.2,73.6
			c-9.4,0-17.1,7.7-17.1,17.1v330.6c0,9.4,7.7,17.1,17.1,17.1h269.6c9.4,0,17.1-7.7,17.1-17.1V171.5c0-4.6-1.8-8.8-5-12.1
			l-80.8-80.8c-3.2-3.2-7.5-5-12.1-5H121.2z"/>
	</g>
	<g>
		<path class="st0" d="M356.2,400.8h-206c-10.4,0-18.9-8.5-18.9-18.9V253.4c0-10.4,8.5-18.9,18.9-18.9h206
			c10.4,0,18.9,8.5,18.9,18.9v128.5C375.1,392.4,366.6,400.8,356.2,400.8z M153.3,378.8h199.8V256.5H153.3V378.8z"/>
	</g>
	<g>
		<path class="st0" d="M356.2,218.1h-206c-10.4,0-18.9-8.5-18.9-18.9v-41.5c0-10.4,8.5-18.9,18.9-18.9h206
			c10.4,0,18.9,8.5,18.9,18.9v41.5C375.1,209.6,366.6,218.1,356.2,218.1z M153.3,196.1h199.8v-35.3H153.3V196.1z"/>
	</g>
</g>
</svg>
