<?xml version="1.0" encoding="utf-8"?>
<svg version="1.1" id="Layer_1" xmlns="http://www.w3.org/2000/svg" xmlns:xlink="http://www.w3.org/1999/xlink" x="0px" y="0px"
	 viewBox="0 0 57.1 57.1" style="enable-background:new 0 0 57.1 57.1;" xml:space="preserve">
<style type="text/css">
	.st0{fill:#005595;}
	.st1{fill:#FFFFFF;}
</style>
<g>
	<g>
		<circle class="st0" cx="28.5" cy="28.5" r="28.5"/>
	</g>
</g>
<path class="st1" d="M35,32.6c0-0.5-0.4-0.9-0.9-0.9l0,0c-0.5,0-0.9,0.4-0.9,0.9c0,1.6,1,3.4,3,5.3c0.2,0.2,0.1,0.3,0.1,0.4
	c0,0.1-0.1,0.3-0.4,0.3H15.4c-0.2,0-0.3-0.2-0.4-0.2c0-0.1-0.1-0.3,0.1-0.4c1.5-1.8,4-5.8,3.3-11.7c-0.7-6.2,5.7-7.7,6-7.8
	c0.5-0.1,0.8-0.6,0.7-1.1c-0.1-0.5-0.6-0.8-1.1-0.7c-2.9,0.6-8.1,3.4-7.4,9.7c0.6,5.3-1.6,8.8-2.9,10.4c-0.5,0.7-0.7,1.5-0.3,2.3
	s1.1,1.3,2,1.3H20c0.6,2.6,2.9,4.4,5.6,4.4c2.6,0,5-1.9,5.6-4.4H36c0.9,0,1.7-0.5,2-1.4c0.3-0.8,0.1-1.8-0.5-2.4
	C35.8,35.2,35,33.8,35,32.6z M25.5,43c-1.7,0-3.2-1.1-3.7-2.6h7.4C28.7,41.9,27.2,43,25.5,43z"/>
<path class="st1" d="M35,12.2c-4.9,0-8.9,4-8.9,8.9s4,8.9,8.9,8.9s8.9-4,8.9-8.9S39.9,12.2,35,12.2z M35,28.2
	c-3.9,0-7.1-3.2-7.1-7.1S31,14,35,14s7.1,3.2,7.1,7.1S38.9,28.2,35,28.2z"/>
<g>
	<g>
		<path class="st1" d="M35,25.7c-0.6,0-1-0.4-1-1v-7c0-0.6,0.4-1,1-1s1,0.4,1,1v7C36,25.2,35.6,25.7,35,25.7z"/>
	</g>
	<g>
		<path class="st1" d="M38.5,22.2h-7c-0.6,0-1-0.4-1-1s0.4-1,1-1h7c0.6,0,1,0.4,1,1S39.1,22.2,38.5,22.2z"/>
	</g>
</g>
</svg>
