<?xml version="1.0" encoding="utf-8"?>
<!-- Generator: Adobe Illustrator 23.0.1, SVG Export Plug-In . SVG Version: 6.00 Build 0)  -->
<svg version="1.1" id="Layer_1" xmlns="http://www.w3.org/2000/svg" xmlns:xlink="http://www.w3.org/1999/xlink" x="0px" y="0px"
	 viewBox="0 0 57.1 57.1" style="enable-background:new 0 0 57.1 57.1;" xml:space="preserve">
<style type="text/css">
	.st0{fill:#FFFFFF;}
	.st1{fill:#004E97;}
</style>
<circle class="st0" cx="38.3" cy="17.3" r="12.7"/>
<path class="st1" d="M43.3,18.9h-3.6v3.6c0,0.7-0.6,1.4-1.4,1.4c-0.9,0-1.4-0.6-1.4-1.4v-3.6h-3.6c-0.9,0-1.4-0.6-1.4-1.4
	c0-0.9,0.6-1.4,1.4-1.4h3.6v-3.6c0-0.9,0.6-1.4,1.4-1.4c0.9,0,1.4,0.6,1.4,1.4v3.6h3.6c0.9,0,1.4,0.6,1.4,1.4
	C44.7,18.4,44.1,18.9,43.3,18.9z"/>
<path class="st0" d="M24.1,54c3.5,0,6.8-2.3,8.1-5.5H16C17.3,51.8,20.4,54,24.1,54z"/>
<path class="st0" d="M42,40.7c-0.1,0-0.1-0.1-0.1-0.2c-1.5-1.5-3-4.5-3.8-8.3c-8.1-0.1-14.7-6.7-14.7-14.9c0-2.5,0.6-4.8,1.7-6.8
	c-0.3,0-0.5,0-0.8,0c-0.9,0-1.7,0.1-2.5,0.2l0,0c-0.1,0-0.1,0-0.2,0c-1.2,0.2-2.4,0.7-3.4,1.2c-4.1,2-8.4,6.1-7.6,13.4
	c0.9,8-2.4,13.2-4.4,15.7c-0.8,1.1-1.1,2.3-0.5,3.5s1.7,2,3,2h6.7l0,0h11.3h6.1l0,0h0.1h6.7h0.1c1.4,0,2.6-0.8,3-2.1
	c0.1-0.2,0.1-0.5,0.2-0.7v-0.1c0-0.1,0-0.2,0-0.3s0-0.1,0-0.2C43,42.2,42.6,41.3,42,40.7z"/>
</svg>
