<?xml version="1.0" encoding="utf-8"?>
<svg version="1.1" id="Layer_1" xmlns="http://www.w3.org/2000/svg" xmlns:xlink="http://www.w3.org/1999/xlink" x="0px" y="0px"
	 viewBox="0 0 48 55.4" style="enable-background:new 0 0 48 55.4;" xml:space="preserve">
	 <style type="text/css">
	.st1{fill:#679012;}
	</style>
<path class="st1" d="M26.9,7.4c0.5,0,1,0.2,1.3,0.6l6.9,7.8c0.3,0.3,0.4,0.7,0.4,1.1v15.9c0.7,0.1,1.5,0.2,2.1,0.5V16.9c0-0.9-0.3-1.8-1-2.5
	l-6.9-7.8C29,5.8,28,5.3,26.9,5.3H10.6v2.1H26.9z"/>
<path class="st1" d="M3.8,47.1c-0.9,0-1.7-0.8-1.7-1.7V9.1c0-0.9,0.8-1.7,1.7-1.7h1V5.3h-1C1.7,5.3,0,7,0,9.1v36.3c0,2.1,1.7,3.8,3.8,3.8h18.6
	c-0.3-0.7-0.4-1.4-0.6-2.1H3.8z"/>
<g>
	<path class="st1" d="M37.6,35.7c-0.7-0.2-1.4-0.4-2.1-0.5c-0.4-0.1-0.8-0.1-1.3-0.1c-5.5,0-10,4.5-10,10c0,0.7,0.1,1.4,0.2,2.1
		c0.2,0.7,0.4,1.5,0.7,2.1c1.6,3.4,5,5.7,9,5.7c5.5,0,10-4.5,10-10C44.2,40.7,41.4,37,37.6,35.7z M34.2,52.8c-2.8,0-5.2-1.4-6.6-3.6
		c-0.4-0.7-0.8-1.4-1-2.1c-0.2-0.7-0.3-1.4-0.3-2.1c0-4.3,3.5-7.8,7.8-7.8c0.4,0,0.9,0,1.3,0.1c0.8,0.1,1.5,0.4,2.1,0.7
		c2.6,1.3,4.4,3.9,4.4,7C42,49.3,38.5,52.8,34.2,52.8z"/>
	<path class="st1" d="M37.7,41.6l-0.1,0.1l-2.1,2.2l-2.6,2.6l-2.2-2.2c-0.4-0.4-1.1-0.4-1.5,0c-0.4,0.4-0.4,1.1,0,1.5l1.3,1.4l1.1,1.1
		c0.3,0.3,0.8,0.5,1.3,0.5c0,0,0,0,0,0c0.5,0,0.9-0.2,1.3-0.5l3.5-3.5l1.6-1.7c0.4-0.4,0.4-1.1,0-1.5C38.8,41.1,38.2,41.1,37.7,41.6
		z"/>
</g>
<path class="st1" d="M11.5,21.4h14.6c0.6,0,1.1-0.5,1.1-1.1c0-0.6-0.5-1.1-1.1-1.1H11.5c-0.6,0-1.1,0.5-1.1,1.1C10.4,20.9,10.9,21.4,11.5,21.4z"
	/>
<path class="st1" d="M23,28.7c0-0.6-0.5-1.1-1.1-1.1H11.5c-0.6,0-1.1,0.5-1.1,1.1s0.5,1.1,1.1,1.1h10.4C22.5,29.8,23,29.3,23,28.7z"/>
<path class="st1" d="M7.5,0.4c-0.6,0-1.1,0.5-1.1,1.1v3.8v2.1v2.9c0,0.6,0.5,1.1,1.1,1.1c0.6,0,1.1-0.5,1.1-1.1V7.4V5.3V1.5
	C8.6,0.9,8.1,0.4,7.5,0.4z"/>
</svg>
