<?xml version="1.0" encoding="utf-8"?>
<svg version="1.1" id="Layer_1" xmlns="http://www.w3.org/2000/svg" xmlns:xlink="http://www.w3.org/1999/xlink" x="0px" y="0px"
	 viewBox="0 0 48 55.7" style="enable-background:new 0 0 48 55.7;" xml:space="preserve">
	 <style type="text/css">
	.st1{fill:#eb3131;}
	</style>
<path class="st1" d="M26.9,7.4c0.5,0,1,0.2,1.3,0.6l6.9,7.8c0.3,0.3,0.4,0.7,0.4,1.1v15.9c0.7,0.1,1.5,0.2,2.1,0.5V16.9c0-0.9-0.3-1.8-1-2.5
	l-6.9-7.8C29,5.8,28,5.3,26.9,5.3H10.6v2.1H26.9z"/>
<path class="st1" d="M3.8,47.1c-0.9,0-1.7-0.8-1.7-1.7V9.1c0-0.9,0.8-1.7,1.7-1.7h1V5.3h-1C1.7,5.3,0,7,0,9.1v36.3c0,2.1,1.7,3.8,3.8,3.8h18.6
	c-0.3-0.7-0.4-1.4-0.6-2.1H3.8z"/>
<path class="st1" d="M11.5,21.4h14.6c0.6,0,1.1-0.5,1.1-1.1c0-0.6-0.5-1.1-1.1-1.1H11.5c-0.6,0-1.1,0.5-1.1,1.1C10.4,20.9,10.9,21.4,11.5,21.4z"
	/>
<path class="st1" d="M23,28.7c0-0.6-0.5-1.1-1.1-1.1H11.5c-0.6,0-1.1,0.5-1.1,1.1s0.5,1.1,1.1,1.1h10.4C22.5,29.8,23,29.3,23,28.7z"/>
<path class="st1" d="M7.5,0.5c-0.6,0-1.1,0.5-1.1,1.1v3.8v2.1v2.9c0,0.6,0.5,1.1,1.1,1.1c0.6,0,1.1-0.5,1.1-1.1V7.4V5.3V1.5
	C8.6,0.9,8.1,0.5,7.5,0.5z"/>
<path class="st1" d="M37.6,35.5c-0.7-0.3-1.4-0.4-2.1-0.5c-0.5-0.1-0.9-0.1-1.4-0.1c-5.6,0-10.2,4.6-10.2,10.2c0,0.7,0.1,1.4,0.2,2.1
	c0.2,0.7,0.4,1.5,0.7,2.1c1.6,3.5,5.1,5.9,9.2,5.9c5.6,0,10.2-4.6,10.2-10.2C44.2,40.7,41.5,37,37.6,35.5z M34.1,52.6
	c-2.6,0-4.9-1.3-6.3-3.4c-0.4-0.6-0.8-1.4-1-2.1c-0.2-0.7-0.3-1.4-0.3-2.1c0-4.2,3.4-7.6,7.6-7.6c0.5,0,1,0,1.4,0.1
	c0.8,0.1,1.5,0.4,2.1,0.8c2.4,1.3,4,3.8,4,6.7C41.7,49.2,38.2,52.6,34.1,52.6z"/>
<path class="st1" d="M37.9,47.3l-1-1L35.6,45l1.5-1.5l0.8-0.8c0.4-0.4,0.4-1.1,0-1.5c-0.2-0.2-0.5-0.3-0.8-0.3c-0.3,0-0.6,0.1-0.8,0.3l-1,1.1
	L34,43.5l-2.3-2.3c-0.4-0.4-1.1-0.4-1.5,0c-0.4,0.4-0.4,1.1,0,1.5l2.3,2.3l-1.7,1.8l-0.5,0.6c-0.3,0.3-0.4,0.9-0.2,1.3
	c0.1,0.1,0.1,0.2,0.2,0.3c0.2,0.2,0.5,0.3,0.8,0.3c0.3,0,0.6-0.1,0.8-0.3l0.3-0.3l1.8-1.8l0.2-0.2l0.2,0.2l1.4,1.3l0.8,0.8
	c0.2,0.2,0.5,0.3,0.8,0.3c0.3,0,0.6-0.1,0.8-0.3C38.3,48.4,38.3,47.7,37.9,47.3z"/>
</svg>
