<?xml version="1.0" encoding="utf-8"?>
<svg version="1.1" id="Layer_1" xmlns="http://www.w3.org/2000/svg" xmlns:xlink="http://www.w3.org/1999/xlink" x="0px" y="0px"
	 viewBox="0 0 48 48" style="enable-background:new 0 0 48 48;" xml:space="preserve">
<style type="text/css">
	.st0{fill:none;}
	.st1{fill:#219021;}
</style>
<g>
	<path class="st0" d="M16.9,35.5c4.2,0,7.7-3.4,7.7-7.7s-3.4-7.7-7.7-7.7s-7.7,3.4-7.7,7.7S12.7,35.5,16.9,35.5z M12.9,27.1
		c0.4-0.4,1.1-0.4,1.5,0l1.5,1.5l3.5-3.5c0.4-0.4,1.1-0.4,1.5,0c0.4,0.4,0.4,1.1,0,1.5l-3.9,3.9c-0.3,0.3-0.7,0.5-1.2,0.5
		c0,0,0,0,0,0c-0.4,0-0.9-0.2-1.2-0.5l-1.9-1.9C12.5,28.2,12.5,27.5,12.9,27.1z"/>
	<path class="st1" d="M7.1,27.9c0,5.4,4.4,9.8,9.8,9.8s9.8-4.4,9.8-9.8s-4.4-9.8-9.8-9.8S7.1,22.5,7.1,27.9z M16.9,20.2c4.2,0,7.7,3.4,7.7,7.7
		s-3.4,7.7-7.7,7.7s-7.7-3.4-7.7-7.7S12.7,20.2,16.9,20.2z"/>
	<path class="st1" d="M14.8,30.5c0.3,0.3,0.7,0.5,1.2,0.5c0,0,0,0,0,0c0.4,0,0.8-0.2,1.2-0.5l3.9-3.9c0.4-0.4,0.4-1.1,0-1.5
		c-0.4-0.4-1.1-0.4-1.5,0l-3.5,3.5l-1.5-1.5c-0.4-0.4-1.1-0.4-1.5,0c-0.4,0.4-0.4,1.1,0,1.5L14.8,30.5z"/>
	<path class="st1" d="M16,12.3c0.6,0,1.1-0.5,1.1-1.1s-0.5-1.1-1.1-1.1H9.8c-0.6,0-1.1,0.5-1.1,1.1s0.5,1.1,1.1,1.1H16z"/>
	<path class="st1" d="M35.5,38.9v3.2c0,0.9-0.8,1.7-1.7,1.7H3.8c-0.9,0-1.7-0.8-1.7-1.7V5.9c0-0.9,0.8-1.7,1.7-1.7h23c0.5,0,1,0.2,1.3,0.6
		l6.9,7.8c0.3,0.3,0.4,0.7,0.4,1.1v6.1c0,0,0,0.1,0,0.1h2.1c0,0,0-0.1,0-0.1v-6.1c0-0.9-0.3-1.8-1-2.5l-6.9-7.8C29,2.5,28,2,26.9,2
		h-23C1.7,2,0,3.7,0,5.9v36.3C0,44.3,1.7,46,3.8,46h29.9c2.1,0,3.8-1.7,3.8-3.8v-3.2c0-0.1,0-0.1,0-0.2h-2.1
		C35.5,38.8,35.5,38.9,35.5,38.9z"/>
	<path class="st1" d="M42.3,28.4l-4.6-4.6c-0.4-0.4-1.1-0.4-1.5,0c-0.4,0.4-0.4,1.1,0,1.5l3.9,3.9l-3.9,3.9c-0.4,0.4-0.4,1.1,0,1.5
		c0.2,0.2,0.5,0.3,0.8,0.3s0.5-0.1,0.8-0.3l4.6-4.6C42.8,29.6,42.8,28.8,42.3,28.4z M40.8,29.9C40.8,29.9,40.8,29.9,40.8,29.9
		C40.8,29.9,40.8,29.9,40.8,29.9z"/>
	<path class="st1" d="M30,34.7c0.2,0.2,0.5,0.3,0.8,0.3s0.5-0.1,0.8-0.3l4.6-4.6c0.5-0.5,0.4-1.2,0-1.6l-4.6-4.6c-0.4-0.4-1.1-0.4-1.5,0
		c-0.4,0.4-0.4,1.1,0,1.5l3.9,3.9L30,33.1C29.6,33.6,29.6,34.2,30,34.7z M34.6,29.9C34.6,29.9,34.6,29.9,34.6,29.9
		C34.6,29.9,34.6,29.9,34.6,29.9z"/>
</g>
</svg>
