<?xml version="1.0" encoding="utf-8"?>
<svg version="1.1" id="Layer_1" xmlns="http://www.w3.org/2000/svg" xmlns:xlink="http://www.w3.org/1999/xlink" x="0px" y="0px"
	 viewBox="0 0 48 48" style="enable-background:new 0 0 48 48;" xml:space="preserve">
	<style type="text/css">
	.st1{fill:#28a745;}
	</style>
<g>
	<path class="st1" d="M27.2,17c0-0.6-0.5-1.1-1.1-1.1H11.5c-0.6,0-1.1,0.5-1.1,1.1c0,0.6,0.5,1.1,1.1,1.1h14.6C26.7,18.1,27.2,17.6,27.2,17z"/>
	<path class="st1" d="M11.5,24.4c-0.6,0-1.1,0.5-1.1,1.1c0,0.6,0.5,1.1,1.1,1.1h10.4c0.6,0,1.1-0.5,1.1-1.1c0-0.6-0.5-1.1-1.1-1.1H11.5z"/>
	<path class="st1" d="M47.3,21.6c-0.2-0.4-0.6-0.6-1-0.6c0,0,0,0,0,0l-16.8,0.5c-0.5,0-0.9,0.3-1,0.7c-0.2,0.4,0,0.9,0.3,1.2l5.5,4.9l0.8,7.3
		c0,0.5,0.4,0.8,0.8,0.9c0.1,0,0.2,0,0.3,0c0.3,0,0.7-0.2,0.9-0.4l10.1-13.4c0,0,0,0,0,0C47.4,22.4,47.5,22,47.3,21.6z M41.7,23.2
		l-6.2,3.2l-3.3-2.9L41.7,23.2z M36.9,32.8l-0.5-4.4l6.2-3.2L36.9,32.8z"/>
	<path class="st1" d="M35.5,40.2c0,0.1,0,0.1,0,0.2v1.8c0,0.9-0.8,1.7-1.7,1.7H3.8c-0.9,0-1.7-0.8-1.7-1.7V5.9c0-0.9,0.8-1.7,1.7-1.7h23
		c0.5,0,1,0.2,1.3,0.6l6.9,7.8c0.3,0.3,0.4,0.7,0.4,1.1V18c0,0,0,0.1,0,0.1h2.1c0,0,0-0.1,0-0.1v-4.3c0-0.9-0.3-1.8-1-2.5l-6.9-7.8
		C29,2.5,28,2,26.9,2h-23C1.7,2,0,3.7,0,5.9v36.3C0,44.3,1.7,46,3.8,46h29.9c2.1,0,3.8-1.7,3.8-3.8v-1.8c0-0.1,0-0.1,0-0.2H35.5z"/>
</g>
</svg>
