<?xml version="1.0" encoding="utf-8"?>
<!-- Generator: Adobe Illustrator 23.0.1, SVG Export Plug-In . SVG Version: 6.00 Build 0)  -->
<svg version="1.1" id="Layer_1" xmlns="http://www.w3.org/2000/svg" xmlns:xlink="http://www.w3.org/1999/xlink" x="0px" y="0px"
	 viewBox="0 0 48 48" style="enable-background:new 0 0 48 48;" xml:space="preserve">
<style type="text/css">
	.st0{fill:none;}
	.st1{fill:red;}
</style>
<polygon class="st0" points="35.8,26.4 42,23.2 32.4,23.5 "/>
<polygon class="st0" points="37.2,32.8 43,25.1 36.7,28.3 "/>
<path class="st1" d="M2.4,5.8c0-0.9,0.8-1.7,1.7-1.7h23c0.5,0,1,0.2,1.3,0.6l1.7,1.9l1.4-1.7l-1.5-1.7C29.3,2.5,28.3,2,27.2,2h-23
	C2,2,0.3,3.7,0.3,5.8v36.3c0,0.6,0.1,1.1,0.3,1.6l1.8-2.3V5.8z"/>
<path class="st1" d="M35.8,40.2c0,0,0,0.1,0,0.1v1.8c0,0.9-0.8,1.7-1.7,1.7H7.8L6.1,46h28c2.1,0,3.8-1.7,3.8-3.8v-1.8c0,0,0-0.1,0-0.1H35.8z"/>
<path class="st1" d="M47.6,21.5c-0.2-0.4-0.6-0.6-1-0.6c0,0,0,0,0,0l-16.8,0.5c-0.5,0-0.9,0.3-1,0.7c-0.2,0.4,0,0.9,0.3,1.2l5.5,4.9l0.8,7.3
	c0,0.5,0.4,0.8,0.8,0.9c0.1,0,0.2,0,0.3,0c0.3,0,0.7-0.2,0.9-0.4l10.1-13.4v0c0,0,0,0,0,0C47.7,22.4,47.8,21.9,47.6,21.5z M42,23.2
	l-6.2,3.2l-3.3-2.9L42,23.2z M37.2,32.8l-0.5-4.4l6.2-3.2L37.2,32.8z"/>
<path class="st1" d="M2.6,45.8C2.8,45.9,3.1,46,3.3,46c0.1,0,0.3,0,0.4-0.1c-0.5,0-0.9-0.2-1.3-0.4C2.5,45.6,2.6,45.7,2.6,45.8z"/>
<g>
	<path class="st1" d="M37,11.1l-1.6-1.8L34,11l1.4,1.5c0.3,0.3,0.4,0.7,0.4,1.1v4.3c0,0.1,0,0.1,0,0.2h2.1c0-0.1,0-0.1,0-0.2v-4.3
		C37.9,12.7,37.6,11.8,37,11.1z"/>
	<path class="st1" d="M11.8,18.1h9.3l1.7-2.1h-11c-0.6,0-1.1,0.5-1.1,1.1S11.2,18.1,11.8,18.1z"/>
	<path class="st1" d="M21.6,26.5h0.6c0.6,0,1.1-0.5,1.1-1.1c0-0.3-0.1-0.5-0.3-0.7L21.6,26.5z"/>
	<path class="st1" d="M11.8,26.5h2.6l1.7-2.1h-4.3c-0.6,0-1.1,0.5-1.1,1.1S11.2,26.5,11.8,26.5z"/>
</g>
<path class="st1" d="M33.9,6.5c-0.3-0.2-0.7-0.3-1.1-0.2c-0.2,0.1-0.3,0.2-0.4,0.3l-1,1.3l-6.3,8l-1.7,2.1l-5,6.2l-1.7,2.1l-13.5,17l-0.6,0.8
	c-0.3,0.4-0.3,0.9,0,1.3c0.4,0.2,0.8,0.3,1.3,0.4c0.2-0.1,0.3-0.2,0.4-0.3l1.4-1.8l13.8-17.3l1.7-2.1l5-6.2l1.3-1.6l5.4-6.9L34,8
	c0,0,0.1-0.1,0.1-0.2C34.4,7.4,34.3,6.9,33.9,6.5z"/>
</svg>
