<?xml version="1.0" encoding="utf-8"?>
<!-- Generator: Adobe Illustrator 23.0.1, SVG Export Plug-In . SVG Version: 6.00 Build 0)  -->
<svg version="1.1" id="Layer_1" xmlns="http://www.w3.org/2000/svg" xmlns:xlink="http://www.w3.org/1999/xlink" x="0px" y="0px"
	 viewBox="0 0 50 50" style="enable-background:new 0 0 50 50;" xml:space="preserve">
<style type="text/css">
	.st0{fill:#01B050;}
</style>
<g>
	<path class="st0" d="M9.7,35.2c-2.8,0-5.1-2.2-5.1-5c0-2.8,2.3-5.1,5.1-5.1c2.8,0,5,2.3,5,5.1C14.8,32.9,12.5,35.2,9.7,35.2z
		 M9.7,33.2c1.7,0,3.1-1.4,3.1-3.1c0-1.7-1.4-3.1-3.1-3c-1.7,0-3,1.4-3,3.1C6.7,31.8,8,33.2,9.7,33.2z"/>
	<path class="st0" d="M40.3,35.2c-2.8,0-5.1-2.3-5.1-5.1c0-2.8,2.3-5.1,5.1-5.1c2.8,0,5,2.3,5,5.1C45.3,32.9,43.1,35.2,40.3,35.2z
		 M40.3,33.2c1.7,0,3.1-1.4,3.1-3.1c0-1.7-1.4-3.1-3.1-3c-1.7,0-3,1.4-3,3.1C37.2,31.8,38.6,33.2,40.3,33.2z"/>
	<path class="st0" d="M25,38.2c-2.8,0-5.1-2.2-5.1-5c0-2.8,2.2-5.1,5-5.1c2.8,0,5.1,2.2,5.1,5C30.1,35.9,27.8,38.2,25,38.2z
		 M25,36.2c1.7,0,3.1-1.4,3.1-3.1c0-1.7-1.4-3.1-3.1-3.1c-1.7,0-3.1,1.4-3.1,3.1C21.9,34.9,23.3,36.2,25,36.2z"/>
	<path class="st0" d="M49.4,4.8c0-0.4-0.1-0.8-0.2-1.2c-0.5-1.9-2.1-3-4.1-3c-6.7,0-13.5,0-20.2,0c-3.2,0-6.4,0-9.6,0
		c-3.5,0-7.1,0-10.6,0c-2.3,0-4.1,1.7-4.1,4c0,4.1,0,8.2,0,12.4c0,2.2,1.8,3.9,4,4c1,0,1.9,0,2.9,0c0.5,0,0.7,0.1,0.9,0.5
		c0.1,0.3,0.3,0.6,0.5,0.9c0.2,0.4,0.5,0.6,0.9,0.6c0.4,0,0.7-0.2,0.9-0.6c0.2-0.4,0.4-0.8,0.6-1.1c0.1-0.2,0.3-0.3,0.5-0.3
		c3.6,0,7.3,0,10.9,0c0.2,0,0.4,0.1,0.5,0.3c0.4,0.4,0.6,0.9,1,1.3c0.5,0.6,1.2,0.6,1.7,0c0.3-0.4,0.7-0.8,0.9-1.3
		c0.2-0.3,0.4-0.3,0.7-0.3c3.6,0,7.2,0,10.7,0c0.3,0,0.5,0.1,0.6,0.4c0.2,0.4,0.4,0.7,0.5,1.1c0.2,0.4,0.5,0.6,0.9,0.6
		c0.4,0,0.7-0.2,0.9-0.6c0.2-0.3,0.4-0.7,0.5-1c0.1-0.3,0.3-0.5,0.7-0.5c0.9,0,1.9,0,2.8,0c2.5,0,4.2-1.7,4.2-4.2
		C49.4,12.7,49.4,8.7,49.4,4.8z M45.1,18.9c-1.1-0.1-2.2,0-3.2,0c-0.6,0-1.2,0-1.6,0.8c-0.3-0.8-0.9-0.8-1.5-0.8
		c-3.9,0-7.8,0-11.6,0c-0.7,0-1.3,0.2-1.7,0.8c-0.1,0.2-0.2,0.3-0.4,0.5c-0.3-0.3-0.4-0.7-0.7-0.9c-0.3-0.2-0.6-0.5-0.9-0.5
		c-4.2,0-8.4,0-12.6,0c-0.5,0-0.8,0.3-1.1,0.8c-0.3-0.7-0.8-0.8-1.4-0.8c-1.2,0-2.4,0-3.6,0c-1.2,0-2.1-0.8-2.1-2
		c0-4.1,0-8.2,0-12.3c0-1.2,0.9-2,2.2-2c4,0,8.1,0,12.1,0c9.3,0,18.6,0,28,0c1.8,0,2.5,0.8,2.5,2.5c0,3.8,0,7.6,0,11.5
		C47.5,17.9,46.5,19,45.1,18.9z"/>
	<path class="st0" d="M47.6,38.6c-1.9-1.3-4.1-2.1-6.4-2.3c-2.4-0.2-4.7,0.5-6.8,1.5c-1.7,0.8-2.9,1.9-3.2,3.9
		c-4.1-1.8-8.2-1.8-12.3,0c0-0.2-0.1-0.3-0.1-0.4c-0.3-1.4-1.1-2.5-2.4-3.1c-0.6-0.3-1.1-0.6-1.7-0.8c-4.2-1.8-8.3-1.2-12.1,1.2
		c-1.6,1-2,2.6-2,4.4c0,1.4,0.9,2.5,2.5,2.5c3.8-0.1,7.5,0,11.3,0c0.2,0,0.4,0,0.5,0c0,0.6,0,1.1,0,1.6c0,1.6,1,2.5,2.6,2.5
		c1.5,0,3,0,4.5,0c3.5,0,7.1,0,10.6,0c1.6,0,2.5-0.9,2.6-2.5c0-0.5,0-1,0-1.6c0.1,0,0.3,0,0.5,0c3.8,0,7.6,0,11.4,0
		c1.1,0,2-0.6,2.2-1.6C49.7,42.1,49.4,39.8,47.6,38.6z M15.6,43.3c-2.1,0-4.2,0-6.3,0c-2.1,0-4.2,0-6.2,0c-0.4,0-0.5-0.2-0.6-0.6
		c-0.1-1.4,0.5-2.5,1.8-3.1c1.9-1,3.9-1.6,6.1-1.4c1.9,0.2,3.7,0.9,5.3,1.9c0.8,0.5,1,1.3,1.1,2.2C16.9,42.7,16.1,43.3,15.6,43.3z
		 M33.1,47.1c0,0.1-0.3,0.3-0.5,0.3c-1.5,0-3.1,0-4.6,0c-1,0-2,0-3,0c-2.5,0-5,0-7.4,0c-0.7,0-0.7,0-0.7-0.7c0-1.3,0.5-2.2,1.6-2.7
		c2.5-1.2,5.1-2,7.9-1.6c2,0.2,3.9,0.9,5.6,1.9C32.9,44.8,33.4,46.1,33.1,47.1z M47.4,43.1c0,0.1-0.3,0.2-0.5,0.2
		c-1.9,0-3.8,0-5.7,0c-0.2,0-0.4,0-0.6,0c-2.1,0-4.1,0-6.2,0c-0.8,0-1.4-0.7-1.2-1.5c0.2-0.9,0.6-1.5,1.4-2c2-1.1,4.1-1.9,6.5-1.6
		c1.9,0.2,3.7,0.9,5.3,1.9C47.2,40.7,47.7,42.2,47.4,43.1z"/>
	<circle class="st0" cx="17.3" cy="7.7" r="2.1"/>
	<path class="st0" d="M40.3,6.7c-0.1,0-0.3,0-0.4,0c-2.9,0-5.8,0-8.7,0c0.1,0.3,0.2,0.6,0.2,1c0,0.4-0.1,0.7-0.2,1c1.7,0,3.3,0,5,0
		c1.4,0,2.7,0,4.1,0c0.6,0,1-0.4,1-0.9C41.3,7.2,40.9,6.8,40.3,6.7z"/>
	<circle class="st0" cx="28.6" cy="7.7" r="2.1"/>
	<g>
		<path class="st0" d="M20.2,13.6c0-0.3,0-0.5,0.1-0.8c-3.4,0-6.8,0-10.2,0c-0.2,0-0.3,0-0.5,0c-0.8,0.1-1.2,1-0.7,1.6
			c0.2,0.3,0.6,0.4,1,0.4c3.5,0,7.1,0,10.6,0C20.3,14.4,20.2,14,20.2,13.6z"/>
		<path class="st0" d="M34.1,12.8c-0.1,0-0.2,0-0.3,0c-2.6,0-5.3,0-7.9,0c0.1,0.2,0.1,0.5,0.1,0.8c0,0.4-0.1,0.9-0.3,1.2
			c2.8,0,5.6,0,8.4,0c0.6,0,1.1-0.4,1.1-1C35.2,13.2,34.7,12.8,34.1,12.8z"/>
	</g>
	<circle class="st0" cx="23.1" cy="13.6" r="2.1"/>
	<g>
		<path class="st0" d="M14.5,7.7c0-0.4,0.1-0.7,0.2-1c-1.5,0-3,0-4.6,0c-0.2,0-0.3,0-0.5,0C9.1,6.8,8.8,7.1,8.7,7.6
			c0,0.5,0.2,0.9,0.7,1c0.2,0.1,0.4,0,0.6,0c1.5,0,3.1,0,4.6,0C14.5,8.4,14.5,8,14.5,7.7z"/>
		<path class="st0" d="M25.7,7.7c0-0.4,0.1-0.7,0.2-1c-1.9,0-3.9,0-5.8,0c0.1,0.3,0.2,0.6,0.2,1c0,0.4-0.1,0.7-0.2,1
			c1.6,0,3.3,0,4.9,0c0.3,0,0.6,0,0.9,0C25.7,8.4,25.7,8,25.7,7.7z"/>
	</g>
</g>
</svg>
