<svg id="Capa_1" enable-background="new 0 0 512 512" height="512" viewBox="0 0 512 512" width="512" xmlns="http://www.w3.org/2000/svg"><g><path d="m498.149 511.575h-484.298c-7.65 0-13.851-6.201-13.851-13.851v-440.867h512v440.867c0 7.65-6.201 13.851-13.851 13.851z" fill="#faf7f7"/><path d="m512 65.714h-512v-51.437c0-7.65 6.201-13.851 13.851-13.851h484.298c7.65 0 13.851 6.201 13.851 13.851z" fill="#c5d3dd"/><path d="m512 65.715v432.013c0 7.646-6.197 13.843-13.853 13.843h-20.554c7.656 0 13.853-6.197 13.853-13.843v-432.013z" fill="#ede1dd"/><path d="m512 14.278v51.436h-20.554v-51.436c0-7.646-6.197-13.853-13.853-13.853h20.554c7.656 0 13.853 6.207 13.853 13.853z" fill="#b6c4cf"/><g fill="#8d9ca8"><circle cx="388.884" cy="33.07" r="10.277"/><circle cx="427.631" cy="33.07" r="10.277"/><circle cx="466.378" cy="33.07" r="10.277"/></g><circle cx="139.95" cy="288.411" fill="#ade194" r="91.481"/><circle cx="372.05" cy="288.411" fill="#fe646f" r="91.481"/><path d="m231.428 288.406c0 50.532-40.954 91.486-91.475 91.486-22.63 0-43.348-8.222-59.319-21.839 12.23 6.074 26.011 9.486 40.594 9.486 50.532 0 91.486-40.954 91.486-91.486 0-27.871-12.466-52.844-32.136-69.616 30.142 14.953 50.85 46.041 50.85 81.969z" fill="#97da7b"/><path d="m463.533 288.406c0 50.532-40.964 91.486-91.486 91.486-22.65 0-43.369-8.222-59.339-21.859 12.24 6.094 26.032 9.506 40.625 9.506 50.522 0 91.475-40.954 91.475-91.486 0-27.881-12.476-52.844-32.146-69.627 30.153 14.954 50.871 46.042 50.871 81.98z" fill="#fd4755"/><g><path d="m175.456 256.756c-3.268-2.548-7.979-1.966-10.526 1.302l-34.628 44.408-15.658-17.486c-2.763-3.086-7.504-3.348-10.59-.584-3.086 2.763-3.348 7.504-.584 10.59l21.643 24.17c1.425 1.592 3.458 2.497 5.587 2.497.085 0 .17-.001.255-.004 2.221-.076 4.293-1.132 5.66-2.884l40.146-51.482c2.545-3.267 1.962-7.98-1.305-10.527z" fill="#88bc6d"/><path d="m382.558 288.411 19.536-19.905c2.901-2.956 2.857-7.704-.1-10.605-2.954-2.901-7.704-2.859-10.605.1l-19.338 19.704-19.339-19.705c-2.901-2.959-7.649-2.999-10.605-.1-2.957 2.901-3.001 7.649-.1 10.605l19.536 19.905-19.536 19.905c-2.901 2.956-2.857 7.704.1 10.605 1.46 1.434 3.356 2.147 5.253 2.147 1.942 0 3.885-.75 5.353-2.247l19.338-19.704 19.338 19.704c1.469 1.497 3.41 2.247 5.353 2.247 1.896 0 3.793-.715 5.253-2.147 2.957-2.901 3.001-7.649.1-10.605z" fill="#fb2b3a"/></g></g></svg>