<svg id="Capa_1" enable-background="new 0 0 512 512" height="512" viewBox="0 0 512 512" width="512" xmlns="http://www.w3.org/2000/svg"><g><path d="m434.463 511.999h-356.926c-6.257 0-11.33-5.072-11.33-11.33v-489.338c0-6.257 5.072-11.33 11.33-11.33h356.925c6.257 0 11.33 5.072 11.33 11.33v489.338c0 6.257-5.072 11.33-11.329 11.33z" fill="#f8f6f6"/><path d="m445.792 11.331v489.338c0 6.259-5.071 11.331-11.331 11.331h-24.789c6.259 0 11.331-5.072 11.331-11.331v-489.338c0-6.259-5.071-11.331-11.331-11.331h24.789c6.26 0 11.331 5.072 11.331 11.331z" fill="#ebebeb"/><g><g><path d="m389.739 234.257h-267.478c-1.743 0-3.156-1.413-3.156-3.156v-56.654c0-1.743 1.413-3.156 3.156-3.156h267.478c1.743 0 3.156 1.413 3.156 3.156v56.654c0 1.743-1.413 3.156-3.156 3.156z" fill="#26a6fe"/></g><g><path d="m199.333 473.858h-77.072c-1.743 0-3.156-1.413-3.156-3.156v-197.656c0-1.743 1.413-3.156 3.156-3.156h77.072c1.743 0 3.156 1.413 3.156 3.156v197.656c0 1.743-1.413 3.156-3.156 3.156z" fill="#26a6fe"/></g><g><path d="m392.898 174.444v56.654c0 1.746-1.415 3.16-3.161 3.16h-20.657c1.745 0 3.161-1.415 3.161-3.16v-56.654c0-1.735-1.415-3.15-3.161-3.15h20.658c1.745-.001 3.16 1.414 3.16 3.15z" fill="#0593fc"/></g><g><path d="m202.486 273.043v197.663c0 1.735-1.415 3.15-3.15 3.15h-20.658c1.735 0 3.15-1.415 3.15-3.15v-197.663c0-1.735-1.415-3.15-3.15-3.15h20.658c1.735-.001 3.15 1.414 3.15 3.15z" fill="#0593fc"/></g><g fill="#bababa"><path d="m116.436 104.146c3.872 1.474 8.204-.469 9.678-4.339l3.678-9.656h25.239l3.636 9.634c1.134 3.003 3.987 4.854 7.019 4.854.879 0 1.775-.156 2.646-.485 3.875-1.462 5.832-5.79 4.369-9.665l-21.951-58.167c-.026-.069-.053-.138-.082-.206-1.369-3.327-4.576-5.475-8.172-5.475-.002 0-.005 0-.008 0-3.6.003-6.807 2.158-8.171 5.49-.023.057-.046.114-.068.172l-22.152 58.164c-1.475 3.871.467 8.204 4.339 9.679zm26.033-47.281 6.901 18.286h-13.865z"/><path d="m202.489 102.539c3.248 0 6.342-.671 9.153-1.878 1.262 2.365 3.752 3.976 6.619 3.976 4.142 0 7.5-3.358 7.5-7.5v-35.74c0-4.142-3.358-7.5-7.5-7.5-2.868 0-5.357 1.611-6.619 3.976-2.811-1.207-5.905-1.878-9.153-1.878-12.833 0-23.272 10.44-23.272 23.272s10.44 23.272 23.272 23.272zm0-31.545c4.562 0 8.272 3.711 8.272 8.272s-3.711 8.272-8.272 8.272-8.272-3.711-8.272-8.272 3.711-8.272 8.272-8.272z"/><path d="m252.369 104.637h140.526c4.142 0 7.5-3.358 7.5-7.5s-3.358-7.5-7.5-7.5h-140.526c-4.142 0-7.5 3.358-7.5 7.5s3.358 7.5 7.5 7.5z"/><path d="m392.895 126.056h-273.79c-4.142 0-7.5 3.358-7.5 7.5s3.358 7.5 7.5 7.5h273.79c4.142 0 7.5-3.358 7.5-7.5s-3.358-7.5-7.5-7.5z"/><path d="m392.895 262.39h-94.735c-4.142 0-7.5 3.358-7.5 7.5s3.358 7.5 7.5 7.5h94.735c4.142 0 7.5-3.358 7.5-7.5s-3.358-7.5-7.5-7.5z"/><path d="m392.895 296.385h-151.371c-4.142 0-7.5 3.358-7.5 7.5s3.358 7.5 7.5 7.5h151.371c4.142 0 7.5-3.358 7.5-7.5s-3.358-7.5-7.5-7.5z"/><path d="m392.895 330.379h-151.371c-4.142 0-7.5 3.358-7.5 7.5s3.358 7.5 7.5 7.5h151.371c4.142 0 7.5-3.358 7.5-7.5s-3.358-7.5-7.5-7.5z"/><path d="m392.895 364.374h-151.371c-4.142 0-7.5 3.358-7.5 7.5s3.358 7.5 7.5 7.5h151.371c4.142 0 7.5-3.358 7.5-7.5s-3.358-7.5-7.5-7.5z"/><path d="m392.895 398.369h-151.371c-4.142 0-7.5 3.358-7.5 7.5s3.358 7.5 7.5 7.5h151.371c4.142 0 7.5-3.358 7.5-7.5s-3.358-7.5-7.5-7.5z"/><path d="m392.895 432.364h-151.371c-4.142 0-7.5 3.358-7.5 7.5s3.358 7.5 7.5 7.5h151.371c4.142 0 7.5-3.358 7.5-7.5s-3.358-7.5-7.5-7.5z"/><path d="m351.182 466.358h-109.658c-4.142 0-7.5 3.358-7.5 7.5s3.358 7.5 7.5 7.5h109.657c4.142 0 7.5-3.358 7.5-7.5s-3.357-7.5-7.499-7.5z"/></g></g></g></svg>