<svg id="Capa_1" enable-background="new 0 0 512 512" height="512" viewBox="0 0 512 512" width="512" xmlns="http://www.w3.org/2000/svg"><g><g><g><path d="m397.299 494.615c17.875 0 32.365-14.49 32.365-32.365v-373.164h-30.867c-6.807 0-12.324-5.518-12.324-12.324v-61.683c0-4.776-2.628-9.187-6.86-11.399-4.585-2.395-9.718-3.68-14.985-3.68h-295.821c-17.875 0-32.365 14.49-32.365 32.365v447.271c0 2.733.34 5.385.98 7.919 1.059 4.195 4.944 7.062 9.271 7.062h350.606z" fill="#eaf2ff"/><path d="m419.362 89.086v363.893c0 17.874-14.49 32.365-32.365 32.365h-350.043c2.698 15.15 15.927 26.656 31.853 26.656h374.387c17.875 0 32.365-14.49 32.365-32.365v-368.705c0-4.739-1.041-9.371-2.994-13.59-2.341-5.056-7.451-8.253-13.022-8.253h-40.181z" fill="#c9e0fd"/><path d="m466.079 88.045-78.566-78.566c-2.767-2.767-5.986-4.973-9.479-6.564v82.285c0 6.807 5.518 12.324 12.324 12.324h82.284c-1.59-3.493-3.797-6.713-6.563-9.479z" fill="#e7a561"/></g><g><g><path d="m418.902 183.779h-325.804c-4.267 0-7.726-3.459-7.726-7.726s3.459-7.726 7.726-7.726h325.804c4.267 0 7.726 3.459 7.726 7.726s-3.459 7.726-7.726 7.726z" fill="#60a0f7"/></g><g><path d="m418.902 253.83h-325.804c-4.267 0-7.726-3.459-7.726-7.726s3.459-7.726 7.726-7.726h325.804c4.267 0 7.726 3.459 7.726 7.726s-3.459 7.726-7.726 7.726z" fill="#60a0f7"/></g><g><path d="m418.902 323.881h-325.804c-4.267 0-7.726-3.459-7.726-7.726s3.459-7.726 7.726-7.726h325.804c4.267 0 7.726 3.459 7.726 7.726s-3.459 7.726-7.726 7.726z" fill="#60a0f7"/></g><g><path d="m340.253 393.932h-247.155c-4.267 0-7.726-3.459-7.726-7.726s3.459-7.726 7.726-7.726h247.155c4.267 0 7.726 3.459 7.726 7.726s-3.458 7.726-7.726 7.726z" fill="#60a0f7"/></g></g></g></g></svg>