<?xml version="1.0" encoding="utf-8"?>
<!-- Generator: Adobe Illustrator 23.0.1, SVG Export Plug-In . SVG Version: 6.00 Build 0)  -->
<svg version="1.1" id="Layer_1" xmlns="http://www.w3.org/2000/svg" xmlns:xlink="http://www.w3.org/1999/xlink" x="0px" y="0px"
	 viewBox="0 0 50 50" style="enable-background:new 0 0 50 50;" xml:space="preserve">
<style type="text/css">
	.st0{fill:#01B050;}
</style>
<g>
	<path class="st0" d="M25,46.8c-0.5,0-1-0.5-0.9-1c0-0.5,0.5-0.9,1-0.9c0.5,0,1,0.5,0.9,1C25.9,46.4,25.5,46.9,25,46.8z"/>
	<path class="st0" d="M49.4,33.9c-0.1-5.8-4.3-11-10-12.2c-0.7-0.1-1.4-0.2-2-0.3c-0.1-0.3,0-0.5,0.3-0.7c2.1-1.4,3.1-3.4,3.1-5.9
		c0-1.6,0-3.2,0-4.8c0-3.2-2.3-5.9-5.5-6.6c-3-0.7-6.2,0.9-7.6,3.8c-0.2,0.4-0.3,0.8-0.5,1.2c-1.5,0-3,0-4.5,0
		c0-0.1-0.1-0.2-0.1-0.3c-1.1-3.3-4.3-5.3-7.7-4.7C11.6,3.8,9.2,6.7,9.2,10c0,1.6,0,3.2,0,4.8c0,2.5,1.1,4.4,3.2,5.8
		c0.3,0.2,0.4,0.4,0.3,0.7c-0.1,0-0.1,0-0.2,0c-5.2,0.4-9.6,3.9-11.2,8.9c-0.3,0.9-0.4,1.9-0.6,2.8c0,1.7,0,3.3,0,5
		c0.3,0.5,0.7,0.7,1.3,0.7c2.1,0,4.1,0,6.2,0c0.2,0,0.3,0,0.5,0c-0.1,0.7-0.3,1.2-0.3,1.8c-0.1,1.7-0.1,3.4-0.1,5.1
		c0,0.9,0.3,1.3,1.3,1.3c3.7,0,7.3,0,11,0c0.1,0,0.3,0,0.4,0c0.5-0.1,0.8-0.5,0.8-0.9c0-0.5-0.4-0.9-0.8-0.9c-0.2,0-0.3,0-0.5,0
		c-3.2,0-6.5,0-9.7,0c-0.2,0-0.3,0-0.5,0c0-1.2,0-2.3,0-3.4c0-0.4,0-0.9,0.1-1.3c0.9-5.5,5.2-9.6,10.9-10.2c0.3,0,0.4,0.1,0.6,0.3
		c0.8,1.3,1.6,2.6,2.4,4c0.6,0.9,1.3,0.9,1.9,0c0.8-1.3,1.6-2.6,2.4-3.9c0.1-0.1,0.3-0.3,0.5-0.3c4.7,0.5,8.1,2.9,10.1,7.2
		c1.1,2.4,1,5,0.9,7.5c0,0,0,0-0.1,0.1c-3.4,0-6.7,0-10.1,0c-0.2,0-0.4,0-0.5,0c-0.5,0.1-0.8,0.5-0.8,0.9c0,0.5,0.3,0.9,0.8,1
		c0.1,0,0.3,0,0.4,0c3.7,0,7.3,0,11,0c0.9,0,1.3-0.3,1.2-1.2c0-2.3,0.2-4.6-0.4-7c0.2,0,0.4,0,0.6,0c2.1,0,4.3,0,6.4,0
		c0.7,0,1.1-0.4,1.1-1.1C49.4,36.3,49.4,35.1,49.4,33.9z M38.4,17.1c-1.1,2-3.4,3.2-5.6,2.6c-0.2-0.1-0.3-0.1-0.3-0.4
		c0-2.1,0-4.1,0-6.2c0-0.1,0-0.1,0-0.3c2.1,0,4.3,0,6.4,0C38.9,14.2,39.1,15.7,38.4,17.1z M32.4,21.7c1.1,0,2,0,3.1,0
		c0.2,1.4-1,2.2-1.4,3.4c-0.6-1-1.1-1.8-1.6-2.6C32.3,22.2,32.4,21.9,32.4,21.7z M29.4,8c0.9-2.1,3.3-3.3,5.6-2.9
		c2.2,0.5,3.9,2.5,3.9,4.8c0,0.6-0.3,1-0.8,1c-1.9,0-3.7,0-5.7,0c0-0.6,0-1.1,0-1.6c0-0.7-0.4-1-1-1c-0.7,0-1.4,0-2.1,0
		C29.3,8.2,29.4,8.1,29.4,8z M22.8,10.3c2.6-0.1,5.1,0,7.8,0c0,1.2,0.1,2.3,0,3.4c-0.1,1.7-1.5,3.1-3.2,3.2c-2.6,0.1-5.2,0-7.9,0
		c0.1-1.3,0-2.7,0.3-4C20,11.3,21.2,10.3,22.8,10.3z M15.5,5.1c2.3-0.3,4.8,1.3,5.3,3.5c0,0,0,0.1,0,0.2c-1,0.5-1.7,1.1-2.3,1.9
		c-0.1,0.1-0.3,0.2-0.4,0.2c-2,0-4.1,0-6.1,0c-0.6,0-0.9-0.3-0.9-0.9C11,7.6,12.9,5.5,15.5,5.1z M11.1,15.1c0-0.8,0-1.6,0-2.3
		c2.2,0,4.4,0,6.5,0c0,2.2,0,4.3,0,6.4c0,0.3-0.1,0.4-0.3,0.5C14.3,20.4,11.2,18.2,11.1,15.1z M16.1,25.1c-0.6-0.9-1.1-1.7-1.5-2.6
		c-0.1-0.2,0-0.6,0-0.9c1,0,2,0,3,0C17.8,23,16.5,23.8,16.1,25.1z M9.2,36.7c-2.2,0-4.4,0-6.7,0c0-1.3-0.1-2.5,0-3.8
		c0.5-4.5,3.6-8.1,7.9-9.3c0.6-0.2,1.2-0.2,1.9-0.3c0.3,0,0.4,0,0.6,0.3c0.7,1.2,1.4,2.4,2.1,3.5c0.6,0.9,1.3,0.9,1.9,0
		c0.5-0.8,1-1.6,1.5-2.5c0.7,1.2,1.6,2.1,2.7,2.8c0.2,0.1,0.2,0.5,0.2,0.7C15.7,28.7,11.6,31.5,9.2,36.7z M26.4,30
		c-0.5,0.7-0.9,1.4-1.4,2.2c-0.6-1-1.2-1.8-1.6-2.7c-0.2-0.3-0.1-0.8-0.1-1.2c1.2,0,2.3,0,3.4,0C26.7,28.9,26.8,29.5,26.4,30z
		 M24.3,26.4c-2.4-0.2-4.4-2.2-4.8-4.6c-0.1-1,0-2,0-3.1c0.4,0,0.9,0,1.3,0c1.6,0,3.3,0,4.9,0c1.7,0,3.3-0.1,4.8-1.3
		c-0.2,1.9,0.3,3.8-0.4,5.5C29.3,25.3,26.9,26.7,24.3,26.4z M47.5,36.7c-0.2,0-0.3,0-0.5,0c-2,0-3.9,0-5.9,0c-0.3,0-0.5-0.1-0.6-0.4
		c-2.2-4.6-5.8-7.3-10.8-8.1c-0.2,0-0.4,0-0.6-0.1c-0.2,0-0.4,0-0.5-0.1c-0.1-0.5,0-0.7,0.4-1c1-0.6,1.8-1.5,2.4-2.5
		c0.1,0.1,0.2,0.2,0.2,0.3c0.5,0.8,0.9,1.5,1.4,2.3c0.5,0.8,1.3,0.8,1.8,0c0.7-1.2,1.5-2.4,2.2-3.6c0.2-0.3,0.4-0.4,0.7-0.4
		c4.7,0.4,8.8,4.1,9.6,8.8c0.1,0.6,0.2,1.2,0.2,1.8C47.5,34.8,47.5,35.7,47.5,36.7z"/>
</g>
</svg>
