<?xml version="1.0" encoding="utf-8"?>
<!-- Generator: Adobe Illustrator 23.0.1, SVG Export Plug-In . SVG Version: 6.00 Build 0)  -->
<svg version="1.1" id="Layer_1" xmlns="http://www.w3.org/2000/svg" xmlns:xlink="http://www.w3.org/1999/xlink" x="0px" y="0px"
	 viewBox="0 0 48 48" style="enable-background:new 0 0 48 48;" xml:space="preserve">
<style type="text/css">
	.st0{fill:#005596;}
</style>
<g>
	<g>
		<g>
			<path class="st0" d="M45.9,11.7c0-0.6,0-1.2-0.2-1.8c-0.6-2.6-2.8-4.3-5.5-4.4c-1.7,0-3.4,0-5,0c-0.7,0-0.9-0.2-0.8-0.9
				c0-0.9,0-1.7,0-2.6c0-0.7-0.5-1.2-1-1.2c-0.6,0-1,0.5-1,1.2c0,0.9,0,1.8,0,2.6c0,0.6-0.2,0.8-0.8,0.8c-1.6,0-3.3,0-4.9,0
				c-3.3,0-6.5,0-9.8,0c-1,0-1,0-1-1.1c0-0.8,0-1.5,0-2.3c0-0.7-0.4-1.2-1-1.2c-0.6,0-1,0.5-1,1.2c0,0.9,0,1.7,0,2.6
				c0,0.6-0.2,0.8-0.8,0.8c-1.6,0-3.2,0-4.8,0c-3.6,0-6,2.4-6,6c0,9.8,0,19.6,0,29.4c0,0.6,0.1,1.2,0.2,1.8C3,45.4,5.2,47,8,47
				c5.3,0,10.6,0,15.9,0c5.3,0,10.6,0,15.9,0c1,0,2-0.1,2.9-0.6c2.3-1.2,3.2-3.1,3.2-5.6C45.9,31.1,45.9,21.4,45.9,11.7z M43.8,40.8
				c0,2.8-1.4,4.2-4.2,4.2c-10.5,0-20.9,0-31.4,0c-1.4,0-2.6-0.4-3.4-1.6c-0.5-0.7-0.7-1.4-0.7-2.2c0-7,0-14.1,0-21.1
				c0-0.7,0.2-0.8,0.9-0.8c6.3,0,12.7,0,19,0c6.3,0,12.5,0,18.8,0c1.1,0,1.1,0,1.1,1.1C43.8,27.1,43.8,33.9,43.8,40.8z M43.8,16.5
				c0,0.6-0.4,0.6-0.8,0.6c-3.6,0-7.2,0-10.8,0c-2.7,0-5.5,0-8.2,0c-6.2,0-12.5,0-18.7,0c-1.1,0-1.1,0-1.1-1.1c0-1.5,0-3,0-4.6
				c0-2.4,1.5-3.9,3.9-3.9c1.6,0,3.2,0,4.8,0c0.8,0,0.9,0,0.9,0.9c0,0.8,0,1.7,0,2.5c0,0.8,0.4,1.2,1,1.2c0.6,0,1-0.5,1-1.3
				c0-0.9,0-1.8,0-2.6c0-0.5,0.1-0.7,0.7-0.7c5,0,10.1,0,15.1,0c0.5,0,0.7,0.2,0.7,0.7c0,0.9,0,1.8,0,2.6c0,0.8,0.4,1.2,1,1.2
				c0.6,0,1-0.5,1-1.2c0-0.9,0-1.8,0-2.6c0-0.5,0.2-0.8,0.7-0.8c1.7,0,3.4,0,5.2,0c2,0,3.5,1.5,3.6,3.5
				C43.9,12.9,43.8,14.7,43.8,16.5z"/>
		</g>
	</g>
	<g>
		<path class="st0" d="M32.9,36.2c-2.8,0-5-2.2-5-5s2.2-5,5-5s5,2.2,5,5S35.7,36.2,32.9,36.2z M32.9,28.2c-1.7,0-3,1.3-3,3
			s1.3,3,3,3c1.7,0,3-1.3,3-3S34.5,28.2,32.9,28.2z"/>
	</g>
</g>
</svg>
