<?xml version="1.0" encoding="utf-8"?>
<!-- Generator: Adobe Illustrator 23.0.1, SVG Export Plug-In . SVG Version: 6.00 Build 0)  -->
<svg version="1.1" id="Layer_1" xmlns="http://www.w3.org/2000/svg" xmlns:xlink="http://www.w3.org/1999/xlink" x="0px" y="0px"
	 viewBox="0 0 48 48" style="enable-background:new 0 0 48 48;" xml:space="preserve">
<style type="text/css">
	.st0{fill:#404751;}
	.st1{fill:none;stroke:#404751;stroke-width:2;stroke-linecap:round;stroke-miterlimit:10;}
</style>
<g>
	<path class="st0" d="M38.7,46.3H9.3c-4.2,0-7.6-3.4-7.6-7.6V9.3c0-4.2,3.4-7.6,7.6-7.6h29.5c4.2,0,7.6,3.4,7.6,7.6v29.5
		C46.3,42.9,42.9,46.3,38.7,46.3z M9.3,3.8c-3,0-5.5,2.5-5.5,5.5v29.5c0,3,2.5,5.5,5.5,5.5h29.5c3,0,5.5-2.5,5.5-5.5V9.3
		c0-3-2.5-5.5-5.5-5.5H9.3z"/>
</g>
<path class="st1" d="M12.9,24.7l5.8,5.4c0.8,0.7,2,0.7,2.8,0l13.6-13.5"/>
</svg>
