<?xml version="1.0" encoding="utf-8"?>
<!-- Generator: Adobe Illustrator 23.0.1, SVG Export Plug-In . SVG Version: 6.00 Build 0)  -->
<svg version="1.1" id="Layer_1" xmlns="http://www.w3.org/2000/svg" xmlns:xlink="http://www.w3.org/1999/xlink" x="0px" y="0px"
	 viewBox="0 0 849.8 447" style="enable-background:new 0 0 849.8 447;" xml:space="preserve">
<style type="text/css">
	.st0{fill:#004E97;}
	.st1{opacity:0.2;}
	.st2{fill:#FFFFFF;}
</style>
<g>
	<g>
		<path class="st0" d="M511.8,290.4h-172c-10.6,0-19.2-8.6-19.2-19.2v-30c0-10.6,8.6-19.2,19.2-19.2h7.1c1.2,0,2.2,1,2.2,2.2
			s-1,2.2-2.2,2.2h-7.1c-8.2,0-14.9,6.7-14.9,14.9v30c0,8.2,6.7,14.9,14.9,14.9h172c8.2,0,14.9-6.7,14.9-14.9v-30
			c0-8.2-6.7-14.9-14.9-14.9h-6.5c-1.2,0-2.2-1-2.2-2.2s1-2.2,2.2-2.2h6.5c10.6,0,19.2,8.6,19.2,19.2v30
			C530.9,281.8,522.3,290.4,511.8,290.4z"/>
	</g>
	<g>
		<path class="st0" d="M522.9,195.3c-6,0-10.9-4.9-10.9-10.9c0-6,4.9-10.9,10.9-10.9s10.9,4.9,10.9,10.9
			C533.8,190.4,528.9,195.3,522.9,195.3z M522.9,177.8c-3.6,0-6.6,2.9-6.6,6.6c0,3.6,2.9,6.6,6.6,6.6c3.6,0,6.6-2.9,6.6-6.6
			C529.5,180.8,526.5,177.8,522.9,177.8z"/>
	</g>
	<g>
		<path class="st0" d="M339.8,165.6c-5.2,0-9.4-4.2-9.4-9.4c0-5.2,4.2-9.4,9.4-9.4c5.2,0,9.4,4.2,9.4,9.4
			C349.2,161.3,345,165.6,339.8,165.6z M339.8,151c-2.8,0-5.1,2.3-5.1,5.1c0,2.8,2.3,5.1,5.1,5.1s5.1-2.3,5.1-5.1
			C344.9,153.3,342.6,151,339.8,151z"/>
	</g>
	<g>
		<circle class="st0" cx="384.5" cy="127.9" r="3"/>
	</g>
	<g>
		<circle class="st0" cx="476.4" cy="129.3" r="3"/>
	</g>
	<g>
		<circle class="st0" cx="439.3" cy="114.6" r="3"/>
	</g>
	<g>
		<path class="st0" d="M450.5,308.1H325.3c-1.2,0-2.2-1-2.2-2.2s1-2.2,2.2-2.2h125.3c1.2,0,2.2,1,2.2,2.2S451.7,308.1,450.5,308.1z"
			/>
	</g>
	<g>
		<path class="st0" d="M493.4,317.2h-68.9c-1.2,0-2.2-1-2.2-2.2s1-2.2,2.2-2.2h68.9c1.2,0,2.2,1,2.2,2.2S494.6,317.2,493.4,317.2z"
			/>
	</g>
	<g>
		<path class="st0" d="M525.5,324.2h-16.6c-1.2,0-2.2-1-2.2-2.2s1-2.2,2.2-2.2h16.6c1.2,0,2.2,1,2.2,2.2S526.7,324.2,525.5,324.2z"
			/>
	</g>
	<g>
		<path class="st0" d="M501.7,324.2h-0.2c-1.2,0-2.2-1-2.2-2.2s1-2.2,2.2-2.2h0.2c1.2,0,2.2,1,2.2,2.2S502.9,324.2,501.7,324.2z"/>
	</g>
	<g>
		<g>
			<path class="st0" d="M441.6,326.7h-68.9c-1.2,0-2.2-1-2.2-2.2s1-2.2,2.2-2.2h68.9c1.2,0,2.2,1,2.2,2.2S442.8,326.7,441.6,326.7z"
				/>
		</g>
		<g>
			<path class="st0" d="M364.7,326.7h-0.2c-1.2,0-2.2-1-2.2-2.2s1-2.2,2.2-2.2h0.2c1.2,0,2.2,1,2.2,2.2S365.9,326.7,364.7,326.7z"/>
		</g>
	</g>
	<g>
		<path class="st0" d="M486.1,252.6H365.5c-5.1,0-9.3-4.2-9.3-9.3v-86.2c0-5.1,4.2-9.3,9.3-9.3h19.9c1.2,0,2.2,1,2.2,2.2
			s-1,2.2-2.2,2.2h-19.9c-2.7,0-4.9,2.2-4.9,4.9v86.2c0,2.7,2.2,4.9,4.9,4.9h120.5c2.7,0,4.9-2.2,4.9-4.9v-86.2
			c0-2.7-2.2-4.9-4.9-4.9h-19c-1.2,0-2.2-1-2.2-2.2s1-2.2,2.2-2.2h19c5.1,0,9.3,4.2,9.3,9.3v86.2
			C495.3,248.4,491.2,252.6,486.1,252.6z"/>
	</g>
	<g>
		<g>
			<path class="st0" d="M431.5,272.3c-1.2,0-2.2-1-2.2-2.2V251c0-1.2,1-2.2,2.2-2.2c1.2,0,2.2,1,2.2,2.2v19.1
				C433.6,271.4,432.7,272.3,431.5,272.3z"/>
		</g>
		<g>
			<path class="st0" d="M420.1,272.3c-1.2,0-2.2-1-2.2-2.2V251c0-1.2,1-2.2,2.2-2.2s2.2,1,2.2,2.2v19.1
				C422.3,271.4,421.3,272.3,420.1,272.3z"/>
		</g>
	</g>
	<g>
		<path class="st0" d="M459.3,274.5h-66.9c-1.2,0-2.2-1-2.2-2.2s1-2.2,2.2-2.2h66.9c1.2,0,2.2,1,2.2,2.2S460.5,274.5,459.3,274.5z"
			/>
	</g>
	<g>
		<path class="st0" d="M467.7,237.6h-83.7v-91.6c0-5.4,4.4-9.8,9.8-9.8h64.2c5.4,0,9.8,4.4,9.8,9.8V237.6z M388,233.6h75.6v-87.5
			c0-3.2-2.6-5.7-5.7-5.7h-64.2c-3.2,0-5.7,2.6-5.7,5.7V233.6z"/>
	</g>
	<g>
		<path class="st0" d="M481.1,237.7H370.5c-1.1,0-2-0.9-2-2s0.9-2,2-2h110.6c1.1,0,2,0.9,2,2S482.2,237.7,481.1,237.7z"/>
	</g>
	<g>
		<path class="st0" d="M453.2,161.7H417c-1.1,0-2-0.9-2-2s0.9-2,2-2h36.2c1.1,0,2,0.9,2,2S454.3,161.7,453.2,161.7z"/>
	</g>
	<g>
		<path class="st0" d="M453.2,188.2H417c-1.1,0-2-0.9-2-2s0.9-2,2-2h36.2c1.1,0,2,0.9,2,2S454.3,188.2,453.2,188.2z"/>
	</g>
	<g>
		<path class="st0" d="M453.2,214.8H417c-1.1,0-2-0.9-2-2s0.9-2,2-2h36.2c1.1,0,2,0.9,2,2S454.3,214.8,453.2,214.8z"/>
	</g>
	<g>
		<path class="st0" d="M405.2,220.2h-8.8c-1.6,0-3-1.3-3-3v-8.8c0-1.6,1.3-3,3-3h8.8c1.6,0,3,1.3,3,3v8.8
			C408.1,218.8,406.8,220.2,405.2,220.2z M397.5,216.1h6.6v-6.6h-6.6V216.1z"/>
	</g>
	<g>
		<path class="st0" d="M405.2,193.6h-8.8c-1.6,0-3-1.3-3-3v-8.8c0-1.6,1.3-3,3-3h8.8c1.6,0,3,1.3,3,3v8.8
			C408.1,192.2,406.8,193.6,405.2,193.6z M397.5,189.5h6.6v-6.6h-6.6V189.5z"/>
	</g>
	<g>
		<path class="st0" d="M399.3,165.2c-0.6,0-1.3-0.3-1.7-0.8l-4.8-5.2c-0.8-0.8-0.7-2.1,0.1-2.9c0.8-0.8,2.1-0.7,2.9,0.1l3.7,3.9
			l7.6-7.1c0.8-0.8,2.1-0.7,2.9,0.1c0.8,0.8,0.7,2.1-0.1,2.9l-8.9,8.2C400.5,165,399.9,165.2,399.3,165.2z"/>
	</g>
</g>
<g class="st1">
	<g>
		<path class="st0" d="M425.8,410.3c-98.5,0-178.7-80.1-178.7-178.7S327.3,53,425.8,53s178.7,80.1,178.7,178.7
			S524.3,410.3,425.8,410.3z M425.8,59c-95.2,0-172.7,77.5-172.7,172.7s77.5,172.7,172.7,172.7s172.7-77.5,172.7-172.7
			S521,59,425.8,59z"/>
	</g>
</g>
<g>
	<circle class="st2" cx="284.1" cy="226.5" r="19.7"/>
</g>
<g class="st1">
	<g>
		<path class="st0" d="M364.7,57.4c-0.8,0-1.6-0.1-2.4-0.3c-2.4-0.6-4.4-2.2-5.7-4.4c-1.3-2.2-1.6-4.7-0.9-7.1
			c0.6-2.4,2.2-4.4,4.4-5.7c4.5-2.6,10.2-1,12.8,3.4c2.6,4.5,1,10.2-3.4,12.8C368,57,366.4,57.4,364.7,57.4z M364.7,44.6
			c-0.6,0-1.2,0.1-1.7,0.5c-0.8,0.5-1.3,1.2-1.6,2.1c-0.2,0.9-0.1,1.8,0.3,2.6c0.5,0.8,1.2,1.3,2.1,1.6c0.9,0.2,1.8,0.1,2.6-0.3
			c1.6-0.9,2.2-3,1.2-4.6C367,45.2,365.9,44.6,364.7,44.6z"/>
	</g>
</g>
<g class="st1">
	<g>
		<path class="st0" d="M410.9,129.4c-1.2,0-2.5-0.2-3.7-0.5c-3.7-1-6.7-3.3-8.6-6.6c-1.9-3.3-2.4-7.1-1.4-10.8
			c1-3.7,3.3-6.7,6.6-8.6c6.8-3.9,15.5-1.6,19.4,5.2c1.9,3.3,2.4,7.1,1.4,10.8c-1,3.7-3.3,6.7-6.6,8.6
			C415.8,128.7,413.4,129.4,410.9,129.4z M410.9,107c-1.4,0-2.8,0.4-4.1,1.1c-1.9,1.1-3.2,2.9-3.8,5s-0.3,4.3,0.8,6.2
			c1.1,1.9,2.9,3.2,5,3.8c2.1,0.6,4.3,0.3,6.2-0.8l0,0c1.9-1.1,3.2-2.9,3.8-5c0.6-2.1,0.3-4.3-0.8-6.2
			C416.4,108.5,413.7,107,410.9,107z"/>
	</g>
</g>
<g>
	<circle class="st2" cx="311.4" cy="153" r="11.2"/>
</g>
<g class="st1">
	<g>
		<g>
			<path class="st0" d="M619.1,200.7c-9.8,0-17.8-8-17.8-17.8s8-17.8,17.8-17.8s17.8,8,17.8,17.8
				C636.9,192.7,628.9,200.7,619.1,200.7z M619.1,171.1c-6.5,0-11.8,5.3-11.8,11.8s5.3,11.8,11.8,11.8s11.8-5.3,11.8-11.8
				S625.6,171.1,619.1,171.1z"/>
		</g>
	</g>
	<g>
		<g>
			<path class="st0" d="M581.8,121c-5,0-9.1-4.1-9.1-9.1s4.1-9.1,9.1-9.1s9.1,4.1,9.1,9.1S586.8,121,581.8,121z M581.8,108.8
				c-1.7,0-3.1,1.4-3.1,3.1s1.4,3.1,3.1,3.1s3.1-1.4,3.1-3.1S583.5,108.8,581.8,108.8z"/>
		</g>
	</g>
</g>
<g class="st1">
	<g>
		<g>
			<path class="st0" d="M308.1,234.6c-7,0-13.8-4-17-10.8c-4.4-9.3-0.3-20.5,9-24.9s20.5-0.3,24.9,9l0,0c2.1,4.5,2.3,9.6,0.6,14.3
				s-5.1,8.5-9.7,10.6C313.4,234,310.8,234.6,308.1,234.6z M308.1,203.2c-1.8,0-3.6,0.4-5.4,1.2c-6.4,3-9.1,10.6-6.1,16.9
				c3,6.4,10.6,9.1,16.9,6.1c3.1-1.4,5.4-4,6.6-7.2s1-6.6-0.4-9.7C317.4,205.9,312.8,203.2,308.1,203.2z"/>
		</g>
	</g>
	<g>
		<g>
			<path class="st0" d="M240.3,173.9c-1.1,0-2.2-0.2-3.2-0.6c-2.4-0.9-4.3-2.6-5.4-4.9c-2.2-4.7-0.2-10.4,4.6-12.6
				c4.7-2.2,10.4-0.2,12.6,4.6c1.1,2.3,1.2,4.9,0.3,7.3s-2.6,4.3-4.9,5.4C243.1,173.6,241.7,173.9,240.3,173.9z M240.3,160.9
				c-0.5,0-1,0.1-1.5,0.3c-1.7,0.8-2.5,2.9-1.7,4.7c0.8,1.7,2.9,2.5,4.7,1.7c0.8-0.4,1.5-1.1,1.8-2s0.3-1.8-0.1-2.7
				C242.9,161.7,241.6,160.9,240.3,160.9z"/>
		</g>
	</g>
</g>
<g class="st1">
	<g>
		<path class="st0" d="M193.7,211.8H97c-1.9,0-3.5-1.6-3.5-3.5s1.6-3.5,3.5-3.5h96.6c1.9,0,3.5,1.6,3.5,3.5S195.6,211.8,193.7,211.8
			z"/>
	</g>
</g>
<g class="st1">
	<g>
		<path class="st0" d="M219.5,302.5h-96.6c-1.9,0-3.5-1.6-3.5-3.5s1.6-3.5,3.5-3.5h96.6c1.9,0,3.5,1.6,3.5,3.5
			S221.4,302.5,219.5,302.5z"/>
	</g>
</g>
<g class="st1">
	<g>
		<path class="st0" d="M215.2,259.9H38.7c-1.9,0-3.5-1.6-3.5-3.5s1.6-3.5,3.5-3.5h176.5c1.9,0,3.5,1.6,3.5,3.5
			C218.7,258.4,217.1,259.9,215.2,259.9z"/>
	</g>
</g>
<g>
	<g class="st1">
		<g>
			<path class="st0" d="M755.8,211.8h-96.6c-1.9,0-3.5-1.6-3.5-3.5s1.6-3.5,3.5-3.5h96.6c1.9,0,3.5,1.6,3.5,3.5
				S757.7,211.8,755.8,211.8z"/>
		</g>
	</g>
	<g class="st1">
		<g>
			<path class="st0" d="M729.9,302.5h-96.6c-1.9,0-3.5-1.6-3.5-3.5s1.6-3.5,3.5-3.5h96.6c1.9,0,3.5,1.6,3.5,3.5
				S731.9,302.5,729.9,302.5z"/>
		</g>
	</g>
	<g class="st1">
		<g>
			<path class="st0" d="M814.1,259.9H637.6c-1.9,0-3.5-1.6-3.5-3.5s1.6-3.5,3.5-3.5h176.5c1.9,0,3.5,1.6,3.5,3.5
				C817.6,258.4,816,259.9,814.1,259.9z"/>
		</g>
	</g>
</g>
<g class="st1">
	<g>
		<path class="st0" d="M314.4,330.5l-2.1-2.5c-24.2-28.4-36.7-64.7-35.3-102.1c1.4-37.6,16.9-73,43.5-99.6s62-42.1,99.6-43.5
			c37.4-1.4,73.7,11.1,102.1,35.3l2.5,2.1l-2.3,2.3L314.4,330.5z M425.9,88.9c-36.8,0-73.6,14-101.2,41.6
			c-51.5,51.5-55.6,134.8-10,191.1l201-201C489.7,99.4,457.8,88.9,425.9,88.9z"/>
	</g>
	<g>
		<path class="st0" d="M425.8,380.6c-35.4,0-69.4-12.5-96.4-35.4l-2.5-2.1l210.3-210.3l2.1,2.5c24.2,28.4,36.7,64.7,35.3,102.1
			c-1.4,37.6-16.9,73-43.5,99.6c-26.6,26.6-62,42.1-99.6,43.5C429.6,380.5,427.6,380.6,425.8,380.6z M335.8,342.7
			c56.2,45.7,139.5,41.5,191.1-10c51.5-51.5,55.6-134.8,10-191.1L335.8,342.7z"/>
	</g>
</g>
<g>
	
		<rect x="278.1" y="225" transform="matrix(0.7071 -0.7071 0.7071 0.7071 -41.2888 367.9833)" class="st2" width="291" height="17.7"/>
</g>
</svg>
