<?xml version="1.0" encoding="utf-8"?>
<!-- Generator: Adobe Illustrator 23.0.1, SVG Export Plug-In . SVG Version: 6.00 Build 0)  -->
<svg version="1.1" id="Layer_1" xmlns="http://www.w3.org/2000/svg" xmlns:xlink="http://www.w3.org/1999/xlink" x="0px" y="0px"
	 viewBox="0 0 48 48" style="enable-background:new 0 0 48 48;" xml:space="preserve">
<style type="text/css">
	.st0{fill:#FECB36;}
</style>
<path class="st0" d="M24.2,3.5l5,15.4c0,0.1,0.1,0.1,0.2,0.1h16.2c0.2,0,0.3,0.2,0.1,0.3l-13.1,9.5c-0.1,0-0.1,0.1-0.1,0.2l5,15.4
	c0.1,0.2-0.1,0.3-0.3,0.2l-13.1-9.5c-0.1,0-0.2,0-0.2,0l-13.1,9.5c-0.2,0.1-0.4,0-0.3-0.2l5-15.4c0-0.1,0-0.2-0.1-0.2l-13-9.5
	C2.2,19.2,2.3,19,2.5,19h16.2c0.1,0,0.2-0.1,0.2-0.1l5-15.4C23.9,3.3,24.1,3.3,24.2,3.5z"/>
</svg>
