<?xml version="1.0" encoding="utf-8"?>
<!-- Generator: Adobe Illustrator 23.0.1, SVG Export Plug-In . SVG Version: 6.00 Build 0)  -->
<svg version="1.1" id="Layer_1" xmlns="http://www.w3.org/2000/svg" xmlns:xlink="http://www.w3.org/1999/xlink" x="0px" y="0px"
	 viewBox="0 0 48 48" style="enable-background:new 0 0 48 48;" xml:space="preserve">
<style type="text/css">
	.st0{fill:#404751;}
</style>
<g>
	<path class="st0" d="M37,45.2c-0.2,0-0.5-0.1-0.7-0.2l-12.3-9l-12.3,9c-0.4,0.3-1,0.3-1.4,0c-0.4-0.3-0.6-0.8-0.4-1.3l4.7-14.5
		l-12.3-9c-0.4-0.3-0.6-0.8-0.4-1.3c0.2-0.5,0.6-0.8,1.1-0.8h15.2l4.7-14.5C23,3.1,23.5,2.8,24,2.8s1,0.3,1.1,0.8l4.7,14.5h15.2
		c0.5,0,1,0.3,1.1,0.8c0.2,0.5,0,1-0.4,1.3l-12.3,9l4.7,14.5c0.2,0.5,0,1-0.4,1.3C37.5,45.2,37.3,45.2,37,45.2z M36.3,44.3
		C36.3,44.3,36.3,44.3,36.3,44.3L36.3,44.3z M5.4,20.1l10.8,7.8c0.4,0.3,0.6,0.8,0.4,1.3l-4.1,12.7l10.8-7.8c0.4-0.3,1-0.3,1.4,0
		l10.8,7.8l-4.1-12.7c-0.2-0.5,0-1,0.4-1.3l10.8-7.8H29.3c-0.5,0-1-0.3-1.1-0.8L24,6.6l-4.1,12.7c-0.2,0.5-0.6,0.8-1.1,0.8H5.4z
		 M15,29.5C15,29.5,15,29.5,15,29.5L15,29.5z M33,29.5L33,29.5C33,29.5,33,29.5,33,29.5z M44.6,18.6C44.6,18.6,44.6,18.6,44.6,18.6
		L44.6,18.6z"/>
</g>
</svg>
