<?xml version="1.0" encoding="utf-8"?>
<!-- Generator: Adobe Illustrator 23.0.1, SVG Export Plug-In . SVG Version: 6.00 Build 0)  -->
<svg version="1.1" id="Layer_1" xmlns="http://www.w3.org/2000/svg" xmlns:xlink="http://www.w3.org/1999/xlink" x="0px" y="0px"
	 viewBox="0 0 48 48" style="enable-background:new 0 0 48 48;" xml:space="preserve">
<style type="text/css">
	.st0{fill:#404751;}
</style>
<g>
	<g>
		<path class="st0" d="M38.7,46.3H9.3c-4.2,0-7.6-3.4-7.6-7.6V9.3c0-4.2,3.4-7.6,7.6-7.6h29.5c4.2,0,7.6,3.4,7.6,7.6v29.5
			C46.3,42.9,42.9,46.3,38.7,46.3z M9.3,3.8c-3,0-5.5,2.5-5.5,5.5v29.5c0,3,2.5,5.5,5.5,5.5h29.5c3,0,5.5-2.5,5.5-5.5V9.3
			c0-3-2.5-5.5-5.5-5.5H9.3z"/>
	</g>
	<g>
		<g>
			<path class="st0" d="M27.5,14.4H7.7c-0.6,0-1.1-0.5-1.1-1.1s0.5-1.1,1.1-1.1h19.8c0.6,0,1.1,0.5,1.1,1.1S28.1,14.4,27.5,14.4z"/>
		</g>
		<g>
			<path class="st0" d="M40.3,21.5H7.7c-0.6,0-1.1-0.5-1.1-1.1s0.5-1.1,1.1-1.1h32.6c0.6,0,1.1,0.5,1.1,1.1S40.9,21.5,40.3,21.5z"/>
		</g>
		<g>
			<path class="st0" d="M40.3,28.6H7.7c-0.6,0-1.1-0.5-1.1-1.1s0.5-1.1,1.1-1.1h32.6c0.6,0,1.1,0.5,1.1,1.1S40.9,28.6,40.3,28.6z"/>
		</g>
		<g>
			<path class="st0" d="M40.3,35.7H7.7c-0.6,0-1.1-0.5-1.1-1.1s0.5-1.1,1.1-1.1h32.6c0.6,0,1.1,0.5,1.1,1.1S40.9,35.7,40.3,35.7z"/>
		</g>
	</g>
</g>
</svg>
