<?xml version="1.0" encoding="utf-8"?>
<!-- Generator: Adobe Illustrator 23.0.1, SVG Export Plug-In . SVG Version: 6.00 Build 0)  -->
<svg version="1.1" id="Layer_1" xmlns="http://www.w3.org/2000/svg" xmlns:xlink="http://www.w3.org/1999/xlink" x="0px" y="0px"
	 viewBox="0 0 48 48" style="enable-background:new 0 0 48 48;" xml:space="preserve">
<style type="text/css">
	.st0{fill:#FF0000;}
</style>
<g>
	<path class="st0" d="M30.5,26.8c-0.8,0-1.2,0.6-1.2,1.4c0,1.9,0,3.7,0,5.6s0,3.7,0,5.6c0,0.2,0,0.4,0.1,0.6c0.2,0.6,0.8,1,1.4,0.9
		c0.7-0.1,1.1-0.6,1.1-1.4c0-3.8,0-7.5,0-11.3C31.8,27.4,31.3,26.8,30.5,26.8z"/>
	<path class="st0" d="M25.3,28.2c0-0.8-0.5-1.4-1.3-1.4c-0.7,0-1.3,0.6-1.3,1.3c0,3.8,0,7.6,0,11.4c0,0.2,0,0.4,0.1,0.7
		c0.3,0.5,0.8,0.8,1.4,0.7c0.6-0.1,1-0.6,1-1.2c0-1.9,0-3.8,0-5.8C25.3,32,25.3,30.1,25.3,28.2z"/>
	<path class="st0" d="M18.7,31.9c0-1.3,0-2.6,0-3.8c0-0.6-0.4-1.1-1-1.2c-0.6-0.1-1.2,0.2-1.4,0.7c-0.1,0.3-0.1,0.5-0.1,0.8
		c0,3.6,0,7.3,0,10.9c0,0.2,0,0.4,0,0.6c0.1,0.5,0.5,0.9,1,1c0.8,0.2,1.5-0.4,1.5-1.4c0-1.9,0-3.8,0-5.6
		C18.7,33.2,18.7,32.6,18.7,31.9z"/>
	<path class="st0" d="M43.5,10.8c-0.2-0.5-0.7-0.9-1.3-0.9c-3,0-6,0-9,0c-0.3,0-0.4-0.1-0.4-0.4c0-0.6,0-1.3,0-1.9
		c-0.1-1.8-0.8-3.2-2.2-4.2c-0.6-0.5-1.3-0.7-2.1-1c-3,0-5.9,0-8.9,0c0,0.1-0.2,0.1-0.3,0.1c-2.1,0.7-3.4,2-3.9,4.2
		c-0.2,0.9-0.1,1.9-0.1,2.8c0,0.3-0.1,0.4-0.4,0.4c-3,0-5.9,0-8.9,0c-0.2,0-0.4,0-0.6,0c-0.6,0.2-1,0.8-0.9,1.4
		C4.5,12,5,12.4,5.7,12.5c0.9,0,1.8,0,2.7,0c0.4,0,0.5,0.1,0.5,0.5c0,2.7,0,5.4,0,8.1c0,6.8,0,13.6,0,20.4c0,2.5,1.8,4.1,4,4.1
		c7.4,0,14.9,0,22.3,0c0.9,0,1.7-0.2,2.4-0.8c1.1-0.8,1.5-1.9,1.5-3.3c0-1.8,0-3.6,0-5.3c0-7.8,0-15.5,0-23.3c0-0.4,0.1-0.5,0.5-0.4
		c0.9,0,1.8,0,2.7,0C43.2,12.4,43.8,11.6,43.5,10.8z M17.8,9.5c0-0.5,0-1.1,0-1.6c0-1.7,1.3-3,3-3c2.2,0,4.3,0,6.5,0
		c1.7,0,2.9,1.3,3,3c0,0.6,0,1.1,0,1.7c0,0.3-0.1,0.3-0.4,0.3c-2,0-3.9,0-5.9,0c-1.9,0-3.9,0-5.8,0C17.8,9.9,17.7,9.9,17.8,9.5z
		 M36.6,41.4c0,1.1-0.5,1.6-1.6,1.6c-7.3,0-14.7,0-22,0c-1.1,0-1.6-0.5-1.6-1.6c0-4.7,0-9.5,0-14.2c0-4.8,0-9.6,0-14.3
		c0-0.3,0.1-0.4,0.4-0.4c8.1,0,16.2,0,24.3,0c0.4,0,0.5,0.1,0.5,0.5C36.6,22.4,36.6,31.9,36.6,41.4z"/>
</g>
</svg>
