<?xml version="1.0" encoding="utf-8"?>
<!-- Generator: Adobe Illustrator 23.0.1, SVG Export Plug-In . SVG Version: 6.00 Build 0)  -->
<svg version="1.1" id="Layer_1" xmlns="http://www.w3.org/2000/svg" xmlns:xlink="http://www.w3.org/1999/xlink" x="0px" y="0px"
	 viewBox="0 0 48 48" style="enable-background:new 0 0 48 48;" xml:space="preserve">
<style type="text/css">
	.st0{fill:#2DB268;}
	.st1{fill:#FFFFFF;}
</style>
<g>
	<path class="st0" d="M37.4,44.3H10.6c-3.8,0-6.9-3.1-6.9-6.9V10.6c0-3.8,3.1-6.9,6.9-6.9h26.8c3.8,0,6.9,3.1,6.9,6.9v26.8
		C44.3,41.2,41.2,44.3,37.4,44.3z"/>
</g>
<g>
	<g>
		<path class="st1" d="M24,37.5c-0.7,0-1.3-0.6-1.3-1.3V11.8c0-0.7,0.6-1.3,1.3-1.3s1.3,0.6,1.3,1.3v24.5
			C25.3,36.9,24.7,37.5,24,37.5z"/>
	</g>
	<g>
		<path class="st1" d="M36.3,25.3H11.8c-0.7,0-1.3-0.6-1.3-1.3s0.6-1.3,1.3-1.3h24.5c0.7,0,1.3,0.6,1.3,1.3S36.9,25.3,36.3,25.3z"/>
	</g>
</g>
</svg>
