<?xml version="1.0" encoding="utf-8"?>
<!-- Generator: Adobe Illustrator 23.0.1, SVG Export Plug-In . SVG Version: 6.00 Build 0)  -->
<svg version="1.1" id="Layer_1" xmlns="http://www.w3.org/2000/svg" xmlns:xlink="http://www.w3.org/1999/xlink" x="0px" y="0px"
	 viewBox="0 0 48 48" style="enable-background:new 0 0 48 48;" xml:space="preserve">
<style type="text/css">
	.st0{fill:#2DB268;}
</style>
<g>
	<g>
		<path class="st0" d="M4.1,45.6c-0.4-0.2-0.8-0.5-0.9-1c-0.1-0.6,0.3-1.1,0.8-1.3c0.2-0.1,0.4-0.1,0.6-0.1c12.9,0,25.7,0,38.6,0
			c0.8,0,1.3,0.3,1.4,0.9c0.2,0.6-0.1,1.1-0.8,1.5C30.6,45.6,17.4,45.6,4.1,45.6z"/>
		<path class="st0" d="M39.7,8.6c-0.5-3.3-3.5-6-6.8-6.2c-2.3-0.1-4.2,0.7-5.8,2.3c-3.3,3.4-6.7,6.7-10,10.1
			c-2.9,2.9-5.8,5.9-8.8,8.8C8,23.8,7.8,24,7.7,24.4c-0.8,3.7-1.6,7.3-2.4,11c-0.2,1.1,0.5,1.8,1.6,1.6c3.7-0.8,7.3-1.6,11-2.4
			c0.3-0.1,0.6-0.2,0.8-0.4c6.3-6.3,12.6-12.6,18.9-18.9c1.5-1.5,2.2-3.2,2.2-5.3C39.8,9.4,39.8,9,39.7,8.6z M8.4,34.2
			C8,34.3,8,34.3,8.1,33.8c0.5-2.3,1-4.6,1.5-6.8c1.9,1.9,3.8,3.8,5.7,5.7C13,33.2,10.7,33.7,8.4,34.2z M34.1,15.4
			c-5.4,5.3-10.7,10.6-16,16c-0.1,0.1-0.2,0.2-0.2,0.2c-0.2,0-0.2-0.1-0.3-0.1c-2.3-2.3-4.6-4.5-6.8-6.8c-0.1-0.1-0.2-0.2,0-0.3
			c0.1,0,0.1-0.1,0.2-0.1c5.3-5.3,10.7-10.7,16-16c0.3-0.3,0.4-0.3,0.6,0c2.2,2.2,4.4,4.4,6.6,6.6C34.4,15,34.3,15.1,34.1,15.4z
			 M36.3,13.1c-0.2,0.3-0.3,0.3-0.6,0c-2.2-2.2-4.4-4.5-6.6-6.7c-0.2-0.2-0.2-0.4,0-0.6c1-0.8,2-1.2,3.7-1.2c1.8,0.1,3.4,1.1,4.2,3
			C37.9,9.6,37.6,11.5,36.3,13.1z"/>
	</g>
</g>
</svg>
